<svg width="60" height="60" viewBox="0 0 60 60" fill="none" xmlns="http://www.w3.org/2000/svg">
<g clip-path="url(#clip0_1160_2295)">
<path d="M0 30C0 13.4315 13.4315 0 30 0V0C46.5685 0 60 13.4315 60 30V30C60 46.5685 46.5685 60 30 60V60C13.4315 60 0 46.5685 0 30V30Z" fill="#FFBD12"/>
<path fill-rule="evenodd" clip-rule="evenodd" d="M53.9281 86.9917C53.7472 85.311 53.6357 83.6185 53.5717 81.9293C53.5078 80.2422 53.5914 78.5342 53.6281 76.8464C53.7029 73.4129 53.8244 69.9713 53.5511 66.543C53.2929 63.303 52.7001 60.0856 51.7645 56.9725C51.3089 55.4564 50.8288 53.8792 50.0795 52.4784C49.326 51.0699 48.1325 50.1319 46.8215 49.2718C45.4257 48.356 44.0411 47.4229 42.6508 46.4986C41.4837 45.7227 39.3834 44.8197 38.4259 43.7825C37.4183 42.6911 37.2289 39.9858 36.5578 38.6929C35.9044 37.4336 34.0545 36.6122 32.6302 36.6122C30.2727 36.6122 28.4864 36.4916 26.5479 38.6733C25.5807 39.7618 26.3502 40.8623 25.3364 41.907C24.4044 42.8676 22.0207 43.8547 20.8194 44.4121C19.3806 45.0797 17.9055 45.669 16.409 46.194C14.8824 46.7296 13.3173 47.1288 11.7822 47.6342C10.3107 48.1187 8.38932 50.1157 7.24698 51.1723C6.18495 52.1547 5.92138 52.0447 5.11399 53.2381C3.34203 55.8572 1.56813 58.5063 0.157059 61.342C-0.545791 62.7545 -1.22635 64.2404 -1.48136 65.8091C-1.75337 67.4822 -1.48367 69.0991 -1.04254 70.7191C-0.593513 72.3677 0.832394 73.9373 1.29693 75.5818C1.51101 76.3396 0.776173 77.1666 1.11418 77.8807C1.28299 78.2374 1.49558 78.5549 1.73761 78.8657C1.9241 79.1051 2.65136 79.052 2.74546 79.3451C2.84053 79.6411 2.31438 80.2554 2.30655 80.5617C2.29544 81.0001 2.27799 81.4385 2.2636 81.8769L2.17859 84.4687C2.12274 86.1718 2.06689 87.875 2.01104 89.5781C1.99278 90.1341 1.96616 90.6773 2.0994 91.2048C2.05131 91.1602 2.0056 91.1116 1.96384 91.0571C1.84163 90.8975 1.58244 91.0328 1.68616 91.2195C1.8593 91.5311 2.10828 91.7504 2.4008 91.9079C2.74074 92.4093 54.2222 93.5291 54.4755 92.0633C54.6177 91.2409 54.359 90.3605 54.2556 89.5434C54.1479 88.6923 54.0199 87.8449 53.9281 86.9917Z" fill="white"/>
<path fill-rule="evenodd" clip-rule="evenodd" d="M1.63275 65.8121C1.75869 65.4512 2.33478 65.6074 2.20795 65.9707C1.55595 67.839 2.01848 69.872 2.72334 71.6555C2.86479 72.0133 2.28766 72.1671 2.14815 71.8141C1.40667 69.938 0.947947 67.7741 1.63275 65.8121M6.00449 76.4837C7.84327 76.7424 9.68353 76.9021 11.535 77.0311C11.6178 77.0371 11.6893 77.0245 11.7512 76.9975C11.696 77.8457 11.6513 78.6946 11.6163 79.5434C11.1115 79.5293 10.5962 79.5628 10.0959 79.5494C9.44194 79.5315 8.78875 79.4987 8.13631 79.4488C6.87318 79.3532 5.61228 79.2011 4.36332 78.9907C3.89654 78.9124 3.30375 78.8646 2.7721 78.7095C2.26953 78.5626 1.82214 78.3194 1.58726 77.8613C1.38742 77.4735 1.35089 76.9984 1.35089 76.5695C1.35089 76.274 1.40159 75.9741 1.43216 75.6765C1.47019 75.6497 1.50449 75.6176 1.53208 75.5818C2.08685 75.7571 2.66249 75.8802 3.2262 75.9995C4.14409 76.1949 5.07541 76.3531 6.00449 76.4837M4.96737 69.5865C4.97752 70.1566 5.13522 70.6745 5.44206 71.1545C5.64965 71.4794 5.13313 71.7783 4.92696 71.4557C4.56577 70.8905 4.38278 70.2561 4.37085 69.5865C4.36399 69.2016 4.96051 69.2029 4.96737 69.5865M52.102 75.8063C52.351 75.8202 52.6015 75.8287 52.8512 75.842C53.0715 76.0304 53.3765 76.127 53.655 76.0671C53.6646 76.0912 53.6733 76.1182 53.6813 76.1494C53.7305 76.3411 53.7551 76.547 53.7834 76.7424C53.8118 76.9349 53.8334 77.1289 53.8483 77.3229C53.8558 77.4205 53.9027 77.6413 53.8431 77.7264C53.7894 77.8032 53.6709 77.7964 53.5888 77.8061C53.3681 77.83 53.1444 77.8413 52.9222 77.8599C52.5024 77.8964 52.0826 77.933 51.6636 77.9695C51.2527 78.0054 50.8016 77.9942 50.3997 78.1024C50.3311 77.2959 50.2685 76.4896 50.2103 75.6825C50.8329 75.7743 51.4839 75.772 52.102 75.8063M-0.102428 74.4689C0.148111 74.9529 0.379263 75.4288 0.858716 75.7197C0.921351 75.757 0.991442 75.7772 1.06302 75.7824C1.00934 76.0129 0.975783 76.2486 0.945957 76.4664C0.88034 76.9461 0.866172 77.4421 0.986222 77.9151C1.10329 78.3753 1.29716 78.7864 1.67744 79.081C1.85416 79.2183 2.04728 79.3226 2.2501 79.4054C2.2158 79.5017 2.19567 79.5972 2.20611 79.7024C2.15764 79.9463 2.12558 80.1947 2.09053 80.4326C2.01373 80.9607 1.93693 81.4896 1.87653 82.0207C1.75573 83.077 1.66104 84.1332 1.58125 85.1932C1.50147 86.2502 1.44405 87.3088 1.39633 88.368C1.37172 88.9096 1.3501 89.451 1.32997 89.9933C1.30983 90.5506 1.21961 91.1205 1.46568 91.6375C1.66402 92.0552 2.33436 92.0313 2.54016 91.6375C2.80114 91.1369 2.72433 90.5424 2.73104 89.9933C2.73775 89.4764 2.7467 88.9588 2.75789 88.4418C2.78026 87.3834 2.81307 86.3255 2.83916 85.2671C2.86452 84.234 2.89583 83.2015 2.91671 82.1684C2.92715 81.6276 2.9279 81.0868 2.93088 80.546C2.93237 80.2461 2.94505 79.9262 2.92268 79.6136C3.10909 79.6576 3.29699 79.6949 3.48266 79.7329C4.90014 80.0238 6.33254 80.2357 7.77388 80.367C8.4979 80.4326 9.22417 80.4789 9.95043 80.505C10.4843 80.5244 11.0376 80.5617 11.5797 80.5416C11.5372 81.8365 11.5178 83.1322 11.52 84.4279C11.5215 85.3625 11.5342 86.2972 11.5573 87.2319C11.57 87.7234 11.5804 88.215 11.5953 88.7066C11.602 88.9275 11.602 89.1504 11.617 89.3705C11.6214 89.4391 11.6311 89.5056 11.6438 89.5712C11.5946 89.7107 11.5536 89.8486 11.52 89.9778C11.356 90.6043 11.356 91.2063 11.4291 91.8448C11.4917 92.3863 11.9473 92.8883 12.549 92.6982C12.6467 92.6675 12.7444 92.6355 12.8413 92.6026C13.7271 92.7033 14.6182 92.7265 15.5167 92.7436C16.8298 92.7691 18.1436 92.7772 19.4575 92.7839C22.0344 92.7974 24.6122 92.8041 27.1899 92.8115C32.3699 92.8264 37.5499 92.8406 42.73 92.8555C44.1676 92.8601 45.6052 92.8637 47.0428 92.8683C47.787 92.8704 48.5296 92.8712 49.2731 92.8996C49.6198 92.913 49.9672 92.9317 50.314 92.9369C50.7159 92.9436 51.0716 92.8279 51.4556 92.7228C51.6726 92.6623 51.7583 92.4445 51.7121 92.2603C52.0595 92.3431 52.4808 92.1671 52.5994 91.7755C52.6859 91.4912 52.6538 91.1831 52.5248 90.9198V90.9191C52.2758 89.3459 51.9596 87.7801 51.7113 86.2062C51.4392 84.4823 51.1774 82.7548 50.947 81.0242C50.774 79.7172 50.6316 80.6437 50.5086 79.3308C51.0447 79.3726 51.6509 79.2093 52.1818 79.1399C52.5629 79.0907 52.9469 79.0511 53.3286 78.9989C53.3003 79.3838 53.3085 79.7762 53.2981 80.1454C53.2779 80.8787 53.2869 81.609 53.3055 82.3423C53.3413 83.7573 53.4211 82.9337 53.5486 84.3428C53.6776 85.7624 53.8357 87.1767 54.0273 88.5896C54.1257 89.3168 54.2309 90.0433 54.342 90.7691C54.3934 91.1078 54.4464 91.4458 54.5008 91.7844C54.5657 92.1834 54.5866 92.5617 54.8856 92.8615C55.113 93.089 55.5775 93.0696 55.7281 92.7526C55.919 92.352 55.8325 92.0089 55.7617 91.5882C55.7043 91.2503 55.6491 90.9123 55.5947 90.5745C55.4784 89.8501 55.368 89.1251 55.2644 88.3993C55.0645 87.0007 54.8759 85.5997 54.7074 84.1974C54.5373 82.7838 54.3614 83.6096 54.1943 82.1961C54.1101 81.4829 54.0258 80.7713 53.9274 80.0605C53.8774 79.6949 53.8461 79.3056 53.7805 78.9288C53.8014 78.9259 53.8223 78.9221 53.8431 78.9183C54.2965 78.8355 54.6835 78.5797 54.7976 78.1127C54.9064 77.6659 54.7767 77.152 54.685 76.7134C54.6067 76.3398 54.5359 75.863 54.2955 75.5429C55.1426 74.4635 55.6935 73.1053 56.045 71.7995C56.4278 70.3769 56.588 68.892 56.622 67.4219C56.6613 65.7188 56.533 64.0255 56.2412 62.3602C56.2344 62.0073 56.2181 61.6546 56.1919 61.3022C55.9354 57.8441 54.8587 53.7511 51.4451 52.1353C51.4317 52.1287 51.4175 52.1226 51.4034 52.1167C51.1357 51.7966 50.8016 51.5087 50.5317 51.2395C50.0537 50.762 49.5542 50.3055 49.0247 49.8848C47.9764 49.0517 46.8266 48.3863 45.6313 47.7872C44.4226 47.1808 43.196 46.6117 42.0149 45.95C40.9859 45.3726 40.0598 44.6774 39.1807 43.8926C38.1927 43.0102 37.4895 41.8204 37.2136 40.5217C37.1995 40.4539 37.0988 40.4726 37.0973 40.5374C37.025 42.9177 38.6311 45.0213 40.4796 46.352C42.6897 47.9417 45.3584 48.6943 47.5998 50.2355C48.1568 50.6181 48.678 51.05 49.1739 51.5087C48.4141 51.4311 47.6408 51.4804 46.9287 51.6907C46.6484 51.6736 46.3665 51.6684 46.0854 51.6549C45.4426 51.6228 44.7991 51.5931 44.1557 51.5647C42.8441 51.5065 41.5317 51.4536 40.2194 51.4073C37.6446 51.3163 35.0692 51.2476 32.4937 51.2022C27.3181 51.1104 22.1358 51.0925 16.961 51.2425C15.5577 51.2828 8.17877 51.003 7.49575 51.082C8.50014 50.2123 9.60221 49.5022 10.8139 48.9181C12.3298 48.1893 13.8964 47.7029 15.5152 47.2583C18.849 46.3431 22.3111 45.4606 24.979 43.1355C25.6419 42.5574 26.231 41.8928 26.7134 41.1566C27.1742 40.4539 27.6865 39.5542 27.6991 38.6972C27.7081 38.0885 26.861 37.8669 26.5598 38.3883C26.3726 38.7113 26.2802 39.0657 26.1273 39.4043C25.9752 39.74 25.7948 40.0637 25.5942 40.3734C25.1997 40.9821 24.7106 41.525 24.1782 42.0151C23.0433 43.0609 21.6683 43.827 20.2456 44.4066C17.0155 45.7217 13.4826 46.2767 10.4217 48.0103C9.08249 48.7689 7.80072 49.8155 6.99616 51.1507C6.86642 51.1709 6.73742 51.1947 6.60843 51.2215C6.70461 51.0999 6.80155 50.9784 6.89923 50.8575C6.96336 50.7784 6.86418 50.6741 6.78589 50.7441C5.26402 52.0987 3.8622 53.5615 2.59161 55.1564C1.3762 56.6826 0.242809 58.2819 -0.559511 60.0692C-2.0016 63.2797 -2.31925 66.9519 -1.57434 70.3848C-1.37152 71.3202 -1.08519 72.2362 -0.720572 73.1216C-0.532668 73.5789 -0.329105 74.0294 -0.102428 74.4689" fill="black"/>
<path fill-rule="evenodd" clip-rule="evenodd" d="M32.7523 7.51095C36.9861 7.51095 42.2889 12.3425 43.8408 14.3985C45.1457 16.1271 44.9611 25.0322 44.9611 30.3147C44.9611 31.4196 44.4618 33.5105 44.2806 34.5673C43.6165 38.4399 40.7232 41.6876 34.9967 41.6876C30.334 41.6876 26.7458 40.2102 23.2758 36.4313C22.4842 35.5692 18.6181 38.6555 17.8275 37.5441C15.7623 37.5441 14.0354 18.2407 18.0902 12.4509C22.1449 6.66099 28.5184 7.51095 32.7523 7.51095Z" fill="white"/>
<path fill-rule="evenodd" clip-rule="evenodd" d="M20.0269 8.87052C22.4734 6.64388 25.7326 5.57271 29.021 5.65178C30.724 5.69281 32.4211 6.01729 34.0295 6.57302C34.8341 6.852 35.6133 7.21602 36.3582 7.62778C36.6266 7.77582 36.8741 7.94929 37.1123 8.13351L37.1717 8.17978H37.1724C37.8114 8.40953 38.3819 8.82204 38.8993 9.30466C39.9365 9.22186 40.9819 9.3151 41.9848 9.63511C43.3807 10.0812 44.6729 10.898 45.5804 12.0579C46.6374 13.4083 46.9888 15.0463 46.8634 16.7373L46.8403 17.0245C46.7163 18.5182 46.4942 20.4395 45.2687 21.421C45.1755 21.4956 45.0726 21.5523 44.9659 21.5866C45.7556 22.9397 46.4036 24.4421 46.7913 25.9593C48.2714 31.7545 47.1335 37.7982 45.3537 43.3838C45.2075 43.844 44.5118 44.1499 44.1577 43.7001C43.5253 42.8959 42.6067 42.2828 41.5732 42.1679C40.9357 42.097 40.3012 42.2253 39.6987 41.9359C39.4623 41.8218 39.2341 41.6353 39.0701 41.4085C38.053 41.7942 36.9577 41.9762 35.8712 41.9314C34.0884 41.8583 32.1825 41.2407 30.9559 39.8861C30.7591 39.6686 30.7092 39.4245 30.7545 39.2044C30.9084 39.1495 31.0663 39.1086 31.229 39.083C32.7844 40.0001 34.499 40.6129 36.3416 40.6514C37.4063 40.6736 38.4449 40.5247 39.3082 39.8596C39.495 39.7156 39.6668 39.5562 39.8256 39.3849C41.6306 38.2233 42.9032 36.2504 43.5082 34.1371C44.0719 32.1663 44.0026 30.1142 43.8087 28.0927L43.7064 27.026C43.5573 25.4603 43.419 23.89 43.3802 22.3176L43.392 22.317V22.317C43.7731 22.2924 43.7759 21.6954 43.392 21.7203C42.3988 21.7846 41.4132 21.6216 40.4231 21.6926C40.4149 21.2244 40.3812 20.7582 40.2436 20.3066C40.1651 20.0486 39.716 19.9977 39.6684 20.3066C39.6047 20.7199 39.5815 21.1308 39.5745 21.5459C38.0928 21.5263 36.6126 21.4015 35.1307 21.4528C34.8573 21.1611 34.7703 20.644 34.6424 20.2842C34.6238 20.2312 34.6051 20.179 34.5857 20.126C34.4734 20.6401 34.3141 21.143 34.1046 21.6352L33.7411 21.6365C31.6791 21.6461 29.575 21.7078 27.5614 22.1362C27.4215 22.0287 27.3382 21.8412 27.3157 21.6709C27.1696 20.5627 26.9611 19.484 26.5917 18.428L26.5388 18.279C26.5345 18.2667 26.53 18.2535 26.5252 18.2397C26.253 18.6793 25.9282 19.089 25.5739 19.4706C25.3651 19.6955 25.1462 19.9105 24.9215 20.1195C24.7033 20.3619 24.4777 20.6007 24.2591 20.8439C24.2677 20.8881 24.2751 20.933 24.2812 20.9787C24.348 21.4834 24.355 21.9952 24.306 22.5017C24.2174 23.4175 23.959 24.3 23.5438 25.1163L23.5307 25.1981C23.4676 25.5806 23.3779 25.976 23.1684 26.2641C23.4299 26.5571 23.6313 26.9071 23.748 27.296C23.852 27.6422 23.3732 27.9422 23.1249 27.6589C22.9277 27.4338 22.7085 27.2476 22.4678 27.099C22.4526 27.1196 22.4252 27.1298 22.3944 27.1125C21.724 26.7403 20.5854 26.853 19.9158 27.2035C19.0829 27.6392 18.7578 28.5336 18.8503 29.4399C18.939 30.3059 19.3178 31.3182 20.0523 31.762C20.3893 31.9656 20.6518 31.9828 21.0097 31.8851C21.1241 31.854 21.266 31.7586 21.3269 31.7112L21.3868 31.6632C21.6215 31.4777 21.84 31.3506 22.117 31.3458C22.4003 31.2574 22.685 31.38 22.7933 31.6772L22.8 31.6964C22.8507 31.8478 22.9432 32.038 22.923 32.2692C22.9022 32.5169 22.7888 32.7422 22.6196 32.9234C22.5905 32.9548 22.5592 32.9861 22.5271 33.0152C25.4426 36.1728 25.8169 41.093 24.3219 45.0375C24.257 45.2106 24.1877 45.3814 24.1153 45.5507C23.8655 46.1311 22.9036 45.9513 22.7814 45.3762C22.7448 45.2039 22.7046 45.0323 22.6606 44.8622C22.5797 44.5479 22.4871 44.2366 22.3826 43.9298L22.3429 43.8149C22.2542 43.5613 22.1714 43.3055 22.0819 43.0518L22.073 43.0228C22.0696 43.0114 22.0659 42.9981 22.0618 42.9832L21.9104 43.3137V43.3137L21.4504 44.311C21.2351 44.7764 20.5511 44.5235 20.5256 44.075L20.525 44.0596C20.5228 43.9768 20.5198 43.8947 20.5146 43.8134C20.4818 43.204 20.3766 42.6117 20.2096 42.0321L20.1494 42.107C19.252 43.2168 18.1989 44.2571 16.7543 44.5131C16.3919 44.5773 15.9818 44.1983 16.2308 43.8321C16.3337 43.6807 16.4329 43.5255 16.5268 43.3681C16.4456 43.3301 16.3688 43.2905 16.2979 43.2503C15.7499 42.9422 15.2935 42.5036 14.9162 42.006C14.1162 40.9513 13.8298 39.6235 13.7597 38.3241C13.6852 36.9508 13.806 35.5029 14.181 34.1781C14.3436 33.6052 14.5636 33.0555 14.8178 32.5221C14.7999 32.4744 14.7828 32.4266 14.7656 32.3789C14.4912 31.6136 14.266 30.8311 14.0789 30.0396C13.7016 28.4418 13.4988 26.7933 13.4742 25.1515C13.4294 22.2102 13.9365 19.222 15.005 16.4791C16.1085 13.6505 17.7684 10.9256 20.0269 8.87052ZM18.6528 34.5861C18.4502 34.2669 17.9431 34.5546 18.1313 34.876L18.1383 34.8875C18.4597 35.394 18.6103 35.9699 18.7952 36.5345C18.9138 36.8978 19.4902 36.7427 19.3701 36.3756L19.3304 36.2531C19.1464 35.6805 18.9785 35.0985 18.6528 34.5861ZM20.4176 28.4933L20.5522 28.4281C20.9769 28.2254 21.349 28.0873 21.8507 28.2643C22.5225 28.5007 23.2421 29.2534 22.788 29.9837C22.621 30.2529 22.3242 30.3604 22.0185 30.297C21.5031 30.19 21.3701 29.7257 21.1085 29.3446L21.0635 29.28C20.9041 29.0494 20.7024 28.7306 20.437 28.6402C20.3766 28.6193 20.3512 28.5253 20.4176 28.4933ZM20.7964 12.9882L20.8398 12.9493C21.1284 12.6942 20.7048 12.2735 20.4178 12.5271C19.1039 13.6886 18.6476 15.5064 17.9661 17.0558C17.8132 17.4041 18.327 17.7085 18.4813 17.3571C19.1314 15.8787 19.5629 14.1102 20.7964 12.9882V12.9882ZM36.5849 12.4801C36.2416 12.3254 35.9413 12.8252 36.2713 12.9897L36.2837 12.9956C37.4439 13.52 37.9375 14.7075 38.4102 15.81C38.5609 16.1621 39.0746 15.8585 38.9255 15.5094L38.8402 15.3116C38.3469 14.1754 37.7716 13.0173 36.5849 12.4801ZM38.4033 11.7625C38.0395 11.6365 37.8836 12.2123 38.2445 12.3384C39.228 12.6808 39.9028 13.4193 40.4718 14.2637C40.685 14.58 41.2018 14.2816 40.9863 13.9623C40.3256 12.9822 39.5412 12.1594 38.4033 11.7625Z" fill="black"/>
<path fill-rule="evenodd" clip-rule="evenodd" d="M36.4065 36.4497C35.9053 36.2452 35.458 35.904 35.131 35.4681C35.0174 35.3165 34.9879 35.1565 35.0117 35.0102C35.0385 34.8456 35.1359 34.6964 35.2686 34.5964C35.4017 34.496 35.5683 34.4465 35.7293 34.4718C35.8692 34.4937 36.0085 34.5703 36.1187 34.7293L36.1417 34.761C36.3361 35.0241 36.5894 35.24 36.878 35.3791C37.1562 35.5132 37.4674 35.5758 37.7893 35.5394C38.4025 35.4701 38.8252 35.1384 39.2744 34.6878C39.3301 34.631 39.3858 34.5723 39.4418 34.5127C39.4772 34.4587 39.5263 34.4239 39.5807 34.4057C39.6412 34.3855 39.7097 34.3866 39.7723 34.4085C39.8328 34.4296 39.8868 34.4696 39.9231 34.5228C39.9575 34.5734 39.977 34.6359 39.9707 34.7078C39.9296 35.1747 39.6856 35.5914 39.339 35.9186C38.954 36.2819 38.4438 36.5333 37.9634 36.6215C37.4341 36.7186 36.8948 36.649 36.4065 36.4497V36.4497ZM38.213 29.247C38.7761 29.5894 39.6341 30.3877 39.0283 31.2366C38.3153 31.985 37.2888 31.1269 36.7829 30.7388C36.3138 30.438 35.7868 31.2116 36.222 31.5628C39.8774 34.2702 41.3609 29.3365 38.4978 28.8444C38.1826 28.7902 38.0655 29.141 38.213 29.247ZM31.6624 26.0975C31.7247 25.325 32.9007 25.1496 33.0177 25.914C33.1225 26.5988 32.9992 27.2279 32.6908 27.8444C32.3962 28.4334 31.6558 28.1586 31.5998 27.6223C31.5247 26.9033 31.6237 26.5781 31.6624 26.0975ZM40.615 25.7555C40.779 25.5407 41.0157 25.3941 41.2994 25.4769C42.1856 25.736 41.9244 26.9946 41.6131 27.6073C41.444 27.94 40.8974 28.0243 40.6503 27.7314C40.2477 27.2537 40.0549 26.2997 40.5667 25.8292C40.5806 25.8048 40.5961 25.7803 40.615 25.7555ZM32.6784 22.7172L32.8183 22.6927C33.2514 22.6178 33.7899 22.5458 34.0962 22.8941C34.2587 23.0788 34.3146 23.4221 34.0962 23.5989C33.712 23.9099 33.2873 23.7894 32.827 23.8157C32.4476 23.8375 32.0829 23.9003 31.7175 24.0048C30.9158 24.234 30.2625 24.6525 29.5778 25.112C29.4879 25.1723 29.3962 25.0573 29.4391 24.9733C29.8344 24.1988 30.6004 23.5625 31.3676 23.1747C31.7772 22.9677 32.2253 22.796 32.6784 22.7172ZM39.8071 22.3703L39.9143 22.3922C41.0803 22.6361 42.5952 23.1231 43.1473 24.2688C43.1684 24.4308 43.1461 24.4656 43.128 24.4882L43.122 24.4958C43.1071 24.5152 43.0952 24.5419 43.0251 24.5639C43.0056 24.5593 42.9859 24.5544 42.966 24.5491C42.7129 24.4828 42.5127 24.3914 42.3188 24.2965L42.1086 24.1929C41.8647 24.0733 41.6187 23.958 41.358 23.873C40.8016 23.6914 40.2293 23.5635 39.6481 23.4952C39.5221 23.4804 39.4008 23.4379 39.3051 23.365C39.2143 23.2958 39.1449 23.2 39.1133 23.0727C39.0723 22.9079 39.084 22.7831 39.1724 22.6345C39.2389 22.5228 39.334 22.4455 39.4431 22.401C39.5544 22.3557 39.6812 22.3451 39.8071 22.3703Z" fill="black"/>
<path fill-rule="evenodd" clip-rule="evenodd" d="M44.5007 29.9146C43.9986 30.5893 43.0679 30.8042 42.2094 30.73C40.3579 30.5517 39.7752 28.4481 39.7145 26.8131C40.9561 27.1625 39.6095 24.6879 43.8537 24.4158C45.3498 24.291 44.9373 25.195 45.5983 25.8554C45.5848 27.2415 45.3541 28.7477 44.5007 29.9146M35.6818 28.3219C34.5887 33.443 28.6028 32.2249 27.974 27.6085C28.5546 27.1986 28.4017 26.1863 29.123 25.8195C30.2662 25.0888 31.6953 25.12 32.9936 25.1372C34.653 25.2512 35.1259 25.9389 35.9784 26.6892C35.9373 27.1903 35.8191 27.7842 35.6818 28.3219M46.8719 23.5676C46.8105 23.5574 46.7491 23.5478 46.6877 23.5388C46.6397 23.5115 46.5834 23.4906 46.5179 23.478C46.3684 23.44 46.22 23.4144 46.0718 23.4006C43.9443 22.9216 39.0224 23.6017 38.8193 25.4179C38.1418 25.6442 37.5556 25.4416 36.7704 25.4617C36.1726 22.9624 25.8392 23.3152 25.3422 24.822C25.3404 24.8215 25.3385 24.821 25.3366 24.8204C24.859 24.6726 24.1551 24.7082 23.6085 24.6848C22.4415 24.6604 21.2731 24.7644 20.1313 25.0106C17.9932 25.3506 15.0751 25.7485 16.5621 28.4196C16.5624 28.4201 16.5626 28.4206 16.563 28.421L16.5632 28.4208C16.8195 28.6836 17.2544 28.472 17.2706 28.1162C16.7707 26.8508 17.8999 26.6989 18.7687 26.3352C20.9306 25.5582 23.1316 25.4505 25.3675 25.6909C25.5357 25.889 25.791 26.0618 26.0607 26.1522C27.5557 26.4004 26.7678 27.5098 27.7128 27.6711C27.5392 31.5382 32.2324 33.6491 34.9517 31.107C36.0375 30.0451 36.2963 28.472 36.548 27.054C36.6811 27.0241 36.7657 26.9513 36.8152 26.8549C37.1353 26.5352 37.3364 26.24 37.9694 26.1522C38.6023 26.0644 39.0896 26.2406 39.1555 26.2945C39.1722 26.328 39.19 26.3615 39.2107 26.3951C39.2397 26.4452 39.279 26.4851 39.3238 26.5165C38.6987 30.3673 41.687 32.8027 44.7039 30.8054C46.0147 29.5719 46.2917 27.6833 46.3465 25.9976C46.5241 25.8903 46.6367 25.6824 46.5751 25.4211C46.4904 25.0608 46.6892 24.7488 47.0058 24.5922C47.4171 24.3888 47.3444 23.6459 46.8719 23.5676" fill="black"/>
</g>
<path d="M30 58C14.536 58 2 45.464 2 30H-2C-2 47.6731 12.3269 62 30 62V58ZM58 30C58 45.464 45.464 58 30 58V62C47.6731 62 62 47.6731 62 30H58ZM30 2C45.464 2 58 14.536 58 30H62C62 12.3269 47.6731 -2 30 -2V2ZM30 -2C12.3269 -2 -2 12.3269 -2 30H2C2 14.536 14.536 2 30 2V-2Z" fill="#18191F"/>
<defs>
<clipPath id="clip0_1160_2295">
<path d="M0 30C0 13.4315 13.4315 0 30 0V0C46.5685 0 60 13.4315 60 30V30C60 46.5685 46.5685 60 30 60V60C13.4315 60 0 46.5685 0 30V30Z" fill="white"/>
</clipPath>
</defs>
</svg>
