<svg width="100" height="91" viewBox="0 0 100 91" fill="none" xmlns="http://www.w3.org/2000/svg">
<path fill-rule="evenodd" clip-rule="evenodd" d="M87.3392 74.6182C87.1763 71.5917 86.9761 68.5675 86.7365 65.5459C86.259 59.5274 85.6339 53.5041 84.5936 47.5547C83.5673 41.6846 82.1309 35.9766 80.0615 30.383C79.1015 27.7879 78.0618 25.574 76.5536 23.2411C75.1274 21.0354 73.3075 19.5408 71.0402 18.2094C68.9974 17.0097 66.6242 14.9283 64.6649 13.5849C63.847 13.0241 62.164 13.0615 61.6031 12.2319C60.8686 11.1455 61.3449 9.4827 60.6044 8.39991C59.7581 7.16188 58.5723 6.20012 57.2352 5.50144C55.7759 4.51322 54.057 4.06589 52.3336 4.12748C49.7921 3.97336 47.2325 4.78244 45.6009 6.851C44.7867 7.88333 44.3113 9.07438 44.2455 10.3932C44.2284 10.7363 44.3386 11.0067 44.5199 11.202C44.4124 11.3458 44.3054 11.4897 44.199 11.6344C43.8653 11.1401 43.0852 10.8774 42.5654 11.2505C40.8647 12.4713 39.0266 13.4419 37.0867 14.1534C36.6328 13.9387 36.0833 14.0381 35.6945 14.3888C35.5367 14.5309 35.3693 14.6526 35.1944 14.7558C34.4751 14.9508 33.7446 15.1137 33.0034 15.2396C32.7713 15.2789 32.5747 15.4107 32.4256 15.5883C32.2047 15.3818 31.9011 15.2826 31.562 15.4119C27.6468 16.9043 23.9495 19.2228 21.1391 22.3639C18.0256 25.8438 16.3903 30.1726 15.1453 34.6076C13.7976 39.4084 12.9363 44.3288 12.2129 49.2574C11.4799 54.2513 10.758 59.2647 10.2536 64.2875C9.96982 67.114 9.86157 69.9663 9.99005 72.8053C10.0541 74.2241 10.1837 75.6384 10.3901 77.0437C10.4382 77.3725 10.4885 77.7512 10.5696 78.1292C10.3232 78.0813 10.0297 78.2896 10.0796 78.6231C10.4275 80.9456 13.2355 81.6221 15.1721 81.8895C18.3398 82.3269 21.5241 82.5695 24.7223 82.5882C27.8652 82.6065 31.0075 82.4048 34.1439 82.2241C37.3594 82.0389 40.5747 81.8528 43.7901 81.6643C56.6728 80.9091 69.5562 80.162 82.4389 79.4064C83.6159 79.3374 84.9598 79.2439 85.968 78.5613C87.3499 77.6253 87.421 76.1381 87.3392 74.6182V74.6182Z" fill="white"/>
<path fill-rule="evenodd" clip-rule="evenodd" d="M24.5368 48.6407C24.4921 48.5569 24.5959 48.4817 24.6647 48.542C26.2286 49.9144 27.0474 52.1185 27.2191 54.1558C27.401 56.3162 27.1431 58.553 27.0446 60.7124C26.9349 63.1178 26.8363 65.5241 26.7024 67.9284C26.5665 70.3677 26.42 72.8061 26.2945 75.2459L26.0121 80.7342V80.7342C25.9821 81.3191 26.0472 82.0385 25.8227 82.5843C25.4748 83.4306 24.4415 83.2996 24.2244 82.5923L24.2176 82.569L24.1978 82.5843C24.0062 81.9469 24.1496 81.19 24.182 80.5309L24.4779 74.5345V74.5345C24.6869 70.2961 24.8734 66.0576 25.0979 61.82L25.1742 60.4075C25.2792 58.506 25.3597 56.6093 25.4243 54.7083L25.4453 54.0745C25.5067 52.1659 25.458 50.364 24.5368 48.6407ZM62.4488 13.4552C63.3201 13.3725 63.978 13.6614 64.769 13.9658C65.1136 14.0982 65.4399 14.2513 65.7705 14.4098C66.1844 14.6083 66.4505 14.9592 66.7054 15.3301L66.8417 15.53C67.9029 17.0849 68.6168 18.8787 69.4223 20.5715C70.3645 22.5517 71.3162 24.5276 72.2383 26.5172L72.6934 27.4975C72.9209 27.9876 73.1477 28.4781 73.3712 28.9701L73.7573 29.8263C74.1451 30.6947 74.4928 31.6134 73.94 32.5092C73.426 33.3424 72.5147 33.9871 71.7932 34.6311C71.1912 35.1685 70.5891 35.7058 69.9869 36.243C71.2317 37.4897 72.0675 39.0593 72.5587 40.7426C73.2567 40.4519 74.1086 40.3961 74.8302 40.2703C75.8404 40.0942 75.9642 41.6235 75.0108 41.6048C74.3067 41.591 73.4807 41.6629 72.7584 41.5146C72.8839 42.0678 72.975 42.6293 73.0329 43.1923C73.3364 46.1434 72.6732 49.1117 71.9815 51.967L71.9246 52.2014C71.1734 55.2919 70.4612 58.3904 69.824 61.5065C69.1853 64.6293 68.6109 67.7652 68.1009 70.9115C67.5819 74.114 67.2146 77.3342 66.8199 80.5537C66.7602 81.041 66.4536 81.4586 65.9151 81.4586C65.4666 81.4586 64.9539 81.0399 65.0102 80.5537C65.4175 77.0477 65.9952 73.5602 66.5691 70.0782C67.5575 64.0818 68.8016 58.1376 70.2328 52.2324L70.4828 51.2041C71.1267 48.537 71.7109 45.7888 71.3879 43.0377C71.1248 40.7975 70.1882 38.409 68.3369 37.0176L68.2806 36.9757C67.8482 36.6586 67.6818 36.0522 68.1077 35.6346C68.3787 35.3688 68.65 35.1033 68.9215 34.838L70.5511 33.247L70.8797 32.9257C71.1536 32.6582 71.4289 32.3924 71.7124 32.1347C71.8839 31.9789 72.3491 31.6817 72.3832 31.4253C72.4053 31.258 72.2071 30.9641 72.1269 30.81L71.759 30.0676V30.0676C71.5502 29.6443 71.3478 29.2179 71.1438 28.7921C70.7212 27.9101 70.2924 27.0308 69.879 26.1444L67.3951 20.8221V20.8221C66.6944 19.3206 66.0702 17.7354 65.154 16.3473L64.9734 16.0767C64.8226 15.8489 64.6895 15.6295 64.5942 15.3509C64.5026 15.0828 64.3876 14.7884 64.2182 14.5597C63.8214 14.0228 63.063 13.7182 62.4285 13.6058C62.3368 13.5894 62.3701 13.4628 62.4488 13.4552ZM43.3449 12.0573C43.4001 12.0573 43.4085 12.1361 43.3576 12.1514C42.592 12.3816 41.8605 12.753 41.2636 13.2892C40.9781 13.5458 40.6906 13.837 40.5143 14.1824C40.4468 14.3145 40.4095 14.4542 40.3821 14.5989L40.3733 14.6474C40.3279 14.9089 40.2628 15.0545 40.1299 15.2639L40.1071 15.2994C39.3486 16.4707 38.817 17.7718 38.3309 19.0744L37.2725 21.9148V21.9148L36.2147 24.7556C35.8739 25.6708 35.5329 26.5862 35.1919 27.5015C35.0036 28.0069 34.81 28.5101 34.6164 29.0134C34.5327 29.2314 34.4426 29.4478 34.366 29.6686C34.3555 29.6987 34.322 29.8804 34.2969 29.9245L34.3055 29.9395V29.9395C34.5188 30.2984 35.0878 30.5982 35.4103 30.859L36.5209 31.7568V31.7568C37.3127 32.3971 38.1248 33.0194 38.8929 33.6882C39.3753 34.1082 39.0752 34.8603 38.5371 35.0356C37.6355 35.3294 36.7522 35.6809 35.8641 36.0132C35.5053 36.1474 35.1318 36.2642 34.7772 36.4122L34.5613 36.5055C34.477 36.5434 34.5176 36.5431 34.521 36.6986C34.5243 36.8618 34.5706 37.0319 34.5971 37.1922C34.8963 39.001 35.2134 40.8066 35.5481 42.6091C36.732 48.9832 38.1464 55.3107 39.7595 61.5896C40.5743 64.7605 41.4482 67.9157 42.2808 71.0818C43.1115 74.2395 44.2044 77.352 45.2479 80.4446C45.5424 81.3167 44.1594 81.6922 43.8722 80.8238C42.6696 77.1865 41.5693 73.5175 40.4331 69.8595C38.4144 63.3599 36.8236 56.7192 35.4166 50.0624C34.7193 46.7632 34.0815 43.4513 33.5038 40.129C33.3944 39.5 33.2872 38.8707 33.1821 38.241L33.029 37.3147C32.9241 36.6545 32.8643 35.9668 33.3775 35.4443C33.8786 34.9344 34.7388 34.7537 35.3982 34.5145L35.4461 34.4969C35.8656 34.3403 36.2882 34.1895 36.7092 34.0339C36.0891 33.5457 35.4766 33.0467 34.858 32.5589C34.359 32.1652 33.8521 31.7796 33.3602 31.377C32.9547 31.0449 32.624 30.6185 32.5817 30.0784C32.5386 29.5264 32.7751 29.0142 32.9659 28.508L32.9842 28.459C33.1715 27.9536 33.3593 27.4484 33.5519 26.9449L34.7438 23.828V23.828C35.5012 21.8474 36.2266 19.8507 37.0233 17.8855C37.3384 17.1078 37.6819 16.3423 38.0878 15.6072C38.2834 15.2527 38.4933 14.9058 38.7214 14.5712C38.9769 14.196 39.2089 14.013 39.6048 13.806C40.2379 13.475 40.7348 12.92 41.3706 12.5788C41.9946 12.2438 42.6366 12.0651 43.3449 12.0573ZM45.4003 8.52379C45.4245 8.48222 45.4886 8.50073 45.4894 8.548C45.506 9.53233 45.2721 10.5382 45.1282 11.5115C44.9837 12.4883 44.9373 13.5193 44.7282 14.4857C44.7239 14.5307 44.7152 14.5751 44.7029 14.6186L44.6929 14.6517V14.6517C44.6047 14.9225 44.3752 15.152 44.0936 15.2237C44.1822 15.7143 44.2656 16.2058 44.3358 16.6999C44.4563 17.5492 44.5663 18.3997 44.6744 19.2505L44.8039 20.2716C44.9262 21.2339 45.0451 22.1965 45.1626 23.1593C45.4615 23.2843 45.7666 23.3875 46.079 23.4769C46.7985 23.6827 47.5355 23.7665 48.278 23.8393C49.7901 23.9876 51.3138 24.0563 52.8312 24.1406L53.1563 24.1589C54.8623 24.2566 56.5776 24.274 58.2793 24.0989C59.1231 24.0121 59.9602 23.8665 60.7831 23.6601C61.2012 23.5552 61.6076 23.3985 62.0249 23.296C62.1633 23.262 62.287 23.1835 62.4257 23.0998C62.4873 23.022 62.5737 22.963 62.6862 22.9403L62.7167 22.9349V22.9349L62.7469 22.9306L62.7573 22.9259L62.7565 22.9291C62.8419 22.9176 62.9229 22.9177 62.9994 22.9281C63.0299 22.1774 63.0629 21.4268 63.1042 20.6763C63.2152 18.6607 63.5217 16.558 63.1126 14.5599C63.0989 14.4927 63.1903 14.469 63.2141 14.5319C64.017 16.6472 63.9268 18.9601 63.9672 21.1864C64.0068 23.3635 63.9829 25.5421 63.972 27.7198C64.128 27.7862 64.2671 27.8761 64.3773 28.0024C64.5974 28.2546 64.6607 28.6932 64.3773 28.9367C64.2517 29.0446 64.1127 29.1196 63.9652 29.1716C63.9573 31.0633 63.9439 32.9553 63.9249 34.8472C64.2848 35.1251 64.3184 35.7849 63.9114 36.0592C63.8437 42.1858 63.7323 48.3126 63.64 54.4383L63.4466 67.2902V67.2902C63.4208 69.0025 63.3781 70.7148 63.3628 72.4269L63.375 72.4317V72.4317L63.4178 72.4515C63.4899 72.4854 63.5971 72.5401 63.6194 72.5961C63.6252 72.6108 63.6267 72.6208 63.626 72.6284C63.7441 72.6449 63.861 72.7007 63.9622 72.7967C64.212 73.0341 64.1613 73.3918 63.9622 73.6336L63.909 73.6982V73.6982C63.7849 73.8489 63.5493 73.9069 63.3569 73.8762C63.3588 74.9448 63.3657 76.0136 63.3623 77.0822C63.3612 77.4086 63.3563 77.735 63.3506 78.0614L63.3372 78.844C63.3282 79.2906 63.2887 79.8582 62.8312 80.0588C62.3152 80.2852 61.8524 80.0998 61.6434 79.5756C61.5869 79.4337 61.599 79.3014 61.6197 79.1611C61.6132 78.9502 61.5802 78.7058 61.5843 78.5101L61.6014 77.6942V77.6942C61.604 77.5683 61.6091 77.4426 61.6127 77.3168L61.5978 77.3183V77.3183C59.7641 77.4073 57.9175 77.3639 56.0808 77.3628L55.264 77.364C54.5824 77.3646 53.8994 77.361 53.2188 77.3349L52.9637 77.324C52.4541 77.3002 51.9183 77.2925 51.39 77.2469C51.4573 77.7892 51.5202 78.3318 51.5763 78.8749C51.6294 79.3899 51.0978 79.8276 50.6236 79.8276C50.0605 79.8276 49.7384 79.3849 49.671 78.8749C49.3527 76.4691 49.2225 74.0409 48.9185 71.6335C48.6461 69.4773 48.41 67.3162 48.17 65.1559L48.0898 64.4359C47.2114 56.5742 46.3587 48.7096 45.543 40.8413L45.1632 37.163C44.7796 33.4557 44.3938 29.7481 44.0684 26.0353C43.8823 23.9126 43.7108 21.7896 43.5495 19.6648C43.4311 18.1039 43.3567 16.5516 43.3083 14.9937C43.1174 14.7973 43.0217 14.5105 43.1063 14.2143C43.1557 14.0415 43.2132 13.8696 43.2739 13.698C43.2701 13.5294 43.2661 13.3609 43.2629 13.1921C43.2598 13.0324 43.422 12.9501 43.5518 12.9766C43.7877 12.4054 44.0475 11.8391 44.2644 11.2734C44.6153 10.3577 44.9045 9.37097 45.4003 8.52379ZM25.8018 18.4204C29.4703 16.1215 33.837 14.4671 38.2105 14.6453C38.31 14.6494 38.338 14.8009 38.2347 14.8239C35.9019 15.3448 33.5434 15.9792 31.3348 16.9026C29.1198 17.8287 27.0136 19.0757 25.1378 20.5743C21.6768 23.3391 18.9867 26.9355 17.2153 30.9894C16.1778 33.3641 15.4505 35.8712 14.8154 38.3792C14.1434 41.0335 13.5896 43.7164 13.1291 46.4154C12.2195 51.7467 11.6899 57.1368 11.4082 62.5361C11.1215 68.0285 11.2396 73.5248 11.0352 79.018C10.9998 79.9697 9.63945 79.9511 9.57031 79.018C9.10705 72.7726 9.3637 66.4275 9.79214 60.1865C10.1774 54.576 10.8501 48.9773 11.9334 43.4572L12.0278 42.9787C13.0405 37.8715 14.262 32.6406 16.7103 28.0154C18.8005 24.0667 22.0274 20.786 25.8018 18.4204ZM76.7436 42.8294C76.7627 42.7747 76.835 42.7754 76.8543 42.8294C77.2725 44 77.2875 45.321 77.3987 46.555L77.4074 46.6497C77.514 47.7752 77.5943 48.9021 77.6689 50.03L77.6966 50.4529C77.9962 55.0539 78.3706 59.6498 78.9349 64.2266C79.4971 68.7861 80.2573 73.3139 81.0793 77.8327C81.1709 78.3358 80.9481 78.8483 80.4205 78.9932C79.9554 79.1209 79.3583 78.8345 79.26 78.3343C78.7496 75.7406 78.3369 73.1434 77.9687 70.5273C77.3206 65.9204 76.8369 61.2924 76.5259 56.6505C76.3699 54.3192 76.2738 51.9888 76.2356 49.6524C76.2179 48.5685 76.2461 47.4819 76.3038 46.399L76.3177 46.1492C76.3814 45.0424 76.3749 43.8849 76.7436 42.8294ZM37.1039 72.135C37.1529 72.1085 37.2136 72.163 37.1825 72.2137C36.4722 73.3681 35.5113 74.3634 34.5825 75.3445C33.6115 76.37 32.6646 77.4264 31.674 78.4318C30.9583 79.158 29.807 77.9865 30.5623 77.3201C31.6244 76.3834 32.7344 75.4932 33.8154 74.5773L34.2881 74.1766C35.1744 73.4278 36.087 72.6858 37.1039 72.135ZM70.8419 71.5568C70.7889 71.4558 70.91 71.3739 70.9923 71.4408C71.5653 71.9067 72.0788 72.4625 72.632 72.9542C73.1799 73.4413 73.7483 73.8955 74.3322 74.3386C74.9185 74.7835 75.5176 75.2106 76.1329 75.6147C76.6432 75.9499 77.1692 76.2184 77.7036 76.4967C77.9511 76.5286 78.1803 76.65 78.3637 76.8803C78.6538 77.2445 78.6846 77.9312 78.2823 78.2474L78.2101 78.3041V78.3041C77.7406 78.6731 77.1833 78.718 76.7211 78.3041C76.2051 77.842 75.7173 77.3335 75.2218 76.8452L75.0728 76.6993C74.5403 76.1817 74.0208 75.6474 73.531 75.089L73.0875 74.5846C72.2649 73.6465 71.4087 72.6355 70.8419 71.5568ZM68.2026 17.4752C68.1073 17.412 68.166 17.2421 68.2837 17.2826L68.4995 17.3572C69.401 17.6705 70.329 18.018 71.1476 18.5004C72.0273 19.0187 72.8395 19.6361 73.6155 20.2986C75.2217 21.6697 76.5882 23.3557 77.7495 25.1131C80.0798 28.6396 81.5208 32.6782 82.6843 36.7192C83.9249 41.0279 84.88 45.4294 85.6599 49.8432C86.4523 54.3289 87.0637 58.8551 87.4654 63.3926C87.6634 65.6279 87.7963 67.8644 87.863 70.1074C87.8975 71.2613 87.8963 72.4143 87.8867 73.5686C87.8843 73.8655 87.8863 74.1622 87.8896 74.4588L87.9009 75.3491C87.907 75.9119 87.9744 76.5033 87.8406 77.0532C87.6253 77.9384 86.1617 77.7732 86.2099 76.8686C86.1657 76.5676 86.164 76.2565 86.1754 75.9448C86.1685 75.9046 86.1609 75.8637 86.1526 75.8219C86.1286 75.7023 86.149 75.5916 86.196 75.4964C86.2035 75.3469 86.2104 75.1983 86.2128 75.0523C86.2224 74.458 86.2218 73.866 86.2054 73.2719C86.1707 72.0192 86.1209 70.7665 86.0705 69.5143C85.9699 67.0121 85.83 64.5088 85.6272 62.0127C84.9215 53.3245 83.4313 44.5867 80.9282 36.228C79.7656 32.3464 78.1629 28.536 75.8644 25.1818C74.8441 23.6928 73.693 22.3174 72.4169 21.0409C71.1327 19.7564 69.7176 18.4785 68.2026 17.4752ZM50.8825 73.4837L51.0559 74.7383C51.1426 75.3658 51.2285 75.9934 51.31 76.6215C51.8637 76.5457 52.4301 76.5139 52.9636 76.4666C53.8976 76.3839 54.838 76.3439 55.7748 76.3052C57.7119 76.2253 59.6587 76.0867 61.5977 76.0964C61.6176 76.0965 61.6364 76.0978 61.6552 76.0994L61.7514 73.6238V73.6238L60.389 73.6217V73.6217C59.2347 73.6198 58.0807 73.61 56.9264 73.6001C55.8868 73.5912 54.8468 73.5897 53.8074 73.5681L53.362 73.5575C52.5738 73.5363 51.7034 73.5801 50.8825 73.4837ZM61.8658 69.8904C61.8102 69.8969 61.7536 69.9024 61.6935 69.905C61.4236 69.9163 61.1517 69.9084 60.8816 69.9107C60.3066 69.9157 59.7317 69.9196 59.1566 69.9195C58.0067 69.9194 56.8568 69.9263 55.707 69.9402C54.5233 69.9545 53.3404 69.975 52.1566 69.9774C51.583 69.9784 51.0113 69.9632 50.438 69.9471C50.5307 70.7619 50.6276 71.5761 50.7346 72.3884C51.625 72.2681 52.5826 72.3287 53.4528 72.3204L53.5658 72.3189C54.7535 72.2986 55.9422 72.3136 57.1302 72.3151C58.3523 72.3165 59.5743 72.3205 60.7965 72.3305L61.8005 72.3387V72.3387L61.8024 72.2882V72.2882C61.8319 71.4897 61.8509 70.6902 61.8658 69.8904ZM49.9962 65.9924C50.1075 66.9542 50.212 67.9176 50.3185 68.8807C50.3893 68.8698 50.461 68.8604 50.534 68.8527C51.1084 68.7927 51.6816 68.7412 52.258 68.7054C53.4071 68.6342 54.556 68.5967 55.707 68.5658C56.8904 68.5341 58.0741 68.5098 59.258 68.493C59.8332 68.4849 60.4079 68.4858 60.9831 68.4897C61.253 68.4916 61.5255 68.4831 61.7949 68.5012C61.8269 68.5033 61.8577 68.5067 61.8881 68.5102L61.9083 67.0642C61.9118 66.8232 61.9154 66.5823 61.9194 66.3414C61.0304 66.3962 60.1266 66.3753 59.2383 66.3756L59.0336 66.376C57.9174 66.3811 56.8008 66.3658 55.6848 66.3426C54.5335 66.3186 53.3845 66.2811 52.2352 66.2073C51.7696 66.1776 51.3073 66.1379 50.8443 66.0868L50.6127 66.0603C50.4112 66.0366 50.2036 66.0174 49.9962 65.9924ZM62.0111 61.9119C59.8702 62.0818 57.7406 62.1528 55.5939 62.1739L55.2718 62.1767C53.3748 62.1911 51.4622 62.2693 49.5608 62.2191C49.6744 63.2048 49.7878 64.1904 49.9021 65.1759C50.1744 65.1632 50.448 65.1631 50.7141 65.1535C51.2555 65.134 51.7951 65.1291 52.3368 65.1279C53.4528 65.1253 54.5687 65.135 55.6848 65.1328C56.835 65.1303 57.985 65.1109 59.135 65.0893C60.0674 65.0718 61.0096 65.0016 61.9445 65.0042L62.0111 61.9119V61.9119ZM62.1017 57.7068C61.8536 57.7891 61.5607 57.7944 61.2396 57.8092L60.4108 57.8504C60.0267 57.8693 59.6425 57.887 59.2581 57.901C57.9773 57.9479 56.6964 57.9917 55.4154 58.0325C54.1027 58.0741 52.7837 58.0983 51.4708 58.057C50.8277 58.0366 50.19 58.0029 49.5488 57.9493C49.3903 57.936 49.2287 57.9274 49.0669 57.9159C49.2161 59.2219 49.3659 60.5276 49.5162 61.8334C51.4086 61.6011 53.3156 61.4565 55.2056 61.2163L56.9146 60.9981C58.6228 60.7801 60.3296 60.5662 62.044 60.3859L62.1017 57.7068V57.7068ZM62.1929 53.4552C61.8288 53.5451 61.414 53.5406 61.0644 53.5626L60.9997 53.5671C60.3373 53.6174 59.6733 53.6425 59.0094 53.6588C57.7083 53.6909 56.4063 53.7069 55.1048 53.7149L54.3221 53.7198C53.2787 53.7259 52.236 53.7285 51.1923 53.7042C50.5228 53.6887 49.8549 53.6559 49.1859 53.6224C48.9855 53.6123 48.7807 53.6056 48.5752 53.5953C48.715 54.8317 48.8562 56.0678 48.9972 57.304C49.217 57.2691 49.4378 57.2425 49.6483 57.207C50.1874 57.1159 50.7255 57.0431 51.2686 56.9781C52.4447 56.8371 53.627 56.7357 54.8086 56.6501C56.0217 56.5622 57.2358 56.4879 58.4492 56.4028L59.3085 56.3422C59.5949 56.3223 59.8813 56.3031 60.1679 56.2855C60.6573 56.2555 61.2262 56.2894 61.7116 56.1829C61.8431 56.1282 61.989 56.1156 62.1352 56.1468L62.1929 53.4552V53.4552ZM62.3031 48.4787C62.1772 48.6386 61.989 48.7225 61.7648 48.7515C60.5965 48.903 59.3981 48.9274 58.22 48.9988L58.0123 49.0119C56.7958 49.0921 55.5786 49.155 54.3612 49.2197C53.1106 49.2861 51.8602 49.3402 50.6086 49.3838C50.0772 49.4023 49.5432 49.4044 49.0111 49.3976L48.7831 49.3942C48.5646 49.3905 48.3357 49.391 48.1063 49.3836C48.2332 50.5397 48.3614 51.6957 48.4914 52.8514C48.7253 52.826 48.9591 52.8066 49.1859 52.7826C49.8545 52.7119 50.5222 52.6421 51.1923 52.5893C52.462 52.4892 53.7326 52.429 55.0046 52.3661C56.3061 52.3017 57.6082 52.2588 58.9099 52.198C59.541 52.1685 60.1718 52.1318 60.801 52.0738C61.242 52.0333 61.7659 51.8831 62.226 51.9383C62.2511 50.785 62.2772 49.6319 62.3031 48.4787ZM62.4058 44.0207C62.3858 44.0515 62.3626 44.0813 62.3343 44.1091C61.8199 44.6173 61.186 44.5781 60.5044 44.6314L60.4626 44.6348C59.7946 44.6909 59.1262 44.7444 58.4575 44.7926C57.1207 44.8891 55.7813 44.9566 54.4425 45.0167C53.0724 45.0783 51.6936 45.1207 50.3222 45.0927C49.4439 45.0748 48.5241 45.0779 47.6284 44.9923C47.7659 46.2656 47.9043 47.5388 48.0437 48.8118C48.2956 48.7643 48.5491 48.728 48.7892 48.6902C49.3943 48.595 50 48.4993 50.6086 48.4292C51.8248 48.2892 53.0413 48.1583 54.2598 48.0401C55.3019 47.9391 56.3436 47.8365 57.3864 47.7442L58.0123 47.6901C59.2566 47.5854 60.5165 47.4128 61.7648 47.3873C61.9705 47.3831 62.2031 47.495 62.321 47.6717C62.3486 46.4546 62.3772 45.2376 62.4058 44.0207ZM62.4922 40.4117C62.1744 40.4503 61.8321 40.4283 61.5389 40.4379C60.7975 40.4621 60.056 40.4846 59.3146 40.5065L54.8657 40.6378V40.6378C53.351 40.6824 51.8309 40.7159 50.3156 40.6945C49.649 40.6851 48.9796 40.684 48.3132 40.6478L48.0912 40.6343C47.817 40.616 47.4805 40.6135 47.1518 40.5801L47.5398 44.1738V44.1738C48.4313 44.045 49.3499 43.9968 50.2338 43.9213L50.4227 43.9046C51.7263 43.7859 53.0361 43.7073 54.342 43.6189C55.6817 43.5282 57.0194 43.4181 58.3572 43.3054C59.0258 43.2493 59.6944 43.1932 60.3625 43.1317L60.4451 43.1236C61.0762 43.0577 61.6697 42.9175 62.2287 43.2896C62.3105 43.3439 62.3745 43.4167 62.4183 43.4981C62.4427 42.4693 62.4666 41.4404 62.4922 40.4117ZM62.5958 36.2176C59.8863 36.3267 57.1765 36.4094 54.465 36.4458C52.9388 36.4662 51.4145 36.4518 49.8885 36.42C49.2267 36.4061 48.5595 36.3744 47.8983 36.3237L47.6507 36.3038C47.3363 36.2774 47.006 36.2582 46.6772 36.2265C46.8131 37.4621 46.9479 38.6979 47.0817 39.9339C47.4052 39.8737 47.7433 39.846 48.0268 39.8097L48.0912 39.8012C48.7956 39.7043 49.5066 39.6478 50.2145 39.5855C51.5928 39.4641 52.978 39.3858 54.36 39.3193C55.7753 39.2512 57.1912 39.1935 58.6066 39.1306L60.0222 39.0672C60.2581 39.0568 60.494 39.0465 60.7299 39.0365C61.0671 39.0223 61.4041 39.0088 61.7411 38.9948C61.9074 38.9879 62.0802 38.9654 62.2467 38.9739L62.2941 38.9676C62.3159 38.9648 62.3352 38.9626 62.3529 38.9607C62.3982 38.9262 62.4469 38.8976 62.4986 38.8759L62.5299 38.8637L62.5958 36.2176ZM46.2329 32.2431C46.3588 33.3554 46.4832 34.468 46.6059 35.5807C46.9924 35.5366 47.3834 35.5122 47.7524 35.479C48.4965 35.4123 49.244 35.3539 49.9902 35.3196L51.4817 35.2503C52.4759 35.2044 53.4701 35.1599 54.4651 35.1236C57.1881 35.0242 59.911 34.9104 62.6324 34.7714C62.6516 34.0167 62.6714 33.2621 62.6916 32.5074C62.561 32.6473 62.3723 32.7394 62.1243 32.7388C59.2673 32.7311 56.408 32.7476 53.5513 32.7007C52.1214 32.6771 50.6931 32.6424 49.2648 32.5691C48.5659 32.5333 47.8632 32.4601 47.1696 32.364C46.8738 32.3231 46.5502 32.2939 46.2329 32.2431ZM45.7756 28.2796C45.9099 29.4189 46.0417 30.5587 46.1713 31.6987C46.5261 31.6354 46.8926 31.6017 47.2237 31.5566C47.9349 31.4599 48.6505 31.3829 49.3669 31.3425C50.7607 31.2636 52.1554 31.2239 53.5513 31.1943C56.4078 31.1336 59.2671 31.134 62.1242 31.1114C62.3926 31.1093 62.5919 31.2155 62.7227 31.374C62.7425 30.6625 62.7635 29.9509 62.785 29.2393C62.5091 29.2102 62.2354 29.1689 61.9823 29.1512C61.2041 29.0969 60.4257 29.0473 59.6469 29.0026C58.0218 28.9094 56.3952 28.8298 54.769 28.7591C53.1423 28.6883 51.5152 28.6191 49.888 28.5589L49.1764 28.5329C48.0449 28.4908 46.8941 28.4377 45.7756 28.2796ZM45.264 23.9884C45.4038 25.1423 45.5415 26.2965 45.6788 27.4509L45.7206 27.8082V27.8082C47.0815 27.5436 48.5157 27.4661 49.8881 27.4078C51.5155 27.3386 53.1401 27.3029 54.769 27.3079C56.3962 27.3128 58.021 27.3513 59.647 27.4185C60.4594 27.452 61.2718 27.4908 62.0837 27.535C62.307 27.547 62.5687 27.5406 62.8381 27.5445C62.844 27.3631 62.849 27.1817 62.8552 27.0004C62.8799 26.2657 62.9041 25.531 62.9293 24.7963C62.3802 25.0784 61.6661 25.1922 61.1142 25.3124L61.0513 25.3263C60.1399 25.531 59.2094 25.6636 58.2792 25.7447C56.4525 25.904 54.6068 25.8445 52.7818 25.6902L52.4621 25.6628C50.8596 25.5239 49.1982 25.3477 47.6446 24.9512C46.9045 24.7623 46.1395 24.498 45.4763 24.1149C45.4074 24.0751 45.3362 24.0329 45.264 23.9884ZM60.6946 10.2746C60.7104 10.2122 60.8039 10.198 60.8346 10.2563C61.0504 10.6663 61.1307 11.1583 61.2805 11.5976C61.4418 12.0699 61.5922 12.5456 61.7702 13.0121C62.1418 13.9868 62.5803 14.9235 63.103 15.8264C63.6207 16.7205 62.1711 17.3587 61.7902 16.3799C61.3969 15.3698 61.0736 14.3254 60.878 13.258C60.7826 12.7373 60.6975 12.2094 60.6699 11.6802C60.6461 11.2257 60.5822 10.7179 60.6946 10.2746Z" fill="black"/>
</svg>
