<svg width="100" height="91" viewBox="0 0 100 91" fill="none" xmlns="http://www.w3.org/2000/svg">
<path fill-rule="evenodd" clip-rule="evenodd" d="M48.1503 6.82095C49.5228 6.44102 51.1007 6.48524 52.5088 6.58237C53.9389 6.68113 55.4734 6.85046 56.8153 7.3844C57.9818 7.84859 58.9655 8.62917 59.5649 9.74771C60.0577 10.6672 60.2888 11.6756 60.4337 12.6999C60.4929 13.1191 60.5425 13.5392 60.5897 13.9598L60.6866 14.8348C60.7246 15.1693 60.7578 15.4202 60.8243 15.7934C61.0085 16.8259 61.2649 17.6885 61.8375 18.4396C63.224 20.2582 65.488 20.8669 67.5469 21.6431C68.8644 22.1397 69.9076 23.0332 70.1971 24.4688C70.4763 25.8538 81.0941 37.4734 82.1365 38.4529L82.1651 38.4793C82.9737 39.2073 82.8785 40.5758 82.9917 41.5749C83.1129 42.6462 83.2283 43.7182 83.3379 44.7906C83.5604 46.9694 83.7586 49.1505 83.9325 51.3334C84.6125 59.8709 84.9211 68.4381 84.8555 77.0023L84.8514 77.487C84.8413 78.5739 84.8493 79.6656 84.8006 80.7514C84.7538 81.795 84.438 82.8395 83.471 83.3846C82.5751 83.8896 81.4423 83.8451 80.4411 83.8956L80.3812 83.8987C79.3069 83.9575 78.2322 84.0057 77.157 84.0456C72.7872 84.2072 68.4134 84.2247 64.0411 84.2046C55.3672 84.1647 46.6845 83.974 38.0187 84.4596C35.8097 84.5834 28.7674 83.8312 26.5654 84.0456C24.4607 84.2503 26.2665 85.2826 24.9663 85.2146C20.6903 84.9909 16.6343 84.0368 12.5374 82.8875C12.0256 82.744 11.6343 82.2474 11.6407 81.7105C11.7168 75.8136 11.8833 69.9183 12.1434 64.0268C12.3751 58.7787 12.6805 53.5339 13.0593 48.2944C13.224 46.0169 13.4025 43.7404 13.5949 41.4651L13.6782 40.4901C13.7869 39.2326 13.8494 37.9521 14.0966 36.7122C14.3412 35.4858 14.8961 34.4223 15.7007 33.4721C16.4227 32.6196 24.5967 25.9459 26.5654 24.6825C28.4497 23.4731 30.4284 22.4528 32.3628 21.3319C33.1676 20.8656 33.9405 21.0334 34.6281 20.4609C34.9906 20.1592 40.25 18.126 41.6689 17.4551L41.7108 17.4352C42.7968 16.9141 43.7963 16.3491 44.5467 15.4481C44.7983 15.1461 45.2917 13.2433 45.2926 12.6354C45.2943 11.5493 45.212 10.4052 45.5396 9.35318C45.9314 8.09513 46.8757 7.17371 48.1503 6.82095ZM50.4772 34.8244L42.0731 51.1909H47.5379L43.6207 60.2843H52.2231L49.1716 73.0215L66.6225 51.1909H60.074L66.6225 42.5957H62.0806L66.6225 35.3166L50.4772 34.8244Z" fill="white"/>
<path fill-rule="evenodd" clip-rule="evenodd" d="M78.7082 44.0275C78.6888 44.0468 78.6684 44.0663 78.649 44.0867C78.6715 44.0551 78.6909 44.0223 78.7082 43.9897V44.0275ZM62.3755 39.26C61.6207 40.2242 60.8221 42.1861 60.0888 43.1676C59.9836 43.3084 59.8804 43.4495 59.7783 43.5913C59.474 44.0172 59.8804 44.6688 60.3809 44.6413C61.3807 44.5881 62.3796 44.5137 63.3784 44.4381C61.3266 46.7247 59.6231 49.565 57.7387 51.9875C57.6111 52.1499 57.4855 52.3134 57.3598 52.4767C56.8829 53.0987 57.3609 53.3806 58.0125 53.213C58.1473 53.1784 58.2821 53.1437 58.4169 53.11C59.3647 52.8669 60.3114 52.6239 61.2592 52.3818C61.7831 52.2469 62.3101 52.0805 62.8412 51.9774C63.0598 51.9355 63.2691 51.9702 63.4754 51.9815C63.3764 52.1325 63.2375 52.4052 63.2099 52.4471C62.9004 52.9291 62.5889 53.4091 62.2754 53.8871C61.6647 54.8166 61.0509 55.7449 60.4146 56.6569C57.9328 60.2131 55.2559 63.608 52.6026 67.0345C51.9347 67.8964 51.2575 68.7493 50.5692 69.5939C50.5722 69.5887 50.5743 69.5836 50.5773 69.5786C51.1973 68.3713 51.8172 67.1652 52.4371 65.9579C53.6157 63.6642 54.7831 61.3642 55.9739 59.0765C56.0352 58.957 56.0975 58.8385 56.1598 58.719C56.407 58.245 56.0015 57.7529 55.4939 57.8528C53.0176 58.3407 50.5654 58.9402 48.1436 59.6501C48.0346 59.7663 47.8743 59.8003 47.7313 59.7722C47.6339 59.8013 47.5362 59.8293 47.4389 59.8588C47.4684 59.7976 47.4989 59.7371 47.5286 59.6761C47.4297 59.5901 47.3804 59.457 47.4448 59.2908C48.8384 55.695 50.749 52.2237 53.0128 49.0446C52.9217 49.0463 52.8309 49.0476 52.7394 49.0503C50.2546 49.1177 47.8167 49.4741 45.4218 50.1512C45.4105 49.9295 45.5443 49.5865 45.6168 49.4231C45.9069 48.7704 46.2398 48.1331 46.5513 47.4907C47.1886 46.1711 47.8259 44.8527 48.4632 43.5331C49.0862 42.2442 49.7041 40.9513 50.2903 39.6441C50.5978 38.9587 50.9052 38.2723 51.2116 37.5861C51.4618 37.0274 51.6589 36.4646 51.8662 35.8928C52.4749 36.0715 60.291 36.1102 62.1906 36.2421C62.6563 36.2748 63.1231 36.3044 63.5898 36.3299C63.9616 36.3514 64.4855 36.4331 64.7419 36.0971L64.8389 36.1787C63.9953 37.1877 63.1864 38.2245 62.3755 39.26V39.26ZM31.8599 20.5129C31.8987 20.4955 31.9365 20.4781 31.9743 20.4608C31.9937 20.4884 32.0171 20.5139 32.0417 20.5394C32.1029 20.6017 32.1632 20.669 32.2265 20.7304C32.104 20.6588 31.9814 20.5863 31.8599 20.5129V20.5129ZM86.4834 77.9094C86.4129 76.4213 86.3343 74.9332 86.2505 73.4451C86.0851 70.5366 85.9145 67.6279 85.6867 64.7233C85.2241 58.8375 84.7931 52.9536 84.0996 47.0893C83.8086 44.631 83.4021 42.1912 82.9946 39.7502C83.0467 39.7032 83.0998 39.6562 83.1519 39.6103C83.0957 40.2782 84.0026 40.7011 84.452 40.0351C84.4857 39.9852 84.5184 39.9351 84.551 39.883C84.9402 39.2539 85.8369 36.1674 85.7746 35.906C85.6622 35.4351 85.3497 35.0165 85.1056 34.6019C84.8922 34.2392 84.6767 33.8766 84.4581 33.5172C84.022 32.7971 83.5726 32.0843 83.1018 31.3867C82.1265 29.9426 81.0602 28.5557 79.804 27.3434C78.5039 26.0872 77.0118 25.0546 75.4706 24.1181C74.7302 23.6687 73.9662 23.2613 73.188 22.8812C72.42 22.5074 71.5794 22.0938 70.7522 21.8814C70.7052 21.8691 70.6572 21.9346 70.7001 21.9693C70.9197 22.1429 71.1495 22.3062 71.3833 22.4635C70.7501 22.244 70.0975 22.0856 69.4398 22.0295C68.1662 21.5821 66.8773 21.1727 65.6099 20.7058C64.3639 20.2463 63.1363 19.7296 62.308 18.6409C61.6002 17.7103 61.1529 16.5717 60.8087 15.4626C60.4308 14.24 60.2807 12.9694 59.9314 11.7449C59.9038 11.6458 59.7415 11.6346 59.72 11.7449C59.4708 13.0297 59.482 14.4739 59.624 15.7709C59.7731 17.1313 60.1561 18.4662 60.9895 19.5723C61.9577 20.8581 63.2711 21.574 64.7489 22.1449C65.9408 22.6066 67.148 23.0763 68.3684 23.4889C68.2091 23.5932 68.0477 23.6973 67.8813 23.7963C67.2195 24.1896 66.5311 24.5389 65.8274 24.8525C64.5426 25.4253 63.1894 25.8544 61.828 26.2026C59.2941 26.848 56.6959 27.1759 54.0834 27.2188C48.8564 27.3056 43.5711 26.2108 38.7904 24.0967C37.4443 23.5013 36.1298 22.8465 34.8287 22.1593C34.4222 21.9447 34.0137 21.7282 33.6072 21.5055C33.6409 21.5036 33.6756 21.5005 33.7093 21.4974C34.6173 21.4117 35.514 21.237 36.3923 20.9899C38.1908 20.4823 39.9148 19.6908 41.6081 18.9114C43.0441 18.2506 44.523 17.4979 45.4003 16.1213C45.869 15.3849 46.0845 14.5209 46.2592 13.6753C46.4542 12.7336 46.684 11.7878 46.826 10.8371C46.876 10.5041 46.8015 10.0537 46.444 9.89643C46.301 9.83402 46.1836 9.78296 46.0233 9.78296C45.6689 9.78296 45.3053 10.0404 45.2205 10.3938C45.0111 11.2752 44.8845 12.1811 44.7201 13.0716C44.5781 13.8416 44.4484 14.6455 44.0327 15.3225C43.3066 16.5084 41.8829 17.1149 40.6798 17.6921C39.155 18.4233 37.6291 19.1361 36.0451 19.7296C35.3475 19.9909 34.6377 20.228 33.9177 20.4219C33.9463 20.2453 33.9218 20.0594 33.8176 19.9194C33.644 19.6886 33.4469 19.5354 33.2232 19.3588C32.9801 19.1667 32.6533 19.0667 32.3663 19.1515C32.3663 19.1524 32.3653 19.1515 32.3653 19.1515C32.2489 19.126 32.1202 19.1361 31.9874 19.1963C31.5769 19.3844 31.1673 19.5742 30.7578 19.7674C24.8658 22.5392 19.1414 25.795 14.806 30.7535C14.1809 31.4684 13.5957 32.2202 13.0473 32.9952C12.5142 33.748 11.8544 34.5651 11.7073 35.4985C11.6951 35.5762 11.8084 35.6119 11.8278 35.5322C11.8626 35.3882 11.9095 35.2472 11.9678 35.1104C11.8462 35.5353 11.8534 35.9867 12.0249 36.4309C12.2282 36.9538 12.601 37.3001 13.0718 37.4379C12.5989 39.5103 12.2813 41.6101 12.026 43.7333C11.6593 46.7921 11.3989 49.8581 11.2028 52.9322C10.8106 59.0673 10.636 65.2329 10.7626 71.3791C10.7984 73.1163 10.8576 74.8536 10.9475 76.5898C10.9924 77.4579 11.0414 78.3249 11.0976 79.193C11.1528 80.047 11.1078 80.9876 11.8523 81.438C11.8615 81.4717 11.8718 81.5043 11.8809 81.538C12.0617 82.1681 12.8675 81.966 12.9431 81.394C12.9441 81.3879 12.9451 81.3807 12.9462 81.3747C13.5549 80.91 13.4629 80.1358 13.418 79.3932C13.37 78.5916 13.3189 77.7909 13.276 76.9902C13.1943 75.454 13.1249 73.9181 13.0626 72.3809C12.9411 69.3415 12.8726 66.2981 12.8502 63.2566C12.8052 57.1726 13.1566 51.0979 13.5733 45.0314C13.7479 42.4934 13.9522 39.9667 14.0145 37.4297C14.3403 37.2602 14.4403 36.7783 14.2769 36.4535C18.1354 39.0863 21.7161 42.234 24.5911 45.8924C25.0711 46.503 25.5297 47.1322 25.9689 47.7726C26.1118 47.9809 26.2477 48.1975 26.3845 48.4139C26.2518 49.0175 26.1486 49.6313 26.0138 50.2104C25.736 51.4064 25.6186 52.6472 25.4592 53.8627C25.1355 56.3312 24.9077 58.8221 24.7147 61.3038C24.3348 66.2051 24.0529 71.1054 23.964 76.021C23.915 78.8009 23.8496 81.5982 23.9722 84.3773C23.8813 84.9205 24.3705 85.4517 24.8822 85.5201C25.3305 85.5803 25.7493 85.3476 25.9454 84.9726C27.3425 85.1463 28.7764 85.226 30.1644 85.2361C32.0344 85.2494 33.9044 85.2475 35.7744 85.2075C39.5155 85.1258 43.2555 85.0299 46.9955 84.9186C54.4756 84.698 61.9556 84.4764 69.4367 84.2548C71.511 84.1934 73.5853 84.1322 75.6595 84.0709C76.5951 84.0433 77.7614 84.3129 78.4988 83.5909C78.6254 83.4662 78.7235 83.3202 78.7929 83.1639C79.0135 83.219 79.2842 83.1649 79.4292 82.9944C79.6998 82.6747 79.899 82.3786 79.8888 81.9354C79.8796 81.5206 79.7652 81.0836 79.706 80.673C79.5936 79.9019 79.4854 79.1307 79.3822 78.3586C79.179 76.8328 78.989 75.305 78.8144 73.776C78.4569 70.6499 78.1321 67.5164 77.8789 64.38C77.3764 58.1777 77.2344 51.9426 77.2518 45.7208C77.2538 45.1642 77.2569 44.6076 77.2599 44.0509C77.2834 44.0806 77.309 44.1081 77.3365 44.1317C77.359 44.151 77.3815 44.1704 77.4039 44.1909C77.6654 44.4207 78.1005 44.5392 78.414 44.3216C78.799 44.0723 79.0646 43.6985 79.3649 43.3606C79.6804 43.0062 80.0052 42.6609 80.3331 42.3178C80.9683 41.654 81.625 41.0176 82.295 40.3885C82.3491 40.3385 82.4032 40.2875 82.4574 40.2383C82.4615 42.2187 82.4594 44.1981 82.5125 46.1773C82.5922 49.1177 82.7515 52.055 82.8976 54.9912C83.1876 60.8054 83.4879 66.6177 83.7769 72.431C83.8576 74.0539 83.9342 75.6777 84.0149 77.3006C84.0557 78.1125 84.0955 78.9244 84.1344 79.7365C84.1548 80.1755 84.1752 80.6158 84.1956 81.055C84.2181 81.5268 84.1885 82.0313 84.3478 82.4797C84.7104 83.505 86.2771 83.65 86.5783 82.4797C86.7673 81.7454 86.6223 80.8956 86.5886 80.1418C86.5538 79.3984 86.5191 78.6538 86.4834 77.9094V77.9094Z" fill="black"/>
</svg>
