<svg width="100" height="91" viewBox="0 0 100 91" fill="none" xmlns="http://www.w3.org/2000/svg">
<path fill-rule="evenodd" clip-rule="evenodd" d="M14.994 81.401C15.5325 82.2192 16.5918 82.0934 17.0466 81.4597C22.2253 82.6662 27.5343 82.1907 32.785 81.8949C47.5809 81.2929 62.4604 83.1801 77.1965 81.2059C78.7597 80.8932 80.5792 81.0427 81.8583 79.9584C83.9041 77.5611 83.4635 73.9213 83.1376 71.0014C80.5254 54.5416 76.8116 37.9308 74.959 21.3652C74.8556 19.7873 75.5058 17.8267 76.0888 16.3434C76.2328 16.0674 77.1429 15.797 77.6151 15.4786C79.0645 14.4383 78.8295 12.574 77.5731 11.4801C73.5051 8.61267 67.8422 9.61465 63.5268 10.6726C62.6998 7.56648 61.7702 5.52361 60.1957 5.32131C57.1987 4.93624 49.9287 3.75955 47.6893 5.32131C46.618 6.06845 45.9304 8.70109 45.1592 9.98357C39.5352 9.88369 28.1207 2.35931 25.7741 10.8324C23.8675 10.964 21.9791 12.6286 22.3438 14.626C19.8711 16.811 21.8214 20.0873 21.7872 22.8069C21.4621 28.5772 18.3398 33.7377 17.0408 39.3117C14.0715 50.1228 10.7108 69.788 14.3936 80.3406C14.3143 80.2993 14.1412 80.3616 14.2533 80.4493C14.6703 80.5669 14.7246 81.0922 14.994 81.401Z" fill="white"/>
<path fill-rule="evenodd" clip-rule="evenodd" d="M79.6529 78.6516C78.9622 73.1065 78.4819 66.4126 78.4764 60.8212C78.4759 60.2946 79.2929 60.2955 79.2934 60.8212C79.2989 66.4126 79.7793 73.1065 80.47 78.6516C80.5349 79.1729 79.7171 79.1664 79.6529 78.6516M74.5363 44.2697C73.469 44.9224 72.0674 44.4697 71.0112 44.0375C70.5303 43.8407 70.7421 43.0506 71.2283 43.2496C72.0322 43.5786 73.2071 44.0629 74.0555 43.6041C74.9023 43.1462 74.9405 41.8865 74.9468 41.0553C74.9508 40.5289 75.7678 40.5293 75.7639 41.0553C75.7553 42.1862 75.604 43.6165 74.5363 44.2697M72.5608 69.6449C71.484 69.093 70.5652 68.3385 69.8258 67.3807C69.5044 66.9643 70.2145 66.5579 70.5313 66.9683C71.1821 67.8113 72.03 68.456 72.9732 68.9395C73.4417 69.1797 73.0278 69.8844 72.5608 69.6449M67.3852 41.1298C65.5377 48.5334 64.2978 56.0695 63.6901 63.6762C63.5665 65.2204 63.4797 66.7626 63.4307 68.3058C63.3817 68.7082 63.3347 69.1116 63.2908 69.515C63.1243 71.0407 62.9966 72.5912 63.0079 74.1272C63.013 74.8166 63.0344 75.5029 63.0814 76.1901C62.9997 75.9604 62.9241 75.7296 62.8506 75.4998C62.7005 75.029 62.6014 74.5408 62.4482 74.0731C62.3216 73.686 62.1582 73.3153 62.006 72.9405V72.9394C62.0519 71.4044 61.9478 69.8551 61.8947 68.3272C61.8262 66.3479 61.7415 64.3707 61.6975 62.3903C61.6097 58.4297 61.6536 54.466 61.7966 50.5075C62.0836 42.531 62.8087 34.5925 63.54 26.6487C63.7432 24.4396 63.9618 22.2315 64.1129 20.0183C64.2651 17.7817 64.3264 15.5409 64.3438 13.2983C64.3448 13.1368 64.0997 13.094 64.0547 13.2502C64.0149 12.7181 63.9444 12.187 63.827 11.6733C65.5887 12.7967 67.4465 13.768 69.2675 14.7893C70.2265 15.3275 71.1814 15.8749 72.17 16.357C72.7134 16.6224 73.2618 16.8666 73.8215 17.0974C74.4016 17.3364 74.9562 17.6653 75.5945 17.4987C75.6496 17.4845 75.7017 17.4641 75.7518 17.4375C75.6792 17.5753 75.6067 17.7122 75.5373 17.8512C75.2963 18.3301 75.0665 18.8112 74.8438 19.2963C74.7846 19.3402 74.7325 19.4006 74.6916 19.4791C74.5834 19.6905 74.4782 19.904 74.3761 20.1204C74.3556 20.1011 74.3352 20.0817 74.3148 20.0623C74.229 19.9816 74.1105 20.103 74.1861 20.191C74.2208 20.2307 74.2545 20.2696 74.2882 20.3094C73.6223 21.7423 73.081 23.2487 72.5234 24.7195C71.8381 26.5271 71.1886 28.3481 70.5768 30.1814C69.3706 33.7876 68.3064 37.4408 67.3852 41.1298M40.971 67.9979C37.5659 69.8215 34.3839 72.0007 31.3234 74.3513C30.9062 74.6717 30.4998 73.9615 30.911 73.6457C33.9715 71.2953 37.1536 69.1159 40.5587 67.2923C41.0226 67.044 41.4348 67.7495 40.971 67.9979M29.47 46.6405C29.293 46.6273 29.1211 46.5247 29.0761 46.3406C28.8003 45.2113 28.5843 43.981 28.8408 42.8291C28.9552 42.3153 29.7427 42.5339 29.6286 43.0462C29.4263 43.9546 29.5871 44.9364 29.7972 45.8422C32.767 45.9722 35.6971 44.9065 38.5384 44.1909C39.0494 44.0622 39.2652 44.8504 38.7557 44.9787C35.7416 45.7378 32.6239 46.874 29.47 46.6405M88.5937 76.7654C88.5967 76.7583 88.5998 76.7501 88.6018 76.743C88.7765 76.2139 88.7806 75.5991 88.8 75.0446C88.8337 74.058 88.7979 73.0693 88.7091 72.0858C88.5211 70.0156 88.1167 67.9791 87.6336 65.9599C86.6767 61.9606 85.3244 58.0694 84.5901 54.0158C83.1491 46.0588 83.4912 37.774 80.6632 30.099C79.4877 26.9083 77.8086 23.8413 75.527 21.3064C75.6935 20.7998 75.8559 20.2923 76.0142 19.7826C76.291 18.8961 76.5739 17.981 76.7444 17.068C76.7485 17.0435 76.7536 17.0179 76.7567 16.9924C77.728 16.5737 78.6114 15.7842 78.7625 14.7343C78.8279 14.2808 78.7523 13.7784 78.5562 13.3402C78.9566 12.9705 79.214 12.4905 79.1527 11.8471C79.0383 10.6358 77.6238 10.3242 76.6393 10.0874C75.5199 9.81875 74.3587 9.7442 73.2138 9.87084C72.6357 9.93416 72.0638 10.0404 71.5051 10.1997C71.02 10.3376 70.492 10.4795 70.1029 10.8125C70.0569 10.8513 70.0947 10.9269 70.1499 10.9269C70.9373 10.9239 71.7217 10.6348 72.5173 10.5969C73.3506 10.5582 74.182 10.6266 74.999 10.7982C75.7977 10.9657 76.5943 11.2108 77.3205 11.5897C77.5247 11.6969 77.824 11.7695 77.584 11.986C77.4083 12.1443 77.0631 12.1576 76.8374 12.181C76.338 12.2331 75.907 12.5252 75.8437 13.0583C75.7875 13.5292 76.0683 14.0623 76.5688 14.1685C76.5964 14.1747 76.6219 14.1818 76.6444 14.191C76.6576 14.2165 76.6781 14.238 76.676 14.2032C76.676 14.2032 76.677 14.2022 76.677 14.2032C76.6893 14.2778 76.6934 14.3073 76.6934 14.3125C76.6903 14.3064 76.6852 14.2808 76.6811 14.2604C76.6842 14.2788 76.6903 14.3084 76.6985 14.3523C76.6873 14.3043 76.6964 14.4219 76.6872 14.4402C76.4217 14.9304 75.6363 15.0684 75.1788 15.2797C75.0899 15.3204 75.0133 15.3685 74.948 15.4226C74.8397 15.3849 74.7294 15.3471 74.6181 15.3052C74.0696 15.0999 73.5222 14.9008 72.9666 14.7158C71.8943 14.3574 70.8086 14.0378 69.7362 13.6783C67.7059 12.9981 65.7429 12.1392 63.7504 11.3609C63.687 11.126 63.6135 10.8962 63.5267 10.6726C63.5093 10.6257 63.4256 10.6103 63.4164 10.6726C63.3857 10.8707 63.3612 11.0699 63.3408 11.27C63.3326 11.2884 63.3306 11.3088 63.3347 11.3282C63.2193 12.4925 63.2499 13.6844 63.1907 14.8477C63.1171 16.2979 62.9119 17.738 62.8536 19.1892V19.2158C62.6392 20.4546 62.4451 21.6976 62.2695 22.9446C62.0723 22.8833 61.8466 22.8956 61.6158 23.0191C59.9838 23.8903 58.1495 24.3754 56.304 24.4837C55.3746 24.5377 54.4544 24.5073 53.5301 24.4C52.9224 24.3305 52.324 24.2039 51.7245 24.0834C52.04 22.7608 52.3791 21.4443 52.7621 20.1412C53.0777 19.0698 53.429 18.0035 53.8631 16.973C54.3012 15.9323 54.8466 14.9386 55.3542 13.9295C55.5881 13.4628 55.3123 12.7489 54.7046 12.7979C54.5249 12.8122 54.3451 12.8234 54.1644 12.8316C52.4057 12.9155 50.5765 12.7194 48.8403 12.5446C46.8641 12.3444 44.8613 12.137 42.9024 11.8113C42.7574 11.7878 42.6981 11.9849 42.8411 12.0329C43.7705 12.3455 44.6887 12.6987 45.6416 12.9327C46.622 13.1748 47.6086 13.3954 48.6033 13.568C49.5562 13.7325 50.5132 13.8703 51.4732 13.9867C52.0993 14.0633 52.7325 14.1021 53.3626 14.1532C52.5139 15.5095 51.9287 17.0393 51.4191 18.5457C50.7644 20.4802 50.2834 22.4707 49.8126 24.4571C48.8056 28.715 47.9752 33.0157 47.3257 37.343C46.86 40.4457 46.4831 43.5607 46.2002 46.6839C46.1165 45.7351 46.0143 44.7893 45.8989 43.8446C45.5129 40.7081 44.9491 37.5922 44.1954 34.5232C44.2628 34.4047 44.2944 34.2627 44.272 34.1248C44.1361 33.2812 43.7787 32.5469 43.4651 31.7646C43.1536 30.6718 42.8176 29.5862 42.4561 28.5087C42.0455 27.0411 41.5849 25.5959 40.9956 24.1845C40.5452 23.109 40.0315 22.0611 39.4596 21.045C38.7763 19.6243 38.0257 18.2344 37.2015 16.9056C37.1586 16.782 37.0891 16.6666 36.9901 16.5696C36.8399 16.3327 36.6877 16.0988 36.5325 15.8669C36.4314 15.7158 36.1414 15.8077 36.2179 15.9997C36.2537 16.0897 36.2894 16.1795 36.3262 16.2684C32.9692 15.4288 29.6775 16.7126 26.4798 17.6604C25.673 17.9004 24.8579 18.1169 24.0307 18.2731C23.3801 18.3957 22.6223 18.5448 21.9738 18.4099C21.5397 18.3201 21.3477 18.123 21.5591 17.6593C21.7777 17.1794 22.3741 16.8637 22.8919 16.6514C23.087 16.6094 23.279 16.5349 23.4639 16.4225C23.8949 16.1611 24.0838 15.6157 23.8806 15.151C23.6957 14.7312 23.1564 14.3697 22.6795 14.5617C22.6111 14.5893 22.5437 14.6158 22.4763 14.6424C22.4691 14.6322 22.4609 14.6179 22.4538 14.5974C22.3854 14.4106 22.3557 14.6343 22.3854 14.3666C22.4344 13.9295 22.897 13.5322 23.2136 13.282C24.0011 12.658 25.1388 12.1964 26.155 12.4323C26.2316 12.4496 26.3082 12.4711 26.3838 12.4976C27.4306 12.8602 27.9403 11.3528 27.1038 10.791C27.0527 10.7573 26.9884 10.7144 26.9179 10.6644C26.5697 10.4223 26.06 10.0148 26.1989 9.64728C26.3705 9.19065 27.3826 8.92817 27.7656 8.77293C29.1505 8.21122 30.6467 7.89257 32.1399 7.8272C33.6422 7.76184 35.164 7.92729 36.6132 8.33265C37.324 8.53088 38.0543 8.83217 38.7263 9.13662C39.3299 9.40921 40.6433 9.76973 40.727 10.5337C40.7454 10.7023 40.9854 10.7594 41.0375 10.5755C41.4491 9.10894 39.8518 8.16219 38.7978 7.55656C38.1063 7.15815 37.322 6.91007 36.5632 6.66598C35.836 6.43108 35.0935 6.25848 34.3357 6.1542C32.7087 5.93166 31.0624 5.96025 29.4487 6.27277C27.9791 6.55782 26.3439 7.04386 25.1562 7.98959C24.427 8.56969 24.0971 9.49296 24.3902 10.3937C24.4004 10.4234 24.4106 10.454 24.4208 10.4836C23.1084 10.7185 21.8665 11.4702 21.0362 12.5181C20.354 13.379 19.9965 14.577 20.6073 15.579C20.5817 15.5973 20.5562 15.6167 20.5317 15.6371C19.9495 16.1029 19.5165 16.7791 19.3878 17.5184C19.1356 18.9768 20.0169 19.9971 21.2497 20.3872C20.9443 20.6856 20.6512 21.0021 20.3642 21.3187C19.7218 22.0285 19.108 22.8015 18.5667 23.5901C17.4698 25.1874 16.5322 26.9267 15.7121 28.6792C14.026 32.2783 12.9628 36.1521 12.399 40.0801C12.1151 42.0594 11.9251 44.0489 11.8526 46.0466C11.7689 48.3241 11.8536 50.6026 11.8097 52.8812C11.7668 55.0708 11.5248 57.2074 11.0356 59.342C10.5668 61.3835 9.94175 63.3843 9.37595 65.3993C8.73763 67.6687 8.03497 69.9278 7.69794 72.2676C7.52738 73.4583 7.40483 74.6524 7.49981 75.8565C7.59581 77.0831 8.0411 78.132 8.45167 79.2728C8.55584 79.5639 8.87347 79.6813 9.12777 79.619C9.18496 80.1654 9.39127 80.6985 9.69868 81.1601C10.3513 82.1385 11.3563 82.7626 12.5073 82.9893C13.8043 83.2436 15.1412 83.1833 16.4546 83.1364C17.8794 83.0853 19.3051 83.0393 20.7298 82.9801C22.2214 82.9185 23.713 82.8552 25.2046 82.7916C25.1552 81.2628 25.0964 79.7345 25.0299 78.2064C24.6703 69.9457 24.104 61.68 24.089 53.4085C24.0601 53.3915 24.0317 53.3714 24.0045 53.345C23.333 52.696 22.5086 52.2697 21.7341 51.7617C21.2957 51.4742 21.7055 50.767 22.1465 51.0563C22.7995 51.4845 23.48 51.8651 24.092 52.345C24.0955 51.4839 24.1031 50.6229 24.1202 49.7618C24.1306 49.2359 24.9476 49.2359 24.9372 49.7618C24.8859 52.357 24.9031 54.9529 24.9618 57.5478C25.1519 65.957 25.7493 74.3507 26.0214 82.7566C30.0249 82.5856 34.0287 82.4133 38.0328 82.2671C41.2898 82.1488 44.5467 82.0303 47.8037 81.9118C48.4869 81.8874 48.8709 81.399 48.9547 80.7607C49.1079 79.5862 48.8199 78.372 48.1683 77.3844C48.1009 77.2822 48.0212 77.1913 47.9323 77.1137C47.9477 76.41 47.9763 75.7052 47.9364 75.0016C47.8772 73.9272 47.7883 72.8528 47.7107 71.7794C47.5534 69.6296 47.4319 67.4756 47.3839 65.3207C47.2859 61.0108 47.3573 56.6968 47.6014 52.393C48.0906 43.7946 49.2294 35.2513 51.0933 26.8409C51.2291 26.2281 51.366 25.6153 51.5079 25.0035C52.9572 25.7563 54.72 26.0268 56.304 26.0371C58.2894 26.0494 60.2309 25.5927 62.0243 24.7626C62.0121 24.8555 61.9998 24.9474 61.9886 25.0403C61.4882 29.0234 61.0664 33.0146 60.6987 37.0111C59.9654 44.9783 59.516 52.9782 59.5783 60.981C59.5957 63.1984 59.6804 65.4085 59.7856 67.6227C59.8929 69.8747 60.0573 72.2543 60.6844 74.4267C60.7538 74.6666 60.9081 74.8045 61.0858 74.8546C61.095 75.1712 61.1154 75.4888 61.1378 75.8013C61.2104 76.8175 61.4177 78.9286 61.8609 79.8497C62.2929 80.7485 63.013 81.4614 63.9311 81.8537C65.0975 82.351 66.3588 82.208 67.5905 82.1283C72.9462 81.779 78.2979 81.3113 83.6505 80.9007C84.3961 80.8435 85.1416 80.7873 85.8862 80.7291C86.549 80.6781 87.2343 80.633 87.8226 80.289C88.4915 79.8978 89.0134 77.9767 88.7826 77.1821C88.7407 77.0371 88.6774 76.8941 88.5937 76.7654" fill="black"/>
</svg>
