<svg width="486" height="842" viewBox="0 0 486 842" fill="none" xmlns="http://www.w3.org/2000/svg">
<path fill-rule="evenodd" clip-rule="evenodd" d="M359.485 334.898L362.391 334.647C363.821 313.988 359.801 293.69 355.107 273.726L352.187 273.875C351.156 285.381 344.384 296.279 347.485 308.12C350.451 317.472 356.733 325.533 359.485 334.898ZM28.037 230.85L29.738 231.165C26.5691 225.951 29.5243 224.235 33.11 219.924L33.5005 220.708L34.8801 218.089C35.154 217.424 35.4338 216.859 36.1903 216.61C36.9294 213.352 39.1293 210.368 42.0591 208.747L42.6202 209.295C43.7814 208.413 45.1811 208.078 46.5137 207.669C43.6533 203.919 41.8132 199.053 39.8843 195.032C38.3138 190.808 35.8583 186.709 35.3969 182.427C35.7682 178.311 40.2471 180.984 42.4316 183.037C49.1044 188.12 54.8513 196.169 59.1577 205.944C66.5531 204.273 70.7955 206.036 72.8499 214.812C74.741 220.773 76.674 226.888 76.9294 233.069C77.9223 232.773 79.6836 231.66 80.6352 232.533C97.0715 248.152 116.479 260.184 135.247 273.353C149.431 264.292 156.812 246.364 164.612 232.907C178.221 209.807 191.829 175.991 226.832 176.11C231.471 175.69 236.002 175.208 240.381 174.038C242.076 173.638 244.173 173.156 244.748 172.262C245.786 169.38 245.982 166.263 247.806 163.621C252.81 156.557 263.651 156.002 272.146 157.535C286.57 159.857 286.207 158.502 287.249 171.677C287.561 174.804 290.352 175.252 293.332 175.9C296.715 176.826 300.162 177.583 303.639 178.193C303.278 178.105 302.918 178.018 302.557 177.929C359.008 178.706 396.49 235.575 403.926 275.808C412.563 316.97 401.392 362.779 383.732 397.35C384.49 409.94 381.646 422.587 379.846 434.996C378.716 438.101 374.803 438.403 373.684 434.807L372.305 430.074L370.829 434.785C369.893 437.7 368.389 438.047 367.036 438.067C365.357 438.067 364.436 437.348 364.381 433.558L361.6 432.977C360.529 434.75 359.465 436.318 357.781 437.408C354.396 458.782 352.271 481.007 344.053 501.689C340.776 509.365 335.744 516.334 332.048 523.864C349.473 558.021 352.394 595.872 356.578 632.444C356.242 632.466 354.512 632.598 354.143 632.626L355.097 634.828C356.401 635.307 357.167 636.316 357.561 637.432C358.44 637.369 362.107 637.393 361.903 638.122C361.479 642.419 360.092 645.484 357.463 647.722C357.427 648.411 357.378 649.114 357.317 649.766C362.532 665.569 366.353 682.416 368.675 699.788C371.627 702.254 372.366 710.368 367.963 712.532C355.809 719.8 339.482 723.251 324.11 721.941C307.474 720.574 287.632 714.818 295.594 698.34C295.697 697.828 296.505 697.804 297.142 697.915C298.552 696.727 300.081 695.828 301.735 695.324C305.021 688.196 307.976 680.723 310.554 673.262C311.81 669.835 313.109 666.292 313.002 662.534C312.38 653.306 311.287 649.492 303.902 642.223C299.331 644.132 290.62 630.31 288.623 627.409C284.424 618.826 284.586 632.404 284.586 632.404C282.838 637.706 282.148 646.562 277.776 650.508C275.399 664.247 291.67 670.541 281.185 685.777C284.733 685.988 285.064 687.221 285.002 690.963C285.014 693.65 285.095 696.47 284.511 698.981C283.804 702.067 280.524 702.894 275.601 703.804C271.612 704.57 267.771 705.446 263.812 706.273C259.808 707.429 255.589 707.334 253.943 703.817C234.116 709.653 176.958 708.985 158.053 701.253C152.832 699.438 149.15 698.412 153.945 693.303C156.584 678.722 204.238 695.156 210.325 679.163C211.193 677.086 222.656 664.082 225.764 662.534C224.495 660.948 225.815 648.186 225.764 647.722C224.955 640.296 210.386 606.666 208.767 591.827C207.102 566.611 208.663 545.352 199.815 519.724C187.446 479.147 163.418 441.068 163.093 398.129C163.506 391.01 161.234 383.431 163.294 376.446L160.735 375.291C160.367 375.659 159.701 375.649 159.568 375.148C157.89 372.782 159.771 369.946 160.157 367.356C159.279 366.539 159.718 365.795 160.778 365.35C172.144 330.511 191.155 325.422 185.922 281.874C177.383 297.584 158.467 313.486 137.617 311.148C116.613 313.874 67.616 269.448 58.153 255.086C56.4186 255.203 56.3974 254.123 56.1335 253.106C47.4904 253.989 39.4005 248.099 39.2394 240.893C31.6551 244.975 23.5499 239.145 27.5686 232.024C27.7265 231.639 27.8867 231.247 28.037 230.85Z" fill="white"/>
<path fill-rule="evenodd" clip-rule="evenodd" d="M247.291 161.791C247.247 161.64 247.005 161.684 246.993 161.827C246.751 164.744 245.945 167.822 244.717 170.682C244.278 170.744 243.856 170.959 243.548 171.376C243.135 171.936 241.159 172.327 240.127 172.591L239.98 172.629C235.699 173.776 231.23 174.24 226.789 174.649C205.904 175.651 198.302 181.331 186.52 195.681C172.534 211.849 164.686 231.036 154.143 248.88C151.549 253.219 148.747 257.456 145.669 261.552L145.228 262.136C142.516 265.703 139.508 269.295 135.382 271.702C125.217 264.306 114.347 257.703 104.291 250.193L103.351 249.486C95.8062 243.827 88.6013 237.83 81.7449 231.546C80.9361 230.804 79.419 230.61 78.2973 231.045C77.859 225.389 76.0181 219.841 74.3212 214.376C72.539 207.337 69.4438 202.579 60.1063 204.321L59.8672 203.803C56.1346 195.772 51.1542 187.968 43.6945 182.098L43.2054 181.716C41.5829 180.437 39.4538 178.604 37.1749 178.77C35.1058 178.918 34.0429 180.543 33.9605 182.195C33.8658 184.156 34.8508 186.152 35.5564 187.989L35.6161 188.146C36.5255 190.559 37.5055 192.952 38.5415 195.326C39.5392 197.61 40.6077 199.872 41.726 202.113C42.8663 203.988 43.7051 207.092 45.7819 208.226C46.8539 208.779 47.9582 208.035 48.0724 207.084C48.2344 205.838 47.4083 204.744 46.8002 203.659C46.2394 202.661 45.6901 201.658 45.1562 200.65C43.0088 196.592 41.0823 192.449 39.427 188.223L39.3774 188.086C38.8139 186.575 36.9434 183.064 37.6206 181.824C38.3198 181.83 39.7594 183.111 40.2682 183.493C48.2728 189.246 53.4754 197.196 59.4271 204.449C55.6924 205.375 51.638 205.81 48.5358 207.985C42.1549 212.816 47.279 222.382 55.8323 220.601C53.445 225.003 51.3918 232.113 55.6227 236.09C56.8946 237.124 59.3651 236.794 59.7521 235.146C60.165 233.396 59.6694 231.896 59.2149 230.201C58.3914 226.747 57.892 223.211 58.4534 219.695L58.6299 219.604C60.0795 218.841 60.9912 217.983 60.9475 216.405C61.1361 215.264 59.7341 213.726 58.3264 214.66C57.8689 214.962 57.3108 214.985 56.83 215.29C56.0139 215.963 55 216.493 53.8431 216.484L53.7307 216.482C52.2431 216.472 51.1451 215.694 50.6905 214.486C49.4449 211.173 53.757 210.06 56.5611 209.423L57.2853 209.229C64.9394 207.199 67.7135 207.166 69.6369 214.97L69.8674 215.617C71.8582 221.235 73.6866 226.983 77.0783 232.106L76.5291 233.244C73.0056 240.508 68.5539 248.78 59.1319 251.001C58.7952 248.557 55.7476 248.468 53.5418 248.529C50.6946 248.396 47.8372 247.143 45.8259 245.342C44.0691 243.807 43.1856 241.668 41.2422 240.299C42.1219 238.564 40.1354 236.65 38.0604 237.648C36.6613 238.318 35.8168 239.275 34.1285 239.47C32.6323 239.644 31.2539 239.191 30.1175 238.359C27.1511 236.185 28.562 232.989 27.8359 230.142C28.7919 231.577 30.3799 232.677 32.0804 233.437C43.433 239.07 43.3188 228.025 37.0447 229.84C30.2293 228.494 30.3445 226.358 32.8921 221.34L32.9619 221.161C33.3864 220.098 34.2607 218.286 33.4174 217.173C33.3702 217.116 33.2846 217.098 33.2226 217.15C32.4431 217.815 32.1361 218.93 31.4782 219.713L30.8524 220.36C28.4242 222.885 25.7845 225.901 27.3665 229.3C27.2012 229.269 27.0209 229.331 26.9651 229.504C26.2328 231.815 24.7779 234.084 25.079 236.556C25.7083 241.972 32.4764 244.946 38.0811 242.688C39.1587 249.651 47.0735 254.663 55.0058 254.353C55.2567 255.307 56.0714 256.146 57.3317 256.233C69.0055 272.457 114.894 314.195 137.398 312.451C139.55 313.298 142.289 312.873 144.568 312.617C162.045 310.64 176.651 299.551 184.799 286.408C187.794 329.459 170.869 328.937 159.545 364.603C158.411 365.22 157.75 366.566 158.629 367.704C158.143 369.862 157.148 372.073 157.532 374.287C157.72 374.919 158.101 375.495 158.447 376.073C159.157 377.253 161.031 377.111 161.909 376.193C160.421 380.864 161.055 385.767 161.437 390.528C161.67 393.325 161.652 396.083 161.655 398.882C162.099 441.491 186.092 479.91 198.426 520.334C201.916 531.665 204.596 543.211 205.649 554.917C206.768 567.369 205.989 579.89 207.335 592.327C208.924 607.027 213.517 621.302 218.878 635.266C218.513 636.072 218.923 637.095 219.779 637.612C220.071 638.365 220.363 639.112 220.656 639.861C220.18 641.857 220.062 643.86 220.16 645.924C220.241 648.883 221.311 651.819 220.865 654.775C220.519 656.069 219.309 657.311 220.077 658.697L219.727 658.89C217.692 660.024 215.747 661.268 214.41 663.021C214.118 663.404 213.896 664.195 213.563 664.466C213.214 664.748 212.565 664.781 212.137 664.914C209.969 665.486 208.606 667.183 208.793 669.153C203.717 670.42 205.466 674.892 200.227 678.003C194.849 681.383 187.567 681.754 181.216 682.631L170.392 684.128L169.737 684.197C162.61 684.961 153.375 686.45 152.507 693.89C151.175 694.689 150.719 696.319 150.335 697.61C150.039 698.63 150.069 699.684 150.933 700.49C151.951 701.44 153.761 701.83 155.099 702.337C156.848 702.936 158.37 703.962 160.266 704.25C162.532 705.062 165.033 705.54 167.098 705.873C189.844 709.525 213.184 710.406 236.208 708.482C239.968 708.168 243.726 707.784 247.465 707.318L247.911 707.262C249.773 707.02 251.695 706.692 253.395 706.001C255.773 709.471 260.35 709.035 264.204 708.05C267.23 707.401 270.255 706.761 273.281 706.121C277.964 705.027 284.841 704.801 285.996 699.755C286.581 697.21 286.542 694.378 286.513 691.791L286.519 691.017C286.527 688.831 286.358 685.814 283.482 685.349C287.433 679 286.572 671.193 282.891 664.899L282.696 664.59C279.988 660.282 278.297 656.685 279.196 651.597C280.999 650.123 281.84 648.007 282.508 645.927C284.383 640.061 285.949 634.112 287.156 628.115C289.941 632.666 293.301 636.942 297.077 640.918C298.578 642.774 299.808 643.374 302.239 644.095C302.617 644.234 303.001 644.236 303.361 644.147C305.612 646.793 308.344 648.89 309.527 652.05C310.817 655.545 311.31 659.388 311.564 663.041C311.699 667.801 309.413 672.296 307.977 676.816C305.728 683.055 303.217 689.225 300.43 695.301C298.607 695.673 295.848 695.488 295.183 697.382C294.756 697.606 294.405 697.966 294.22 698.489L294.063 698.934C292.731 702.767 291.601 707.194 293.331 711.034C298.112 720.336 313.477 722.655 323.987 723.769C339.551 725.051 355.878 721.825 368.835 714.132C370.665 713.019 371.913 711.752 372.217 709.78L372.265 709.41C372.669 706.137 372.732 702.288 370.124 699.763C367.868 683.03 364.17 666.303 358.846 650.095C358.887 649.637 358.92 649.179 358.947 648.719C361.919 646.034 363.082 642.255 363.415 638.625C363.366 636.501 360.244 636.689 358.495 636.328C354.075 598.482 351.536 559.455 333.695 524.148C337.252 517.018 342.06 510.22 345.25 502.911L345.475 502.388C346.798 499.387 347.6 496.327 348.648 493.265C349.329 491.798 349.892 490.312 350.165 488.739C354.361 472.082 356.734 455.138 359.209 438.242C360.876 437.047 361.977 435.324 362.943 433.739L362.951 434.141C363.023 436.711 363.507 439.591 367.214 439.516C370.269 439.452 371.606 437.474 372.291 435.287C373.622 439.861 379.534 440.111 381.267 435.606C382.04 433.79 382.008 431.718 382.238 429.811C383.473 419.351 386.051 408.897 385.311 398.362C386.09 398.132 386.769 397.615 387.099 396.753C401.858 357.958 414.993 316.44 405.412 275.503C395.832 235.395 369.887 190.496 320.858 179.123C310.932 176.946 300.849 176.208 290.675 175.646C289.207 173.181 288.257 170.377 288.065 167.586C288.006 166.78 288.051 165.982 288.054 165.176C288.057 164.432 287.691 163.544 287.862 162.848C287.903 162.679 287.637 162.623 287.567 162.779C287.351 163.268 286.911 163.513 286.613 163.925C285.872 165.09 285.676 166.472 285.48 167.773C284.736 172.911 286.456 178.199 290.081 182.298L290.283 182.53C291.423 183.829 293.395 185.815 295.43 184.774C297.36 183.784 296.044 181.743 294.899 180.711C293.378 179.34 292.103 177.874 291.067 176.275C295.67 177.34 300.238 178.512 304.828 179.622L305.156 179.777C308.748 181.461 313.976 183.285 313.509 187.453C303.951 212.482 261.668 218.914 235.535 212.938C230.397 211.749 225.205 209.818 221.709 206.216L221.568 206.069C215.527 199.863 215.99 189.609 223.554 184.513C228.047 181.32 234.254 179.624 239.859 178.519C238.229 180.868 234.623 182.526 233.968 185.309C233.799 186.263 234.407 187.172 235.62 187.192C238.702 187.243 240.975 184.388 242.592 182.469C245.968 178.455 247.883 173.602 248.292 168.658C248.496 166.253 247.985 164.086 247.291 161.791ZM297.248 703.281C297.169 704.797 298.025 706.497 300.105 706.428C301.618 708.13 303.887 709.247 305.991 710.343C319.895 716.952 337.382 717.241 352.105 712.497C356.08 711.19 359.915 709.56 363.454 707.505L363.784 707.314C365.567 706.292 367.619 705.24 368.885 703.76L368.841 704.973C368.777 706.692 368.665 708.278 368.034 709.882C367.648 710.576 366.88 710.957 366.157 711.358C364.543 712.252 362.878 713.078 361.175 713.841C343.426 721.646 320.615 722.855 302.785 714.646C297.667 712.152 295.502 708.209 297.248 703.281ZM280.687 686.717C280.698 686.907 280.917 687.063 281.141 687.006C282.921 686.559 281.852 689.93 281.743 690.476C281.386 692.256 281.158 694.047 280.931 695.846L280.927 696.188C280.869 699.764 280.459 699.79 276.333 700.479C272.901 701.246 269.497 702.121 266.08 702.943L264.714 703.268C263.256 703.63 256.569 705.656 256.635 703.222L256.639 703.145C256.77 701.551 254.387 700.895 253.159 701.842L253.112 701.879C250.746 703.832 247.369 703.995 244.281 704.334L244.127 704.351C240.178 704.793 236.211 705.151 232.241 705.428C211.355 706.874 190.257 706.038 169.622 702.886L168.28 702.679C166.479 702.396 163.893 701.943 161.816 701.078C161.022 701.02 156.992 699.323 157.14 698.591C157.069 698.482 157.007 698.372 156.953 698.261C156.165 697.518 156.19 695.953 157.225 695.364C158.948 695.755 160.67 696.138 162.4 696.508L162.402 696.513C164.149 697.681 166.536 697.679 168.645 698.085C170.923 698.438 173.205 698.77 175.489 699.085C188.577 700.87 201.777 702.133 215.015 702.67C238.433 704.44 261.348 697.966 280.687 686.717ZM356.869 370.452C355.464 373.448 356.47 377.322 357.503 380.415C355.912 381.184 354.819 382.5 353.46 383.519C348.742 386.824 343.94 390.047 339.215 393.348L339.013 393.487C337.622 394.433 336.083 395.37 335.528 396.902C334.229 401.939 341.89 403.312 346.204 402.953C347.004 402.924 349.295 402.469 349.844 402.948C350.16 403.224 350.03 404.462 350.056 404.831C350.357 408.83 350.6 412.834 350.925 416.833L351.051 418.332C351.314 421.364 351.32 424.787 352.701 427.665C352.999 429.4 353.832 431.152 354.035 432.869C354.221 434.401 354.637 436.085 355.818 437.229L354.727 444.685C352.673 458.668 350.502 472.648 347.119 486.441C346.361 489.537 345.316 492.528 344.348 495.575C341.558 504.365 336.319 512.322 331.694 520.449L331.516 520.766C329.959 523.568 328.928 526.254 329.229 529.442C329.415 531.399 332.957 531.412 332.771 529.442C332.645 528.117 332.801 526.899 333.131 525.735C340.479 551.299 345.82 577.26 348.578 603.508C349.689 614.319 350.504 625.106 351.984 635.896C348.185 635.865 344.363 636.187 340.7 636.745C334.406 635.165 326.893 635.673 321.207 638.503C317.697 638.823 314.202 639.235 310.726 639.77L309.982 639.887C308.361 640.148 306.003 640.168 304.734 641.189C304.237 639.169 302.539 637.734 301.044 636.221C299.68 634.793 298.397 633.317 297.18 631.797C293.831 627.652 291.055 623.185 288.706 618.557C288.739 617.83 288.387 617.252 287.836 616.845C278.308 597.839 272.395 577.659 267.148 557.496C255.101 512.202 244.752 466.537 238.54 420.343C238.513 420.13 238.156 420.12 238.153 420.343C236.888 454.559 243.73 488.45 251.985 521.782C260.423 554.719 266.967 588.396 282.44 619.56C281.299 625.919 279.942 632.246 278.166 638.498C260.839 634.456 242.802 632.9 224.891 633.511C217.186 614.406 212.249 594.458 212.65 574.147C213.531 538.816 200.578 505.089 186.676 472.334C177.078 447.085 165.396 421.75 164.117 394.906C163.523 388.688 161.334 382.415 162.795 376.173C165.422 378.928 169.182 380.937 172.863 382.416C179.041 384.897 185.658 386.422 192.285 387.693C226.077 395.197 261.571 395.188 295.451 388.068L297.969 387.565C318.131 383.522 338.583 379.009 356.869 370.452ZM359.109 384.086C363.501 391.023 372.674 395.293 381.415 396.843C381.734 397.749 382.731 398.337 383.821 398.473C382.14 410.016 379.415 421.437 377.964 433.007L377.881 433.438C377.735 434.172 377.526 434.958 376.884 435.458C376.012 435.156 375.997 433.901 375.889 433.207C375.548 429.197 375.145 425.189 374.747 421.182C374.588 419.429 371.27 418.754 370.948 420.737L369.532 429.505L369.508 429.596C369.164 431.022 369.052 435.945 367.443 436.159L367.389 436.164C366.394 436.295 366.773 434.557 366.775 433.928L366.683 429.374L366.569 423.513C366.549 422.536 366.529 421.56 366.506 420.583C366.453 418.429 362.964 418.524 362.722 420.583L362.618 421.454C362.138 425.394 361.485 429.569 359.245 433.033C358.826 432.785 358.241 432.723 357.695 432.851C357.507 430.268 356.864 427.805 355.676 425.442C356.024 422.929 355.7 420.248 355.556 417.825L355.541 417.567C355.369 414.452 355.153 411.339 354.948 408.226L354.826 406.358C354.652 403.644 354.921 400.202 351.373 399.059C347.91 398.119 343.982 399.672 340.67 398.063C344.544 395.069 348.513 392.326 352.468 389.421C353.879 388.4 355.355 387.415 356.698 386.322C357.548 385.634 358.233 384.757 359.109 384.086ZM353.695 273.917L354.876 279.202C356.84 288.01 358.729 296.829 359.914 305.75C361.155 315.339 361.479 324.981 360.953 334.618C358.247 325.286 351.915 317.08 348.96 307.83C345.937 296.339 352.735 285.277 353.695 273.917ZM43.3962 206.946C43.5594 206.849 43.4694 206.561 43.2486 206.639C34.8719 209.652 31.4524 220.441 37.7583 226.383C39.8513 228.299 42.9889 229.407 45.8461 228.402C49.3174 227.892 51.3619 224.879 51.8426 222.071L51.8586 221.975C51.8891 221.843 51.7184 221.782 51.6216 221.866L51.6044 221.883C50.2777 223.302 48.1861 224.252 46.2797 224.979C45.7457 224.728 45.161 224.528 44.5739 224.41C43.7386 224.247 42.8826 224.815 42.9623 225.554C39.0192 224.928 37.4387 220.856 37.3187 217.767L37.3155 217.674C37.1564 213.399 39.3849 209.446 43.3962 206.946Z" fill="black"/>
<path fill-rule="evenodd" clip-rule="evenodd" d="M295.206 52.838C276.606 51.9578 260.127 47.428 247.035 57.566C247.035 57.566 225.854 43.8558 222.32 49.0775C219.952 52.5764 223.236 57.2735 222.356 61.5911C216.614 70.0752 216.939 84.4355 216.614 87.8008C215.796 96.2831 210.642 128.202 210.642 135.782C210.642 139.651 214.322 149.783 216.614 155.422C221.715 167.973 231.453 174.37 247.421 174.37C263.39 174.37 289.454 162.801 297.813 152.529C298.546 151.629 303.283 154.255 308.239 149.7C313.607 144.765 316.585 135.351 316.585 129.74C316.585 122.62 321.894 117.682 321.276 108.567C319.897 88.2124 315.108 53.7797 295.206 52.838Z" fill="white"/>
<path fill-rule="evenodd" clip-rule="evenodd" d="M297.284 29.1724C297.042 29.1596 296.797 29.1699 296.552 29.1906C296.283 29.2008 296.015 29.2236 295.746 29.2699C294.38 29.4973 293.161 30.1242 292.216 31.0069C292.189 31.0299 292.169 31.0557 292.145 31.0785C291.702 31.3676 291.292 31.6953 290.923 32.043C290.858 31.9893 290.796 31.9358 290.728 31.8821C290.534 31.7335 290.33 31.5927 290.117 31.46C289.228 30.799 288.185 30.3184 287.062 30.045L286.909 30.009C286.879 30.0014 286.85 29.9962 286.82 29.9911C286.023 29.7611 285.185 29.6434 284.341 29.6457C283.332 29.6176 282.319 29.7611 281.375 30.0986C280.256 30.5005 279.282 31.1348 278.464 31.8975C277.927 32.2761 277.458 32.6929 276.962 33.1511C275.938 34.1001 275.129 35.2105 274.618 36.4337C274.547 36.6051 274.485 36.7814 274.429 36.9579C273.181 36.8328 271.926 36.7432 270.672 36.6995C269.264 36.6256 267.856 36.5997 266.445 36.6409C262.558 36.7507 258.756 37.3445 255.075 38.4319C254.337 38.6209 253.62 38.8614 252.929 39.1582C251.846 39.5318 250.822 40.0076 249.857 40.5833L249.035 41.006C248.622 41.2187 248.209 41.4342 247.808 41.6553C246.855 42.1852 245.952 42.7785 245.096 43.4181C244.193 44.0503 243.34 44.7385 242.528 45.4598C242.307 45.655 242.095 45.8528 241.885 46.0518C240.014 46.9271 238.352 48.0477 236.801 49.3843C235.572 48.7712 234.299 48.2155 232.985 47.7215C231.63 47.2123 229.91 46.6879 228.49 46.3427C227.215 46.0331 225.954 45.8208 224.676 45.6645C224.095 45.5775 223.51 45.5084 222.923 45.4495L222.947 45.4575C222.533 45.4188 222.123 45.3856 221.707 45.3549L221.719 45.3523C221.542 45.3398 221.362 45.3267 221.184 45.3165L220.754 45.2861C220.624 45.2758 220.435 45.5391 220.423 45.6312L220.408 45.7259C220.311 45.8208 220.222 45.9257 220.16 45.9896C220.083 45.9843 220.007 45.9794 219.93 45.9766C219.7 45.9589 219.434 46.3143 219.298 46.4499L219.176 46.5749C219.036 46.7207 218.896 46.8886 218.873 47.0716C218.723 48.1337 218.581 49.1977 218.451 50.2621C218.401 51.068 218.451 51.8662 218.605 52.6568C218.72 53.4244 218.838 54.1919 218.956 54.9569C219.145 55.4944 219.331 56.0317 219.517 56.5688C219.591 56.7737 219.673 56.9756 219.753 57.1777C220.225 58.5275 220.778 59.8416 221.437 61.1149C220.957 61.576 220.508 62.0539 220.091 62.5474C219.991 62.6362 219.891 62.7245 219.797 62.8166C219.771 62.781 219.732 62.7478 219.691 62.7296C219.549 62.6759 219.446 62.7398 219.357 62.845C218.428 63.6148 217.752 64.5131 217.333 65.5388L217.071 66.0738C217.028 66.1632 216.985 66.2527 216.943 66.3422C216.609 67.1202 216.353 67.9185 216.14 68.7267C215.95 69.3628 215.814 70.0075 215.726 70.6591C215.088 72.5148 214.584 74.4132 214.108 76.286C214.033 76.5808 214.069 76.8438 214.178 77.0679L213.9 77.3028L213.425 77.7129C212.627 78.4026 211.812 79.1276 211.22 79.9483C210.606 80.8002 210.154 81.7111 209.652 82.6145L209.544 82.8064L209.323 83.1912C209.084 83.6113 208.97 83.8435 208.758 84.3514C208.407 85.1985 208.218 86.0503 208.129 86.9486C207.999 88.2557 208.017 89.6808 208.678 90.896C208.681 90.9063 208.687 90.9142 208.693 90.9216C208.994 92.0962 209.738 93.1859 210.868 93.8818C211.11 94.0791 211.37 94.2556 211.648 94.3961C212.314 94.735 212.925 94.7653 213.652 94.6085L213.743 94.588C213.835 94.5675 213.917 94.5496 213.997 94.5342C213.879 94.6187 213.82 94.7187 213.997 94.7901C214.168 94.8617 214.322 94.9026 214.466 94.918C214.405 94.9871 214.399 95.0613 214.528 95.1227C214.812 95.2532 215.042 95.2944 215.278 95.2583L215.229 95.614C214.841 98.3055 214.495 98.8378 214.192 101.729C213.991 104.689 213.672 107.641 213.233 110.581L213.081 111.65C212.596 115.035 212.05 118.446 211.214 121.777C210.792 123.233 210.429 124.699 210.122 126.175C209.688 127.298 209.384 128.447 209.215 129.619C208.971 130.811 208.802 132.014 208.705 133.226C208.365 134.002 208.2 134.79 208.209 135.593C208.165 136.673 208.206 137.75 208.339 138.822C208.413 139.937 208.59 141.043 208.87 142.138C209.121 143.64 209.579 145.09 210.234 146.497C210.759 148.068 211.403 149.609 212.135 151.115C213.271 153.449 214.644 155.616 216.205 157.752C217.669 159.755 219.239 161.684 221.034 163.478C223.354 165.796 225.999 167.919 228.897 169.71C230.55 170.77 232.294 171.721 234.119 172.535C236.35 173.533 238.617 174.431 241.034 175.037C242.543 175.416 244.077 175.677 245.63 175.877C248.679 176.268 251.837 176.209 254.904 175.751C256.882 175.521 258.827 175.122 260.666 174.551C262.177 174.081 263.617 173.54 265.058 172.932C265.799 172.622 266.513 172.264 267.198 171.862C268.349 171.215 269.426 170.483 270.43 169.675C270.757 169.432 271.076 169.183 271.389 168.922C271.54 168.807 271.457 168.636 271.283 168.595L271.23 168.59C271.298 168.536 271.368 168.482 271.436 168.426C271.451 168.416 271.463 168.403 271.475 168.39C271.507 168.365 271.543 168.339 271.572 168.314C271.687 168.227 271.572 168.032 271.472 167.986C271.433 167.968 271.383 167.966 271.327 167.971C271.339 167.96 271.348 167.953 271.36 167.945C271.371 167.937 271.374 167.917 271.371 167.896L271.416 167.866C271.566 167.751 271.489 167.582 271.312 167.538C271.226 167.516 271.083 167.527 270.934 167.555L270.878 167.566L270.979 167.485C271.156 167.351 271.1 167.203 270.881 167.157C270.719 167.165 270.557 167.185 270.398 167.219L270.279 167.247C270.22 167.259 270.164 167.275 270.105 167.29C270.206 167.211 270.306 167.134 270.403 167.055C270.501 166.981 270.397 166.768 270.309 166.725C270.188 166.666 269.952 166.748 269.842 166.817C269.574 166.843 269.22 166.945 269.09 167.042C268.733 167.339 268.364 167.623 267.989 167.899C267.762 167.96 267.546 168.042 267.381 168.165C266.956 168.518 266.513 168.851 266.061 169.173L265.718 169.378C265.661 169.412 265.603 169.445 265.545 169.478C264.895 169.808 264.246 170.135 263.6 170.465C261.23 171.161 258.859 171.857 256.492 172.551L256.179 172.632L253.88 172.878C252.369 173.016 250.854 173.009 249.343 172.857C248.21 172.87 247.085 172.773 245.978 172.573C244.098 172.297 242.253 171.891 240.459 171.322C238.393 170.67 236.424 169.81 234.502 168.884C233.812 168.549 233.133 168.193 232.466 167.817C232.25 167.684 232.035 167.548 231.819 167.41C230.4 166.487 229.042 165.502 227.734 164.46C227.12 163.972 226.53 163.463 225.96 162.936C225.878 162.859 225.798 162.785 225.718 162.708C225.172 162.191 224.644 161.657 224.139 161.104L223.658 160.633C221.716 158.538 219.989 156.284 218.436 153.963C216.896 151.663 215.626 149.242 214.617 146.738C214.292 145.845 214.009 144.939 213.773 144.023C213.336 142.923 213.05 141.795 212.917 140.644C212.873 140.418 212.837 140.193 212.802 139.968L212.781 139.613C212.778 139.554 212.776 139.495 212.775 139.436C212.716 139.078 212.666 138.719 212.628 138.361C212.604 138.001 212.589 137.64 212.586 137.279L212.619 135.066C212.628 134.997 212.636 134.925 212.642 134.854L212.707 134.365C212.849 133.357 212.958 132.346 213.1 131.338C213.1 131.333 213.1 131.325 213.103 131.318C213.156 130.942 213.212 130.563 213.277 130.184C213.309 129.959 213.351 129.734 213.389 129.509L213.463 129.115C213.6 128.43 213.766 127.751 213.968 127.077L214.056 126.789L214.57 124.55L215.148 122.348C215.523 120.871 215.836 119.385 216.084 117.886C216.533 115.496 216.916 113.104 217.25 110.701C217.268 110.586 217.285 110.469 217.3 110.353C217.64 108.125 217.884 105.889 218.044 103.645C218.259 101.435 218.383 99.2188 218.416 97.0009C218.419 96.9008 218.342 96.8192 218.25 96.7729L218.259 96.3465C218.27 95.9692 218.277 96.4218 218.281 95.9917L218.287 94.8087C218.286 94.7101 218.285 94.6414 218.283 94.6366C219.86 94.7311 220.921 94.6536 222.443 94.5841L222.702 94.5726C224.098 94.5166 225.485 94.3835 226.863 94.1837C226.869 94.2454 226.917 94.2886 226.996 94.3014C227.138 94.3065 227.271 94.3065 227.407 94.3093L227.356 94.4754C227.353 94.5601 227.398 94.6135 227.492 94.6366L227.886 94.6519C228.412 94.6711 228.939 94.6801 229.461 94.6187C229.93 94.5652 230.388 94.4703 230.842 94.3577C231.123 94.3167 231.409 94.2607 231.701 94.1888C232.451 94.0021 233.195 93.7513 233.947 93.552C234.715 93.411 235.494 93.3652 236.309 93.5339C237.171 93.7104 237.9 94.0302 238.803 93.8358C238.983 93.7976 239.157 93.7388 239.331 93.6771L239.492 93.6674C239.52 93.6653 239.548 93.6627 239.576 93.6592C240.518 93.5418 241.356 93.025 242.253 92.7484C242.567 92.6823 242.877 92.699 243.181 92.8088L243.257 92.8382L243.555 93.0301C243.675 93.1527 243.794 93.2766 243.911 93.4009L244.086 93.5876C244.408 93.933 244.75 94.2426 245.167 94.4677C245.668 94.8694 246.265 95.1048 246.976 95.1201C247.38 95.1304 247.782 95.0562 248.171 94.949C249.641 95.343 251.215 95.4223 252.682 95.0385C253.263 94.9615 253.833 94.8261 254.379 94.6135C254.636 94.5138 254.892 94.3961 255.14 94.2656C256.176 94.6445 257.156 95.1483 258.157 95.5835L258.382 95.6816C259.405 96.123 260.536 96.5535 261.693 96.4892C263.151 96.407 264.583 96.2384 266.011 96.0258C266.023 96.0258 266.038 96.0233 266.05 96.0207L266.246 95.9923L266.961 95.8837L267.537 95.7907L267.832 95.8885C270.198 96.6644 272.79 97.2697 275.167 96.7269C276.203 96.6171 277.174 96.3149 278.051 95.8007C278.081 95.7828 278.11 95.7649 278.14 95.7444C278.278 95.683 278.408 95.6142 278.523 95.54L278.548 95.5232L278.571 95.5065L278.582 95.5013C279.878 94.9848 280.622 93.8844 280.492 92.6514C280.572 92.2597 280.569 91.876 280.48 91.4669C280.902 91.899 281.333 92.3265 281.77 92.751C283.368 94.4187 284.933 96.1198 286.382 97.8907L286.714 98.3006C287.511 99.2751 288.252 100.283 288.937 101.322C289.63 102.348 290.342 103.364 291.077 104.367C292.032 105.282 292.956 106.219 293.847 107.18L294.226 107.593L295.507 109.054C296.413 109.985 297.166 111.004 297.759 112.109C298.246 112.894 298.695 113.695 299.099 114.516C299.229 114.764 299.353 115.015 299.474 115.266C299.89 116.246 300.242 117.244 300.516 118.274C300.737 119.021 300.895 119.777 300.989 120.544L301.018 120.8C301.053 121.102 301.08 121.404 301.095 121.705C301.009 121.749 300.938 121.792 300.885 121.836L300.67 121.903L300.495 121.947C300.224 122.021 299.755 122.172 299.867 122.358L300.436 123.3C300.377 123.353 300.351 123.409 300.389 123.471C300.77 124.103 301.154 124.735 301.537 125.367C301.549 125.39 301.57 125.408 301.59 125.421C301.263 125.551 300.944 125.694 300.64 125.85C300.047 126.157 299.61 126.513 299.206 126.927C298.78 127.148 298.379 127.388 298.001 127.664C297.535 128.089 297.128 128.555 296.782 129.059C296.463 129.534 296.204 130.031 296.003 130.55C295.914 130.824 295.873 131.108 295.876 131.397C296.233 133.582 299.117 132.085 299.173 131.893C299.569 130.573 300.023 129.739 301.044 128.757L301.071 128.741C301.661 128.516 302.246 128.294 302.857 128.12C302.948 128.135 303.043 128.145 303.137 128.158C303.031 128.289 303.084 128.417 303.299 128.439C304.229 128.598 305.168 128.641 306.112 128.572L307.547 128.396C308.142 128.594 308.711 128.848 309.247 129.15L309.424 129.253L309.457 129.273C310.841 130.238 311.909 131.52 312.641 132.917C312.706 133.041 312.769 133.167 312.828 133.294L312.916 133.485L312.922 133.495C313.878 136.752 313.025 140.329 311.278 143.284C310.324 144.606 309.33 145.904 308.291 147.175L307.281 148.319C306.685 148.805 306.101 149.304 305.531 149.816C305.442 149.893 305.348 149.969 305.253 150.043C304.952 150.215 304.645 150.366 304.333 150.494C304.212 150.529 304.088 150.563 303.964 150.591C303.361 150.842 302.73 150.975 302.066 150.99C301.188 151.041 300.337 150.951 299.514 150.725L299.35 150.678L299.229 150.639C298.78 150.391 298.364 150.082 297.969 149.718C297.88 149.639 297.715 149.639 297.526 149.683C297.423 149.59 297.319 149.493 297.222 149.388C297.154 149.324 297.048 149.322 296.965 149.37C296.685 149.343 295.926 149.716 296.124 149.913C296.156 149.959 296.198 150 296.233 150.043C296.1 150.102 295.968 150.169 295.849 150.238C295.23 150.387 294.314 150.923 294.388 151.084L294.397 151.097C294.541 151.332 294.727 151.53 294.957 151.686L295.035 151.737L295.209 151.842C294.964 151.975 294.757 152.128 294.861 152.236C294.908 152.315 294.958 152.392 295.017 152.461C294.515 152.999 294.017 153.541 293.521 154.083C293.025 155.015 292.411 155.884 291.679 156.69C291.068 157.565 290.333 158.351 289.474 159.052C289.403 159.113 289.329 159.172 289.258 159.231C288.626 159.636 287.964 160.016 287.274 160.381L286.977 160.536C286.82 160.618 286.558 160.72 286.682 160.917C286.696 160.942 286.714 160.963 286.735 160.978C286.301 161.224 285.852 161.457 285.389 161.672L285.345 161.695C285.17 161.792 284.932 161.968 285.182 162.112C285.395 162.234 285.958 161.902 286.224 161.748C286.274 161.748 286.333 161.736 286.392 161.721C286.304 161.761 286.217 161.806 286.128 161.849L285.994 161.912C285.891 161.966 285.383 162.258 285.737 162.381C285.911 162.393 286.071 162.355 286.218 162.268C286.392 162.194 286.564 162.115 286.732 162.032C286.673 162.112 286.673 162.191 286.82 162.242C286.871 162.245 286.921 162.242 286.971 162.237C286.623 162.429 286.265 162.608 285.897 162.777L285.837 162.809C285.681 162.897 285.432 163.063 285.613 163.207C285.817 163.365 286.378 163.028 286.522 162.951L286.953 162.728C286.986 162.741 287.021 162.746 287.059 162.749C286.93 162.818 286.809 162.892 286.676 162.959L286.495 163.044C286.269 163.152 285.949 163.33 286.065 163.509C286.181 163.685 286.525 163.54 286.747 163.426L286.986 163.297C286.997 163.292 287.007 163.286 287.018 163.281L287.027 163.312C287.029 163.317 287.032 163.322 287.036 163.327C287.147 163.494 287.425 163.385 287.617 163.288L287.771 163.207C288.033 163.07 288.292 162.935 288.549 162.799L288.934 162.593H288.94C290.271 161.899 291.502 161.209 292.662 160.318C293.355 159.786 294.002 159.223 294.616 158.622C295.849 157.417 296.767 156.038 297.653 154.631C297.668 154.608 297.647 154.549 297.612 154.485C297.709 154.311 297.803 154.134 297.898 153.953C298.807 154.173 299.822 154.237 300.758 154.183C301.26 154.155 301.756 154.078 302.249 153.963C303.822 153.774 305.339 153.152 306.65 152.407C306.732 152.361 306.806 152.31 306.883 152.264C307.423 152.001 307.937 151.694 308.424 151.343C309.374 150.662 310.28 149.905 311.104 149.115C311.7 148.501 312.264 147.863 312.792 147.203C313.329 146.551 313.872 145.899 314.415 145.246C315.924 143.199 316.889 140.843 317.264 138.435C317.447 137.548 317.541 136.65 317.521 135.754C317.506 135.107 317.423 134.452 317.278 133.8C317.364 133.728 317.45 133.656 317.535 133.582C317.583 133.654 317.63 133.705 317.659 133.679L318.336 133.092C318.816 132.673 319.138 132.364 319.69 131.686C320.57 130.604 321.225 129.414 321.712 128.161C322.063 127.265 322.296 126.247 322.388 125.262C322.417 125.098 322.447 124.932 322.47 124.763C322.659 123.43 322.485 122.153 322.252 120.838C322.237 120.751 322.187 120.698 322.119 120.669C322.102 120.565 322.082 120.458 322.062 120.351C324.017 118.557 325.424 116.395 325.309 113.784C325.273 112.961 325.078 112.15 324.706 111.393L324.661 111.307C326.293 111.09 327.588 110.096 328.56 108.865C328.647 108.805 328.73 108.746 328.81 108.687C330.549 107.399 331.755 105.576 332.581 103.651C333.172 102.533 333.564 101.338 333.73 100.098C333.742 100.01 333.749 99.9222 333.758 99.8341C334.162 97.8746 334.264 95.8953 334.078 93.9455C334.483 92.7387 334.813 91.5106 335.039 90.2539C335.145 89.6554 335.219 89.0565 335.275 88.4578L335.281 88.4248L335.289 88.3171L335.314 88.0485C335.318 88.0041 335.322 87.9598 335.325 87.9154C335.824 82.4351 334.41 77.0418 332.072 71.9658C331.869 71.5093 331.658 71.0539 331.441 70.6022L331.211 70.1303C328.865 66.8503 325.341 64.1974 322.357 61.3956C321.327 60.429 322.992 58.9778 324.026 59.9483C326.009 61.8098 328.136 63.5928 330.057 65.5063C330.396 65.5278 330.736 65.5358 331.075 65.5212C331.665 65.4953 332.237 65.4137 332.792 65.283C334.177 65.1064 335.437 64.6229 336.582 63.9116C338.114 63.2927 339.422 62.1258 339.552 60.6035C339.566 60.45 339.563 60.299 339.552 60.1483C339.693 59.4036 339.566 58.6235 339.206 57.9043C339.144 57.7073 339.065 57.5128 338.964 57.3209C338.672 56.7504 338.191 56.2031 337.604 55.8319C337.589 55.8242 337.577 55.8194 337.565 55.8114C337.503 55.7554 337.444 55.6989 337.376 55.648C337.276 55.5684 337.17 55.4944 337.058 55.4254C337.456 54.8571 337.816 54.274 338.123 53.6521C338.457 52.9766 338.628 52.2912 338.722 51.5669C338.761 51.2803 338.775 50.9964 338.781 50.7126C338.799 50.5819 338.811 50.4488 338.823 50.3158C338.896 49.3026 338.761 48.2513 338.324 47.3045C338.291 47.2331 338.25 47.1612 338.212 47.087C338.129 46.8721 338.037 46.6574 337.925 46.4474C337.488 45.6414 336.869 44.9583 336.104 44.398C335.691 44.0373 335.228 43.7174 334.723 43.4462C334.425 43.2851 334.085 43.1418 333.728 43.0241C333.091 42.7324 332.273 42.4663 331.609 42.4461C331.529 42.4433 331.458 42.4512 331.382 42.4512C331.32 40.9824 331.101 39.3834 330.431 38.0529C330.041 37.0886 329.457 36.2316 328.577 35.6147C328.067 35.1532 327.439 34.7784 326.654 34.5334L326.514 34.4915L326.461 34.4787C325.756 34.1819 324.994 34.0643 324.212 34.0671C323.3 34.0259 322.37 34.1745 321.576 34.5376C321.411 34.6143 321.234 34.709 321.065 34.8113C320.939 34.5913 320.797 34.3687 320.635 34.1464C320.065 33.3555 319.377 32.6673 318.58 32.0405C318.486 31.9663 318.382 31.8998 318.282 31.8284C317.895 31.5239 317.485 31.2425 317.06 30.9866C316.142 30.4338 315.136 30.0221 314.079 29.7557C312.859 29.365 311.572 29.1836 310.284 29.2218L310.017 29.2315C309.958 29.2364 309.899 29.2389 309.843 29.2415C308.565 29.3134 307.305 29.5846 306.101 29.9937C304.852 30.4212 303.795 31.0683 302.812 31.8102C302.582 31.5342 302.32 31.2729 301.998 31.0273C301.906 30.9585 301.809 30.8968 301.717 30.8329C301.647 30.7715 301.573 30.7126 301.496 30.6538C301.145 30.3851 300.773 30.1523 300.366 29.9451C299.908 29.7125 299.415 29.5513 298.904 29.4515C298.385 29.2978 297.839 29.2031 297.284 29.1724ZM303.349 134.646C303.297 134.644 300.563 135.532 299.201 136.107L299.134 136.135C297.564 136.811 296.808 137.297 295.397 138.164C295.303 138.223 295.206 138.313 295.206 138.4C295.206 139.663 295.56 141.207 296.785 140.523C296.962 140.424 297.14 140.328 297.32 140.232L297.591 140.091L297.599 140.093C297.596 140.093 297.594 140.091 297.591 140.088C300.259 138.678 303.078 137.573 306.053 136.783C306.257 136.719 304.748 134.743 304.332 134.854C304.571 134.772 303.389 134.648 303.349 134.646ZM275.314 78.8494C277.089 79.0139 278.863 79.1759 280.637 79.3342C281.767 79.4468 282.901 79.5466 284.034 79.631C285.737 79.7413 287.441 79.7589 289.138 79.5568C289.74 79.4854 290.33 79.3829 290.915 79.2575C291.313 79.5108 291.726 79.7487 292.148 79.9767L296.836 83.085C299.979 85.2267 303.055 87.4958 305.823 90.0006C310.659 94.3766 314.597 99.4962 317.073 105.167C317.298 105.282 317.472 105.482 317.529 105.79C317.967 108.114 319.246 110.234 319.708 112.549C320.163 114.829 319.558 116.767 317.906 118.575C317.553 118.961 316.83 118.94 316.387 118.68C316.284 118.855 315.838 118.848 315.681 118.072C314.946 117.383 314.318 116.66 313.892 115.765C313.579 115.106 314.106 114.649 314.745 114.559C314.479 113.73 314.18 112.909 313.843 112.096C312.845 109.681 311.576 107.373 309.979 105.209C308.574 103.305 306.948 101.647 305.201 99.9838C305.18 99.9608 305.145 99.9534 305.106 99.9483L304.743 99.6001C304.693 99.5515 304.59 99.5566 304.475 99.5822C304.365 99.4824 304.259 99.38 304.147 99.2803C304.038 99.1779 303.917 99.2086 303.849 99.2905C303.663 99.2547 303.323 99.4286 303.22 99.4852C303.043 99.5873 302.987 99.7024 303.137 99.8482C303.164 99.8741 303.191 99.8997 303.217 99.9224C303.013 99.9969 302.813 100.096 302.656 100.194C302.11 100.299 301.343 100.739 301.476 100.869C301.756 101.122 302.028 101.381 302.296 101.644C302.06 101.788 301.907 101.928 301.969 101.99C303.12 103.041 304.182 104.154 305.156 105.334C305.897 106.214 306.567 107.13 307.166 108.084C308.058 109.435 308.813 110.824 309.484 112.252C309.578 112.47 309.669 112.687 309.758 112.904C310.738 115.281 311.47 117.747 311.78 120.26L311.793 120.429C311.851 121.334 311.873 123.758 311.981 124.336C311.328 124.614 310.649 124.852 309.944 125.047C309.811 125.08 309.675 125.111 309.54 125.139C309.463 125.111 309.383 125.088 309.303 125.067C308.654 124.84 307.975 124.676 307.282 124.597C306.814 124.543 306.349 124.524 305.884 124.536L305.685 124.543C305.478 124.548 305.274 124.561 305.068 124.579C305.08 124.476 305.086 124.377 305.094 124.274C305.153 124.241 305.198 124.195 305.201 124.133C305.339 122.982 305.342 121.831 305.21 120.679C305.121 120.078 305.018 119.48 304.906 118.881C304.79 118.39 304.658 117.906 304.513 117.423C304.129 116.067 303.619 114.744 302.999 113.449C301.234 109.757 298.704 106.429 296.16 103.118C294.303 100.7 292.547 98.2287 290.625 95.8519C288.99 93.8281 287.272 91.835 285.439 89.9417C283.609 88.0513 281.676 86.2319 279.589 84.5487C279.253 84.2798 278.913 84.0188 278.568 83.7607C276.59 82.2256 274.441 80.964 272.204 79.7259C272.119 79.6773 271.965 79.7311 271.838 79.8229L271.477 79.6306C271.417 79.5986 271.356 79.5671 271.295 79.5364C271.239 79.5059 271.177 79.5568 271.144 79.6003C270.991 79.5312 270.838 79.465 270.684 79.3982C270.572 79.3199 270.457 79.2457 270.344 79.1684C272.003 79.096 273.66 78.9886 275.314 78.8494ZM254.506 61.7932C255.846 61.5606 257.192 61.5271 258.544 61.7011C259.11 61.773 259.674 61.8595 260.233 61.9641C258.964 62.9235 257.943 64.1514 257.28 65.5644C256.564 67.0918 259.42 67.7501 260.126 66.2447C260.807 64.7925 262.096 63.6786 263.653 63.0108C263.99 63.1738 264.316 63.3503 264.627 63.5458C265.035 63.8323 265.418 64.1419 265.778 64.4822C266.563 65.2218 267.284 66.2092 267.756 67.1865C267.939 67.7187 268.075 68.2662 268.16 68.8291C268.178 68.957 268.196 69.0875 268.211 69.2179C268.502 71.8657 267.628 74.4419 266.125 76.7215L266.066 76.7223C264.725 76.0919 263.321 75.5607 261.876 75.1281C260.719 74.4529 259.518 73.8284 258.281 73.2629C255.652 72.0606 252.875 71.1338 250.014 70.5L249.683 70.4281C249.009 70.2789 248.329 70.1474 247.646 70.0323L247.236 69.9653H247.23L247.274 69.5838C247.505 68.0871 248.181 66.6978 249.054 65.4137C249.71 64.4441 250.698 63.4514 251.796 62.6582L251.802 62.6554C252.301 62.4098 252.825 62.2066 253.364 62.0387L253.567 61.9774L254.506 61.7932ZM290.486 59.519C293.273 59.291 296.059 59.314 298.845 59.511C300.666 59.6674 302.476 59.8846 304.276 60.1609C305.495 60.3425 306.691 60.5984 307.866 60.9159L307.194 62.0937C306.071 64.0553 304.92 66.0041 303.565 67.8568C302.865 68.8111 302.107 69.7197 301.28 70.5919C300.723 71.2161 300.109 71.7946 299.436 72.3265C299.259 72.5135 299.07 72.6901 298.878 72.8612C298.264 73.3167 297.603 73.7158 296.879 74.0458C296.3 74.412 295.694 74.7318 295.063 75.0122L294.825 75.1155L292.611 75.8521C292.493 75.8811 292.374 75.9101 292.254 75.9377L292.074 75.9777L291.738 76.0389L291.485 75.9201C291.443 75.9004 291.4 75.8811 291.357 75.8624C291.286 75.8293 291.236 75.8933 291.221 75.9391C291.215 75.9573 291.224 75.9826 291.239 76.0082L290.916 75.857C290.362 76.0522 289.773 76.2083 289.142 76.3111C288.856 76.3574 288.57 76.393 288.283 76.4234L288.245 76.4457C288.238 76.4496 288.232 76.4538 288.225 76.4587H287.912C285.705 76.6432 283.467 76.3994 281.264 76.0563C278.147 75.7846 275.03 75.485 271.914 75.2048C271.855 75.2 271.832 75.2227 271.832 75.2588L271.64 75.2435C271.362 75.2176 271.038 75.6193 271.247 75.7654C271.079 75.8521 270.917 75.9777 270.796 76.075L270.725 76.0696C271.153 75.343 271.483 74.5831 271.72 73.7928L272.021 72.4672C272.103 71.9734 272.151 71.4467 272.159 70.927C272.18 70.6891 272.195 70.4668 272.195 70.272C272.195 70.0878 272.192 69.9036 272.183 69.7197C272.77 69.5096 273.367 69.3257 273.975 69.1693C275.701 68.9854 277.425 68.8009 279.152 68.6193C280.188 68.6525 281.224 68.7165 282.257 68.8163C283.429 68.9058 284.598 69.0209 285.764 69.1591C285.873 69.1693 286.068 69.0414 286.186 68.893L286.684 68.9521C286.944 68.9803 287.216 68.5297 286.873 68.4376C286.749 68.395 286.625 68.3546 286.501 68.3158L286.316 68.2585L286.422 68.2687C286.457 68.2716 286.501 68.2636 286.552 68.2485C286.826 68.279 287.101 68.3097 287.372 68.3378C287.717 68.3751 287.638 67.9815 287.397 67.8889L287.281 67.8517C287.485 67.7414 287.664 67.4397 287.412 67.341L287.378 67.3298C287.26 67.2891 287.145 67.2556 287.027 67.2172C287.036 67.1842 287.036 67.1532 287.024 67.1254L287.511 67.1788C287.555 67.1839 287.344 66.9145 287.242 66.8612L287.225 66.8539L286.991 66.7925C286.956 66.7055 286.767 66.5136 286.702 66.496C285.846 66.2629 285.049 66.0533 284.217 65.8919C284.176 65.8484 284.128 65.8152 284.075 65.8049C283.556 65.6975 283.03 65.613 282.505 65.5417C282.47 65.4953 282.434 65.4623 282.393 65.4595C281.091 65.3162 279.786 65.283 278.476 65.36C278.225 65.3802 277.974 65.4035 277.723 65.4314C277.242 65.4777 276.761 65.5365 276.283 65.6158C275.085 65.794 273.915 66.0649 272.776 66.4302L272.514 66.5162C272.227 66.6085 271.944 66.7055 271.663 66.8107C271.522 66.3732 271.345 65.9431 271.135 65.5212C271.103 65.4391 271.067 65.36 271.029 65.2807L271.315 65.132C271.377 65.2344 271.504 65.3137 271.587 65.2705C273.638 64.0705 275.808 63.0699 278.095 62.2716C279.376 61.7804 280.687 61.3636 282.03 61.0154C282.7 60.8289 283.376 60.66 284.055 60.4989C284.394 60.4372 284.733 60.3758 285.079 60.3246C286.853 59.9102 288.656 59.6418 290.486 59.519ZM222.89 63.58C223.139 63.9531 223.398 64.3225 223.673 64.6868C225.007 66.4571 226.607 68.1183 228.421 69.5667C227.948 69.5656 227.476 69.5812 227.01 69.6191C226.206 69.6849 225.419 69.8005 224.652 69.9625C224.589 69.9192 224.52 69.8975 224.464 69.9318L224.264 70.0518C222.618 70.4368 221.072 71.0421 219.672 71.8532L219.697 71.693C219.701 71.6663 219.706 71.6396 219.712 71.6129C219.688 71.2982 219.682 70.9833 219.694 70.6712C219.983 68.8265 220.706 67.1276 221.533 65.4086C221.548 65.3753 221.537 65.3321 221.513 65.2881C221.93 64.6976 222.387 64.1265 222.89 63.58ZM222.51 49.0775C223.126 49.1747 223.737 49.3001 224.345 49.4561C225.488 49.6048 226.595 49.8658 227.663 50.2365C229.136 50.6893 230.565 51.2164 231.987 51.7744C234.75 52.8589 237.342 54.2305 239.7 55.8833C239.85 55.9829 239.995 56.0855 240.14 56.1878C240.668 56.5841 241.182 56.9986 241.669 57.4361C242.179 57.9171 242.693 58.3983 243.204 58.8816C243.829 59.4499 244.549 59.9639 245.116 60.5779C245.231 60.7033 245.332 60.8414 245.423 60.9798L245.09 61.0794C244.809 61.1612 244.856 61.6167 245.134 61.5501C245.228 61.5271 245.317 61.499 245.405 61.4685C245.367 61.512 245.341 61.5555 245.335 61.5936C245.317 61.7164 245.426 61.8856 245.6 61.8421C245.68 61.8239 245.76 61.7983 245.839 61.7702C245.863 61.8495 245.881 61.9288 245.881 62.0055C245.866 62.0107 245.851 62.0158 245.833 62.0186C245.639 62.0774 245.273 62.3407 245.22 62.5201C245.178 62.6582 245.314 62.8064 245.488 62.7654C245.618 62.7347 245.745 62.6887 245.869 62.6375C245.786 62.7068 245.721 62.781 245.715 62.845C245.704 62.9627 245.822 63.1287 245.984 63.0906C246.285 63.0187 246.527 62.909 246.728 62.7708C246.781 62.8319 246.858 62.8806 246.92 62.8655L247.035 62.8348C247.003 62.8602 246.974 62.8869 246.946 62.9133L246.905 62.9522C246.09 63.7146 245.379 64.5589 244.809 65.4674C244.783 65.4416 244.75 65.4186 244.709 65.3904C244.443 65.196 244.169 65.0067 243.894 64.8227L243.811 64.7598L243.726 64.6971L244.343 64.8736L244.329 64.8598C244.286 64.8114 244.15 64.6501 244.087 64.5963L244.071 64.5845C243.224 63.9272 242.3 63.3692 241.303 62.9141C240.656 62.5505 239.977 62.2435 239.266 61.9902C237.569 61.3071 235.839 60.788 234.062 60.307C233.797 60.2328 233.531 60.1535 233.265 60.0816C233.189 60.0585 233.174 60.0867 233.186 60.1327L233.047 60.0969C232.799 60.0278 232.377 60.4065 232.545 60.583C232.444 60.6547 232.344 60.7345 232.257 60.8094L232.194 60.8645L232.123 60.8465C231.912 60.7902 231.556 61.0751 231.33 61.277L231.164 61.4299C231.037 61.5476 230.789 61.7906 231.093 61.8856L231.474 61.9979C231.462 62.0644 231.494 62.1207 231.612 62.1591C231.745 62.1974 231.875 62.2384 232.005 62.2796C231.926 62.3391 231.849 62.401 231.773 62.4637L231.66 62.5582C231.526 62.6764 231.209 62.937 231.489 63.0521L231.524 63.0648L231.887 63.1773C231.84 63.2694 231.851 63.3567 232.011 63.4076C234.13 64.0319 236.199 64.7639 238.221 65.5954C239.735 66.3217 241.335 66.8644 243.021 67.2198C243.159 67.2584 243.46 67.0767 243.584 66.8951L243.836 66.9593C243.878 66.9699 243.92 66.9801 243.962 66.9895L244.003 66.9974C243.688 67.7266 243.454 68.5169 243.325 69.2819C243.31 69.351 243.298 69.4229 243.289 69.492C242.959 69.4687 242.631 69.4482 242.3 69.4331C240.013 69.3279 237.699 69.3919 235.405 69.6273C234.478 69.1489 233.587 68.6244 232.734 68.0566C232.474 67.8824 232.217 67.7033 231.964 67.5217C230.441 66.3755 229.062 65.0888 227.84 63.6993C226.71 62.4123 225.727 61.0308 224.9 59.5829C224.168 58.2241 223.563 56.8118 223.106 55.3535C222.687 54.0205 222.542 52.7233 222.436 51.3443C222.4 51.1192 222.377 50.8943 222.356 50.6689L222.358 50.5724L222.362 50.5256C222.391 50.0423 222.448 49.5585 222.51 49.0775ZM244.137 66.2117C244.205 66.2322 244.275 66.2527 244.346 66.2706C244.305 66.3499 244.266 66.4269 244.228 66.506L244.224 66.5044L243.945 66.3141C244.004 66.291 244.072 66.2555 244.137 66.2117ZM222.923 45.4496C222.392 45.2782 221.99 45.2449 221.719 45.3524C222.12 45.378 222.522 45.4112 222.923 45.4496Z" fill="black"/>
<path fill-rule="evenodd" clip-rule="evenodd" d="M227.568 149.882C228.542 150.986 230.306 151.832 232.281 152.236C234.163 152.621 236.243 152.605 238.039 152.013L238.193 151.959C239.535 151.476 240.823 150.501 241.312 149.482C241.507 149.078 241.573 148.666 241.44 148.282C241.32 147.937 241.039 147.619 240.572 147.346C240.425 147.26 240.228 147.254 240.04 147.283C239.807 147.318 239.578 147.413 239.44 147.54C238.672 148.248 237.557 148.938 236.239 148.926C235.221 148.917 234.39 148.569 233.584 148.175L233.018 147.894C232.472 147.624 231.917 147.37 231.291 147.254C230.168 147.047 228.807 147.426 227.978 148.052C227.616 148.325 227.353 148.646 227.282 148.992C227.222 149.282 227.306 149.585 227.568 149.882ZM233.402 130.577C231.173 131.751 227.777 134.49 230.175 137.401C232.998 139.968 237.061 137.025 239.064 135.694C240.921 134.662 243.007 137.315 241.284 138.52C226.814 147.806 220.942 130.884 232.275 129.196C233.523 129.01 233.986 130.214 233.402 130.577ZM258.548 112.528L257.908 112.376L257.255 112.223L256.813 112.122C253.781 111.434 250.436 110.828 247.428 111.124C246.331 111.232 245.441 111.767 245.286 112.763C245.155 113.603 245.782 114.688 246.848 114.837C250.38 115.332 253.997 115.172 257.545 115.682C259.312 115.936 261.066 116.252 262.826 116.536C264.165 116.752 265.548 116.828 266.898 117.003L266.588 117.041C266.479 117.054 266.506 117.212 266.613 117.206C267.058 117.167 267.504 117.161 267.95 117.188L268.142 117.202C268.433 117.237 268.605 116.936 268.345 116.783C266.7 115.816 265.304 114.767 263.462 114.054C261.869 113.437 260.23 112.929 258.548 112.528ZM230.939 111.044C228.607 109.001 223.648 109.786 220.875 110.721C219.291 111.255 217.786 111.929 216.532 112.939L216.41 113.038L216.222 113.195C215.375 113.913 214.431 114.901 214.566 115.937C214.586 116.095 214.685 116.275 214.891 116.307C216.002 116.477 217.093 115.969 218.119 115.664L218.799 115.462C219.819 115.16 220.846 114.872 221.898 114.665C223.206 114.407 224.54 114.257 225.883 114.272C227.241 114.288 228.699 114.62 229.992 114.153C231.434 113.632 232.182 112.134 230.939 111.044ZM253.975 127.523C254.57 128.05 255.356 128.347 256.361 128.17C257.147 128.032 258.643 127.347 259.839 126.292C260.656 125.571 261.34 124.669 261.526 123.625C261.569 123.382 261.718 123.227 261.913 123.129C262.067 123.051 262.27 123.012 262.491 123.032C262.678 123.048 262.878 123.107 263.032 123.185C263.325 123.334 263.445 123.545 263.469 123.703C263.704 125.223 263.027 126.732 261.97 128.004C260.545 129.721 258.451 130.979 257.221 131.274C255.115 131.778 252.897 131.377 251.261 130.106C249.953 129.091 249.282 127.767 248.66 126.407L248.54 126.143C248.4 125.834 248.261 125.528 248.114 125.224C247.819 124.617 247.914 124.092 248.2 123.682C248.516 123.229 249.101 122.909 249.752 122.811C250.353 122.721 250.997 122.82 251.505 123.138C251.935 123.407 252.281 123.834 252.404 124.464C252.604 125.489 253.068 126.665 253.886 127.441L253.975 127.523ZM217.869 121.59C218.36 121.368 218.744 121.302 219.288 121.443C219.589 121.521 219.886 121.671 220.119 121.873C220.35 122.073 220.517 122.322 220.581 122.598C220.741 123.279 221.171 123.917 221.783 124.333C222.307 124.688 222.968 124.876 223.701 124.77C224.492 124.655 225.246 124.216 225.765 123.697C225.91 123.552 226.028 123.391 226.143 123.229L226.212 123.131C226.467 122.765 226.716 122.424 227.069 122.156C227.202 122.053 227.404 121.982 227.599 121.982C227.678 121.982 227.759 121.994 227.836 122.014C228.623 122.699 228.775 123.219 228.749 123.735C228.723 124.275 228.477 124.823 228.079 125.333C227.147 126.531 225.378 127.513 224.184 127.736C222.548 128.04 220.924 127.675 219.622 126.883C218.282 126.068 217.289 124.803 216.98 123.378C216.905 123.035 216.937 122.664 217.088 122.343C217.235 122.029 217.492 121.76 217.869 121.59Z" fill="black"/>
</svg>
