<svg width="240" height="260" viewBox="0 0 240 260" fill="none" xmlns="http://www.w3.org/2000/svg">
<g clip-path="url(#clip0_40_294)">
<path fill-rule="evenodd" clip-rule="evenodd" d="M188.18 175.386C187.516 173.563 188.485 171.744 189.023 169.98C190.933 163.864 193.018 157.747 195.969 152.043C197.087 150.134 195.248 147.794 193.117 148.332C189.47 148.843 185.708 148.436 182.055 148.21C180.718 144.752 177.152 143.317 174.345 141.325C171.16 139.337 168.061 137.052 164.749 135.309C164.564 133.661 162.568 133.253 161.346 134.431C157.993 132.344 153.971 132.732 150.375 131.364C147.644 126.947 147.439 122.302 146.715 118.041C146.4 116.183 146.735 114.391 145.466 112.735C141.204 106.738 124.363 104.137 118.153 107.691C114.811 105.606 114.73 109.383 114.199 111.714C113.609 112.88 113.29 114.201 113.389 115.592C109.798 123.094 101.584 126.485 94.2283 129.233C93.3055 128.344 91.9866 128.457 91.1086 129.192C84.7325 130.578 78.5443 133.016 73.2022 136.822C67.1329 138.598 62.8585 143.536 59.7676 148.831C59.4271 149.389 59.3468 149.958 59.4463 150.481C49.9416 164.419 45.4052 181.105 44.7681 197.957C38.6559 201.627 47.6732 234.593 49.7724 241.437C49.7745 241.436 49.7766 241.435 49.7787 241.434C51.1405 243.846 52.6868 250.729 56.095 250.196C58.4329 252.841 62.1586 252.321 65.3312 252.524C64.8144 254.507 65.0683 256.775 65.6833 258.735C66.4107 261.067 69.9803 261.146 70.4865 258.603C102.08 264.744 134.497 259.845 166.446 260.766C175.683 260.832 184.92 261.118 194.135 261.776C195.433 261.869 196.749 260.542 196.66 259.25C194.679 238.163 192.818 210.423 190.603 189.543C190.077 184.781 189.662 179.967 188.18 175.386Z" fill="white"/>
<path fill-rule="evenodd" clip-rule="evenodd" d="M114.721 108.993C114.811 108.745 115.181 108.778 115.188 109.056C115.333 114.985 113.858 122.23 109.115 126.235C106.681 128.291 103.462 129.232 100.506 130.313L100.173 130.436L94.9507 132.382C93.5656 132.898 92.0715 133.692 90.8481 132.963C91.8381 135.419 92.6692 137.942 93.8749 140.309C95.3757 143.256 97.1903 145.951 99.4112 148.403C108.21 158.117 122.134 161.08 134.63 158.234C141.065 156.768 147.326 153.99 151.716 148.924C155.052 145.073 156.969 139.905 157.421 134.807C157.289 134.828 157.15 134.827 157.008 134.796C155.427 134.451 153.831 133.603 152.44 132.772L152.306 132.692C150.967 131.885 149.572 130.962 148.611 129.709C147.657 128.465 146.656 124.408 146.656 124.408C146.383 122.883 146.127 119.845 146.171 118.304C146.175 118.159 146.82 118.073 146.889 118.224C147.485 119.532 147.678 122.408 148.138 123.769L148.231 124.041C148.722 125.464 149.143 127.195 150.162 128.345C152.074 130.504 154.959 131.418 157.534 132.5C157.719 130.06 161.615 130.117 161.565 132.662C161.562 132.8 161.556 132.938 161.552 133.075C161.859 133.244 162.154 133.437 162.43 133.624L162.7 133.807C163.72 134.501 164.748 135.161 165.834 135.749C167.937 136.89 170.163 137.794 172.317 138.828C174.497 139.876 176.535 141.123 178.439 142.617C179.333 143.318 180.19 144.064 181.003 144.858L181.223 145.076C181.997 145.847 183.004 146.709 183.445 147.722C183.542 147.945 184.029 148.465 184.293 148.482C188.387 148.751 192.472 149.13 196.54 149.698C197.593 149.845 198.009 150.388 197.62 151.266C196.282 154.284 191.045 166.336 189.652 169.57C189.815 171.946 189.595 174.743 189.742 177.12C189.956 180.588 190.237 184.055 190.574 187.513C191.778 199.885 193.603 212.197 195.253 224.515C196.079 230.679 196.831 236.853 197.574 243.028C197.95 246.149 198.268 249.272 198.513 252.406C198.615 253.712 198.708 255.019 198.789 256.326L198.86 257.486C198.957 258.945 199.18 260.338 198.277 261.591C197.868 262.159 196.934 262.479 196.395 261.833C195.719 261.022 195.468 260.416 195.403 259.35C195.353 258.534 195.342 257.715 195.304 256.898C195.224 255.128 195.123 253.358 195.005 251.59C194.769 248.055 194.5 244.521 194.188 240.991C193.094 228.616 191.015 216.334 189.632 203.989C188.935 197.766 188.44 191.531 188.177 185.273C188.046 182.148 187.999 179.023 188.029 175.896C188.041 174.727 188.096 173.564 188.177 172.404C186.104 177.113 183.926 181.777 181.649 186.378L181.109 187.468C179.665 190.377 178.183 193.296 176.449 196.038L176.151 196.506C175.448 197.62 174.488 199.376 173.206 199.727C172.314 199.972 171.223 199.8 170.308 199.782C169.399 199.765 168.49 199.761 167.583 199.724C166.564 199.683 165.593 199.549 164.609 199.284C164.446 199.24 164.291 199.192 164.15 199.131C163.159 200.754 161.475 201.99 159.753 202.71C158.373 203.287 156.928 203.682 155.48 204.048L154.968 204.177C153.416 204.563 151.64 204.747 150.765 206.247L150.561 206.595C149.91 207.701 149.286 208.673 148.208 209.466C147.049 210.32 145.675 210.857 144.306 211.275C142.905 211.703 141.471 212.03 140.048 212.381L139.66 212.478C138.721 212.713 137.773 212.929 136.84 213.184C136.441 213.294 136.036 213.406 135.645 213.54C135.187 213.698 134.855 213.943 134.494 214.21C134.169 215.344 132.782 215.96 131.642 215.881C131.043 215.84 130.506 215.637 130.017 215.339C129.164 216.065 128.224 216.716 127.354 217.389C126.136 218.332 124.913 219.268 123.684 220.195C121.149 222.107 118.594 223.993 116.013 225.842C111.432 229.125 106.751 232.257 101.991 235.273C100.006 236.53 98.0079 237.786 95.9901 239.011L96.2055 239.091L96.6326 239.252C97.6422 239.629 98.7672 240.239 98.9629 241.417C99.1179 242.352 98.5961 242.996 97.6737 243.11C96.5774 243.245 95.7243 242.471 95.0417 241.731C94.7405 241.405 94.4033 241.102 94.1147 240.766C93.997 240.629 93.9066 240.471 93.8269 240.305C91.8356 241.479 89.8231 242.613 87.7786 243.674L87.2669 243.938C82.1971 246.531 77.2625 249.372 72.1496 251.892C70.8159 252.55 69.1898 253.26 67.4948 253.746C67.9445 255.49 67.9376 257.405 67.949 259.175C67.9598 260.9 65.2194 260.892 65.2773 259.175L65.3052 258.346C65.3551 256.951 65.4366 255.504 65.7672 254.148C60.7732 254.976 55.7842 253.176 54.8553 252.635C53.83 252.038 52.8993 251.084 52.1248 250.199C50.4674 248.303 49.3173 246.032 48.2969 243.747C46.1111 238.853 44.5625 233.621 43.4303 228.389C39.2563 209.1 41.0517 188.455 47.8302 169.965C49.5237 165.345 51.5231 160.827 53.8143 156.473L54.0988 155.934C56.3852 151.628 58.9263 147.338 62.1541 143.674C65.5162 139.857 69.6636 136.889 74.1793 134.585C76.383 133.46 78.6505 132.486 80.9681 131.622C81.3404 131.483 81.7152 131.359 82.0908 131.24C84.506 129.7 87.4372 128.226 90.3693 128.284C90.5686 128.288 90.73 128.363 90.8504 128.477C90.9917 128.502 91.1331 128.532 91.2746 128.573C91.5871 128.664 91.9171 129.007 91.8723 129.359L91.8571 129.476C91.8488 129.533 91.8384 129.588 91.8205 129.642C91.9253 129.658 92.0282 129.683 92.129 129.717C94.9344 128.924 97.6946 127.712 100.432 126.735L101.056 126.514C103.349 125.711 105.701 124.923 107.582 123.332C109.453 121.749 110.86 119.699 111.877 117.483C113.13 114.753 113.692 111.796 114.721 108.993ZM170.888 252.99C171.444 252.577 172.101 253.056 172.308 253.568C172.991 255.247 172.654 257.856 171.692 259.341C170.695 260.879 168.309 260.272 168.251 258.409C168.191 256.466 169.32 254.158 170.888 252.99ZM176.626 206.622C176.676 206.404 177.015 206.406 177.065 206.622C177.528 208.593 177.517 210.715 177.653 212.735L177.669 212.959C177.831 215.187 177.968 217.421 178.066 219.652C178.258 224.043 178.487 228.434 178.743 232.822C178.871 234.997 179.007 237.173 179.153 239.347C179.609 239.093 180.078 238.87 180.565 238.673C181.294 238.378 182.004 238.344 182.788 238.352C183.742 238.362 184.461 239.202 184.334 240.137C184.197 241.155 183.3 241.592 182.369 241.447C181.338 241.285 180.303 241.035 179.262 240.931C179.378 242.613 179.498 244.294 179.625 245.974C179.793 248.199 180.013 250.42 180.167 252.646C180.182 252.858 180.198 253.07 180.214 253.284C180.835 252.961 181.494 252.795 182.241 252.592L182.435 252.537C183.52 252.226 184.68 251.795 185.684 252.524C186.359 253.015 186.494 253.822 185.935 254.469C185.087 255.451 183.833 255.261 182.662 255.21L182.032 255.187C181.439 255.164 180.891 255.126 180.342 254.976C180.443 256.426 180.496 257.881 180.318 259.31C180.222 260.082 179.206 260.284 178.937 259.496C178.235 257.438 178.09 255.218 177.833 253.062C177.593 251.049 177.447 249.02 177.289 246.998L177.242 246.391C176.888 241.941 176.605 237.489 176.399 233.031C176.192 228.572 176.068 224.115 176.018 219.652C175.996 217.626 176.029 215.592 176.109 213.566L176.134 212.959C176.225 210.875 176.161 208.664 176.626 206.622ZM83.7897 253.318C83.8167 253.034 84.0447 252.68 84.3837 252.724C84.6962 252.765 85.0182 252.745 85.3273 252.797C85.7352 252.864 86.0635 253.106 86.443 253.257C87.0597 253.504 87.7319 253.631 88.3647 253.833C89.5518 254.212 90.1987 255.462 89.7071 256.63C89.1901 257.857 87.891 258.136 86.7685 257.621C85.8838 257.215 85.2243 256.566 84.6294 255.815L84.4608 255.601C84.2044 255.278 83.9135 254.918 83.8059 254.528C83.7013 254.147 83.7529 253.706 83.7897 253.318ZM141.465 247.549C142.944 247.34 144.207 247.846 145.575 248.323L145.686 248.361C147.079 248.842 149.11 249.175 149.824 250.601C150.255 251.46 149.92 252.602 148.907 252.857C147.302 253.259 145.863 252.086 144.536 251.296L144.467 251.255C143.186 250.504 141.864 249.873 141.046 248.579C140.828 248.234 141.017 247.612 141.465 247.549ZM89.8487 129.913C89.2563 130.045 88.6639 130.163 88.0722 130.275C85.8211 131.482 83.6362 132.735 81.312 133.81C78.8461 134.951 76.3893 136.13 74.0469 137.51C69.3148 140.299 65.4137 143.925 62.1902 148.369C56.622 156.047 52.4801 164.9 49.5158 173.884C48.7542 176.192 48.0726 178.526 47.4697 180.879C48.5357 179.893 49.7978 179.286 51.2131 178.767C51.8129 178.547 52.5595 178.92 52.8636 179.439C53.0002 179.672 53.0774 179.903 53.0632 180.177C53.0317 180.781 52.6388 181.467 51.9902 181.587C50.4781 181.866 49.0079 182.408 47.55 182.886C47.329 182.958 47.139 182.931 46.9874 182.846C45.54 188.979 44.6345 195.238 44.3138 201.535C44.0425 206.866 44.2098 212.239 44.8001 217.563C45.2537 217.359 45.6974 217.168 46.1947 217.052C46.8397 216.902 47.4741 216.719 48.1033 216.513C49.9189 215.917 50.7471 218.916 48.8913 219.373C48.2007 219.543 47.5058 219.684 46.8021 219.788C46.1888 219.878 45.6462 219.838 45.068 219.744C45.5097 223.065 46.1131 226.362 46.8817 229.613L47.0513 230.324C48.0497 234.475 49.2133 238.665 50.896 242.589C51.7214 244.513 52.8143 246.341 54.1637 247.945C54.8267 248.734 55.5625 249.411 56.3649 250.052C57.0329 250.585 59.3037 251.742 61.993 251.742C64.6824 251.742 65.4104 251.488 66.7673 251.021C69.4506 250.097 71.9983 248.622 74.5147 247.308L74.775 247.173C75.8877 246.597 76.9962 246.012 78.1018 245.423C77.9621 244.295 78.2066 243.348 78.7939 242.307C79.4288 241.18 81.0018 241.741 81.1188 242.894L81.1225 242.938C81.1402 243.197 81.1838 243.462 81.2379 243.726C88.6303 239.675 95.8662 235.34 102.987 230.823C107.574 227.914 112.112 224.917 116.584 221.833C118.819 220.291 121.035 218.721 123.229 217.121C124.378 216.283 125.522 215.438 126.661 214.585C127.135 214.23 127.601 213.857 128.076 213.5C127.96 213.356 127.848 213.212 127.739 213.069C125.964 210.744 124.812 207.973 124.238 205.114C123.892 203.389 123.724 201.598 123.673 199.839L123.651 199.074C123.616 197.786 123.607 196.437 123.844 195.189C123.521 195.366 123.191 195.541 122.862 195.727C121.682 196.396 120.5 197.063 119.317 197.728C116.948 199.057 114.571 200.372 112.164 201.633C107.865 203.886 103.524 206.029 99.0659 207.95L96.8965 208.885C93.1315 210.506 89.3357 212.096 85.4212 213.301C83.2132 213.98 80.9886 214.56 78.7489 215.078L79.6546 216.14C80.2688 216.859 80.2795 217.892 79.4947 218.498C78.7231 219.093 77.6879 218.845 77.1739 218.054L76.2369 216.613C76.0367 216.304 75.923 216.016 75.8586 215.712C74.8269 215.928 73.7925 216.135 72.7553 216.335L70.7946 216.71C67.9949 217.25 65.2803 218.321 62.7777 219.691C61.9078 220.167 61.6654 219.242 62.5871 218.597C65.2824 216.712 68.4263 215.646 71.6701 214.75L71.8295 214.707C73.0195 214.381 74.2075 214.041 75.3929 213.689C75.2626 213.217 75.1874 212.727 75.2024 212.188C75.2357 210.985 75.342 209.779 75.4058 208.577C75.5398 206.055 75.7107 203.541 75.9109 201.024C75.9879 200.055 76.074 199.082 76.1727 198.111C75.537 197.77 74.9888 197.317 74.28 197.094L74.1604 197.06C73.4024 196.855 73.6582 195.878 74.3315 195.794C74.9414 195.719 75.5484 195.754 76.1497 195.883C76.2429 195.903 76.331 195.926 76.415 195.951C76.5255 195.051 76.6481 194.154 76.7873 193.261C77.1555 190.903 77.416 188.418 78.1825 186.152C78.2393 185.985 78.4884 185.925 78.5807 186.1C79.6958 188.222 79.7346 190.826 79.8602 193.189L79.8758 193.471C80.0239 196.049 80.0324 198.652 79.9846 201.234C79.9356 203.894 79.8445 206.548 79.7252 209.206C79.6772 210.277 79.6791 211.387 79.4968 212.411C86.1323 210.253 92.6505 207.67 98.8983 204.611C103.306 202.454 107.675 200.21 111.994 197.882C114.158 196.716 116.333 195.569 118.495 194.398C119.252 193.988 120.009 193.576 120.766 193.164L121.9 192.545C122.962 191.965 123.848 191.388 125.085 191.348C125.454 191.336 125.784 191.508 126.019 191.77C126.684 191.298 127.452 191.009 128.258 191.016C129.472 189.339 130.704 187.676 131.985 186.049L132.931 184.844C134.57 182.766 136.305 180.656 138.394 179.074C139.326 178.369 140.352 177.839 141.421 177.402C141.169 177.34 140.923 177.216 140.704 177.013C139.682 176.065 139.541 174.305 139.334 172.983C139.119 171.612 139.202 170.385 139.414 169.018C139.497 168.487 140.376 168.377 140.591 168.865C141.043 169.893 141.522 170.879 141.934 171.919L142.055 172.233C142.497 173.404 143.438 174.635 143.376 175.905C143.359 176.254 143.242 176.557 143.062 176.801C143.96 176.503 144.871 176.237 145.767 175.959C148.589 175.087 151.422 174.239 154.298 173.563C155.064 173.383 155.833 173.215 156.606 173.062C157.01 171.14 157.6 169.253 158.296 167.4C157.637 167.062 157.211 166.496 156.644 165.993C156.113 165.522 155.749 164.948 155.296 164.407C154.884 163.915 155.115 163.025 155.856 163.054L156.066 163.063C156.833 163.099 157.576 163.178 158.272 163.536L158.52 163.664C158.86 163.841 159.232 164.043 159.564 164.282C159.997 163.285 160.448 162.297 160.903 161.319L161.494 160.055C163.026 156.763 164.554 153.347 166.478 150.282C167.333 148.92 168.471 148.069 170.104 147.938C171.787 147.802 173.535 147.977 175.22 148.037C177.173 148.107 179.125 148.19 181.076 148.293C180.575 147.769 180.119 147.186 179.617 146.683C178.783 145.849 177.903 145.058 176.977 144.328C175.144 142.882 173.13 141.691 171.037 140.665C168.944 139.639 166.79 138.744 164.825 137.476C163.582 136.674 162.47 135.665 161.456 134.573C160.818 141.46 157.493 147.86 152.499 152.668C147.311 157.661 140.142 160.404 133.128 161.571C125.975 162.761 118.509 162.324 111.666 159.837C108.137 158.554 104.753 156.722 101.735 154.423C101.702 154.623 101.662 154.821 101.584 155.007C101.479 155.256 101.35 155.469 101.202 155.688L100.939 156.073C100.773 156.315 100.604 156.555 100.416 156.779C99.9598 157.323 99.3135 157.561 98.6174 157.558C97.2845 157.554 96.275 156.246 96.6338 154.953C96.8592 154.141 97.3415 153.652 98.0945 153.333C98.3324 153.233 98.575 153.149 98.8189 153.066L99.0021 153.004C99.2486 152.919 99.4933 152.839 99.747 152.792C98.318 151.53 96.9921 150.158 95.8048 148.677C92.0807 144.034 88.4076 137.53 89.6526 131.363C89.6742 131.258 89.7695 131.191 89.8721 131.174C89.9444 130.741 90.1747 130.323 90.4901 130.041C90.2778 129.985 90.0638 129.942 89.8487 129.913ZM128.519 236.538C129.256 236.127 130.018 237.102 129.419 237.704L128.524 238.6C127.693 239.435 126.885 240.279 126.174 241.23L126.002 241.463C125.042 242.769 124.019 244.282 122.447 244.77C120.545 245.361 118.717 243.043 119.819 241.35C120.781 239.871 122.633 239.313 124.23 238.701C125.741 238.122 127.106 237.323 128.519 236.538ZM67.1663 229.71C67.5996 229.143 68.7294 229.442 68.4334 230.245C67.472 232.852 67.0801 236.408 64.6518 238.141C63.8684 238.699 62.6377 238.443 61.9927 237.797C61.2598 237.064 61.2305 236.032 61.6496 235.137C62.1608 234.046 63.4182 233.255 64.2995 232.424L64.3786 232.348C65.3267 231.427 66.3522 230.776 67.1663 229.71ZM168.657 232.712C169.43 232.378 171.446 231.73 172.043 232.497C172.071 232.525 172.095 232.556 172.114 232.59C172.261 232.845 172.283 233.204 172.114 233.456C171.418 234.503 170.693 235.284 169.704 236.029L169.592 236.112C168.515 236.904 167.503 237.835 166.19 238.192C164.37 238.688 163.099 236.408 164.377 235.078C165.407 234.005 166.979 233.449 168.343 232.851L168.657 232.712ZM95.5825 217.812C95.278 217.261 95.9 216.586 96.4633 216.93C98.0699 217.913 99.9416 218.65 101.746 219.179C102.477 219.393 103.136 220.134 103.081 220.933L103.073 221.054C103.051 221.336 103.012 221.617 102.833 221.851C102.204 222.674 101.305 222.991 100.345 222.504C98.2052 221.419 96.7404 219.905 95.5825 217.812ZM142.543 216.145C142.503 215.913 142.673 215.735 142.908 215.78C144.266 216.037 145.52 216.693 146.686 217.447C147.311 217.852 147.914 218.296 148.538 218.704C149.309 219.209 149.597 219.625 149.711 220.551C149.786 221.162 149.216 221.72 148.693 221.888C147.268 222.348 145.635 220.84 144.67 219.859L144.626 219.815C143.616 218.785 142.782 217.566 142.543 216.145ZM183.324 214.544C183.014 213.708 184.081 213.014 184.779 213.425C185.435 213.812 186.148 214.132 186.768 214.575C187.337 214.983 187.856 215.465 188.402 215.907L188.672 216.12C189.674 216.926 191.326 218.917 189.895 220.073C188.532 221.172 186.725 219.768 185.81 218.741L185.747 218.669C185.22 218.06 184.572 217.4 184.19 216.689C183.83 216.021 183.587 215.254 183.324 214.544ZM169.885 149.818C168.178 150.15 167.482 152.257 166.764 153.631C165.067 156.873 163.507 160.175 161.94 163.481C161.458 164.497 160.989 165.522 160.515 166.545C160.486 166.625 160.449 166.704 160.405 166.782C159.434 168.873 158.434 170.95 157.266 172.935C158.335 172.734 159.41 172.563 160.489 172.429C160.435 171.413 161.13 170.053 161.474 169.197L161.503 169.125C161.932 168.028 162.382 166.301 163.486 165.732C163.854 165.543 164.248 165.78 164.276 166.186C164.36 167.392 163.18 168.774 162.603 169.798C162.254 170.418 161.915 171.04 161.583 171.669C161.459 171.905 161.355 172.136 161.228 172.344C161.784 172.283 162.341 172.23 162.9 172.191L163.264 172.166C165.335 172.029 167.534 171.99 169.405 173.012C171.141 173.959 172.029 175.982 171.075 177.824C169.887 180.119 167.271 180.423 164.97 180.609C162.096 180.84 159.216 181.259 156.363 181.667C153.411 182.09 150.632 183.178 147.725 183.738C147.454 183.79 147.286 183.436 147.534 183.285C149.827 181.888 152.615 181.12 155.179 180.337L155.387 180.273C156.778 179.846 158.137 179.358 159.576 179.115C160.972 178.88 162.378 178.69 163.786 178.545L163.923 178.532C165.474 178.402 169.431 178.446 169.264 176.149C169.153 174.628 166.683 174.366 165.555 174.348C160.384 174.265 155.177 175.638 150.263 177.109L149.166 177.438C147.154 178.044 145.139 178.667 143.164 179.377C140.927 180.181 139.164 181.435 137.535 183.152C135.728 185.056 133.978 187.002 132.104 188.842C130.922 190.001 129.725 191.14 128.519 192.27C128.246 192.623 128.028 193.007 127.877 193.505C127.622 194.347 127.681 195.129 127.777 195.993C128.02 198.176 128.074 200.382 128.378 202.558C128.66 204.575 129.055 206.665 129.892 208.535C130.223 209.275 130.654 210.003 131.146 210.653L131.542 211.169C131.715 211.393 131.908 211.638 132.111 211.868C132.409 211.505 132.84 211.268 133.341 211.328C134.405 211.453 135.242 211.423 136.286 211.178C137.095 210.989 137.897 210.767 138.701 210.562C140.282 210.159 141.876 209.792 143.44 209.329L143.709 209.248C144.875 208.89 146.041 208.442 147.011 207.689C148.138 206.815 148.485 205.553 149.32 204.461C151.102 202.131 154.955 202.18 157.563 201.542C159.78 201 161.913 200.144 163.447 198.535L163.536 198.439C163.468 198.152 163.578 197.828 163.845 197.679L163.903 197.647C164.007 197.589 164.119 197.565 164.229 197.567C164.371 197.358 164.509 197.142 164.634 196.912C164.736 196.722 164.993 196.862 164.959 197.049C164.939 197.161 164.911 197.27 164.885 197.379C166.371 196.997 168.003 197.07 169.511 197.071L171.469 197.064C171.808 197.06 172.313 197.043 172.358 197.022L172.404 197.002C172.526 196.949 172.353 197.036 172.438 196.923C172.532 196.798 172.624 196.672 172.715 196.544C173.04 196.09 173.347 195.622 173.647 195.15C170.369 195.986 166.972 196.506 163.625 196.939C160.033 197.405 156.394 197.728 152.771 197.731C151.772 197.732 151.781 196.223 152.771 196.186C156.608 196.039 160.425 195.836 164.236 195.344C166.207 195.089 168.17 194.77 170.121 194.396C170.875 194.252 171.626 194.099 172.376 193.938L172.938 193.815C173.291 193.737 174.287 193.625 174.773 193.299C174.869 193.135 174.964 192.971 175.059 192.807C175.012 192.231 173.549 192.308 173.206 192.307C172.233 192.305 171.26 192.313 170.286 192.316C168.34 192.321 166.395 192.304 164.448 192.289C160.56 192.257 156.657 192.121 152.772 192.287C151.829 192.328 151.334 190.815 152.266 190.417C156.381 188.659 160.949 188.277 165.343 187.737C167.654 187.453 169.965 187.125 172.224 186.55L172.783 186.408C174.202 186.044 175.769 185.6 176.964 184.733C175.168 184.006 172.935 184.089 171.074 183.986L170.931 183.978C168.324 183.818 165.713 183.736 163.101 183.732C157.757 183.725 152.412 183.914 147.074 184.168C146.94 184.174 146.912 183.962 147.043 183.934C152.529 182.737 158.105 182.16 163.72 182.071C166.334 182.029 168.951 182.066 171.563 182.182L172.522 182.226C174.749 182.322 177.221 182.348 179.085 183.694C179.369 183.899 179.519 184.161 179.542 184.438C182.042 179.454 184.35 174.365 186.668 169.31C188.47 165.38 190.205 161.417 192.072 157.517L192.677 156.256C193.487 154.572 194.316 152.889 195.237 151.266C191.793 150.806 188.33 150.486 184.865 150.241C181.707 150.018 171.405 149.524 169.885 149.818ZM168.36 203.839C168.753 203.62 169.355 203.798 169.451 204.283C169.523 204.643 169.646 205.044 169.646 205.413C169.646 205.855 169.488 206.335 169.404 206.768C169.21 207.763 168.972 208.571 168.466 209.457C168.15 210.011 167.511 210.387 166.869 210.373C166.361 210.361 165.911 210.225 165.562 209.831C165.144 209.359 164.857 208.666 165.086 208.031C165.687 206.368 166.79 204.711 168.36 203.839ZM85.0577 202.179C85.9767 200.569 88.1551 199.13 90.056 199.272C92.9105 199.486 93.4929 203.331 90.7293 204.248C89.0774 204.797 86.8048 204.234 85.3598 203.331C84.9702 203.088 84.8274 202.583 85.0577 202.179ZM55.7215 196.678C55.5127 196.374 55.8577 196.028 56.1687 196.096C56.8585 196.247 57.6022 196.314 58.2778 196.519C58.9697 196.73 59.6394 197.079 60.3248 197.319C61.7606 197.822 63.2941 198.075 64.6837 198.682C65.2391 198.925 65.676 199.73 65.6246 200.323L65.6115 200.462C65.5808 200.756 65.5298 201.013 65.3652 201.282C64.923 202.005 64.0469 202.378 63.22 202.155C61.686 201.743 60.187 200.684 58.8791 199.804L58.6374 199.644C58.0659 199.267 57.4515 198.873 56.991 198.389C56.5103 197.882 56.1153 197.251 55.7215 196.678ZM108.453 190.821C108.276 190.185 109.068 189.765 109.529 190.195C110.45 191.054 111.414 191.85 112.316 192.731L112.377 192.791C113.023 193.441 113.964 194.693 113.123 195.533C112.046 196.611 110.546 195.012 109.968 194.179C109.236 193.122 108.796 192.057 108.453 190.821ZM178.975 185.562C177.608 187.01 175.502 187.676 173.647 188.228C171.448 188.882 169.183 189.272 166.915 189.594C164.723 189.904 162.549 190.181 160.392 190.537C162.024 190.558 163.655 190.57 165.282 190.599C167.16 190.633 169.036 190.674 170.912 190.728C172.279 190.768 173.882 190.58 175.181 191.088C175.415 191.18 175.634 191.307 175.825 191.461C176.916 189.519 177.963 187.55 178.975 185.562ZM94.6498 172.015C96.0767 171.562 97.4185 170.96 98.9312 171.117C99.3332 171.158 99.6212 171.549 99.4016 171.936C98.6848 173.198 97.5191 173.911 96.3716 174.755L96.2705 174.83C95.0145 175.764 93.6659 176.616 92.3001 177.383C89.9485 178.703 87.8411 174.924 90.2159 173.816C91.645 173.148 93.146 172.493 94.6498 172.015ZM120.34 168.735C122.523 168.879 124.705 168.976 126.89 169.065C129.422 169.167 128.571 173.065 126.456 172.276C124.367 171.497 122.277 170.727 120.169 170C119.527 169.779 119.579 168.724 120.299 168.733L120.34 168.735ZM64.3484 161.801C64.9142 161.762 65.4849 161.885 66.0515 161.94L66.6544 161.999C67.8973 162.122 69.0626 162.275 70.2479 162.781C72.4349 163.715 71.2603 167.232 69.0648 167.151C67.442 167.091 66.0544 166.394 64.6842 165.583C63.4863 164.873 62.7519 163.985 61.943 162.871C61.6751 162.502 62.0484 162.089 62.4132 162.052C63.0559 161.986 63.7056 161.846 64.3484 161.801ZM173.979 154.619C173.617 156.878 172.719 158.995 171.365 160.839C170.685 161.765 169.491 161.8 168.817 160.839C167.863 159.479 168.451 157.92 169.169 156.614L169.382 156.232C169.704 155.658 170.198 154.821 170.762 154.244L170.772 154.185C171.074 151.819 174.352 152.291 173.979 154.619ZM85.683 140.121C86.2272 139.63 87.2295 139.778 87.4061 140.576C87.6533 141.693 87.8037 142.953 87.6419 144.087C87.5542 144.702 87.5212 145.392 87.2795 145.965C87.0197 146.581 86.5198 147.055 86.0489 147.519C85.1088 148.443 83.1269 148.138 82.875 146.68L82.8431 146.502C82.7164 145.812 82.5544 145.075 82.7419 144.392C82.8835 143.876 83.1999 143.35 83.4617 142.872L83.5169 142.77C84.0412 141.793 84.8586 140.863 85.683 140.121ZM162.181 142.498L162.378 142.5C163.897 142.53 166.674 142.9 166.689 144.778C166.692 145.221 166.365 145.679 165.926 145.781C165.018 145.992 164.431 145.455 163.783 144.913C163.254 144.469 162.637 144.115 161.997 143.861C161.304 143.585 161.35 142.497 162.181 142.498Z" fill="black"/>
<path fill-rule="evenodd" clip-rule="evenodd" d="M164.804 69.3171C164.02 63.0567 161.557 56.4098 158.966 50.5734C153.141 38.2335 139.804 36.5345 127.848 33.9903C116.05 32.272 103.557 30.7205 91.9366 34.1488C85.404 35.7498 82.8525 43.533 83.8835 49.675C84.4718 53.5024 86.2133 57.1247 87.6983 60.6718C90.6499 67.9562 92.5226 75.7548 92.5258 83.6415C92.3232 88.7955 91.596 94.6783 97.5166 96.8613C103.15 99.664 103.626 107.262 110.681 111.572C113.533 117.353 121.304 117.861 126.896 119.202C130.431 119.879 134.005 120.377 137.59 120.699C147.969 122.029 156.271 119.021 161.704 109.771C165.34 104.143 168.047 97.6431 167.379 90.8211C166.712 83.6373 165.603 76.4911 164.804 69.3171Z" fill="white"/>
<path fill-rule="evenodd" clip-rule="evenodd" d="M127.938 18.9932C128.53 18.3215 129.443 18.5519 129.997 19.083C130.357 19.1893 130.707 19.3474 131.037 19.5566C131.783 19.4609 132.564 19.4609 133.296 19.4877C133.473 19.3882 133.664 19.2996 133.871 19.2236C135.349 18.6827 136.659 18.9575 137.739 19.6815C138.26 19.1891 138.916 18.8801 139.755 18.9268C140.504 18.9687 141.038 19.3212 141.495 19.7855C141.951 19.1276 142.689 18.6582 143.607 18.5929C144.891 18.5016 146.125 19.0166 147.148 19.8141C147.744 19.1301 148.557 18.737 149.462 18.7332C150.058 18.625 150.687 18.6677 151.255 18.8393C152.08 19.0885 152.804 19.5554 153.381 20.1613C154.293 19.2872 155.41 18.6582 156.698 18.7499C158.365 18.8704 159.747 20.0964 160.389 21.6055C161.517 22.0575 162.559 22.7024 163.429 23.6218C163.475 23.6702 163.52 23.7209 163.566 23.7718C164.035 23.9449 164.477 24.1903 164.866 24.5134C166.097 25.5387 166.372 27.0224 165.964 28.4763C166.021 28.709 166.07 28.9457 166.114 29.1822C167.268 29.3576 168.316 30.0236 168.911 31.1078C169.727 32.5957 169.566 34.5568 168.683 35.9773C168.304 36.5883 167.822 37.1032 167.28 37.5533C167.892 38.944 167.599 40.6035 166.612 41.7283C166.372 42.1162 166.076 42.4662 165.744 42.783C166.111 44.2208 165.459 45.7043 164.157 46.4725L164.046 46.7512C164.027 46.7976 164.008 46.8437 163.989 46.8893C163.974 46.9485 163.957 47.0058 163.939 47.0635C163.908 47.5737 163.74 48.0743 163.407 48.5461C162.724 49.5128 161.878 50.1433 161.43 51.2719L161.385 51.3904C161.192 51.9245 160.569 52.3013 160.038 52.1365C162.985 58.1898 164.53 64.9253 165.59 71.5262C166.119 74.8193 166.527 78.1237 166.858 81.4409L167.183 84.7442C167.468 87.6804 167.722 90.6262 167.724 93.5721C167.728 100.236 165.823 106.646 161.733 111.949C157.864 116.962 152.39 120.595 146.206 122.026C139.822 123.501 132.333 122.92 126.607 119.543C124.919 118.55 126.398 116.161 128.116 116.96C131.367 118.474 134.671 119.598 138.275 119.85C141.789 120.097 145.311 119.657 148.642 118.507C154.154 116.603 158.844 112.615 161.859 107.648C163.344 105.201 164.42 102.544 164.992 99.7372C165.705 96.2388 165.598 92.6228 165.336 89.0796L165.318 88.8381C164.8 82.0113 164.118 75.1424 163.015 68.3836C162.04 62.4069 160.541 56.5512 158.595 50.8251C157.833 50.1538 156.98 49.5984 156.068 49.1765C149.386 48.8973 142.692 48.9789 136.019 49.4401C130.328 49.836 124.664 50.5057 119.044 51.4819L118.442 51.5876C117.197 51.8093 115.816 51.9361 114.643 52.4373C113.637 52.8684 113.23 53.6969 112.976 54.7154C112.338 57.2918 112.241 60.1114 112.133 62.7533C112.028 65.3357 112.266 67.9398 112.059 70.5138C111.884 72.6675 111.333 74.8719 109.737 76.4297C108.903 77.2453 107.876 77.6913 106.913 78.3105C106.29 78.7102 106.025 79.1221 106.106 79.8619C106.279 81.4808 107.583 83.5203 106.118 84.9068C105.861 85.1498 105.415 85.1815 105.161 84.9068C104.557 84.2497 103.723 83.7486 103.006 83.2181C102.706 82.9985 102.956 82.5716 103.296 82.7235C103.744 82.9245 104.2 83.1612 104.667 83.3684C103.636 82.5187 102.17 82.1022 100.949 81.8549C100.334 81.7323 99.6875 81.6964 99.0473 81.7536C98.5741 81.9796 98.0903 82.189 97.6065 82.3938C96.9917 82.6519 96.3706 82.8863 95.7452 83.1084C93.5755 84.8772 92.5403 87.7539 92.9924 90.567C93.2396 92.1202 93.9558 93.8091 95.3058 94.7158C96.9051 95.7894 99.0473 95.3285 100.775 96.1255C102.394 96.8713 103.378 98.3785 104.116 99.9382L104.423 100.588C105.107 102.025 105.811 103.425 106.746 104.734C107.828 106.249 109.152 107.61 110.597 108.779C111.298 109.345 112.046 109.854 112.818 110.317L113.029 110.442C113.811 110.901 114.371 111.338 114.423 112.308C114.44 112.647 114.227 112.955 113.952 113.131C112.769 113.881 111.592 112.942 110.608 112.287C109.545 111.581 108.529 110.787 107.589 109.92C105.802 108.276 104.255 106.323 103.066 104.203C102.159 102.589 101.644 100.317 100.211 99.0653C99.3368 98.3022 98.1008 98.296 97.0086 98.1563C95.9924 98.0255 95.0311 97.8142 94.1269 97.3133C90.4487 95.2695 89.4093 90.3218 90.2818 86.4985C90.4297 85.8536 90.6368 85.2259 90.8924 84.6215C89.5234 84.8497 87.9853 83.4339 88.541 82.0049C88.5832 81.8972 88.6318 81.7959 88.6783 81.6921C87.7762 81.0983 87.0642 80.1981 86.7262 79.0207C86.5529 78.412 86.5276 77.797 86.6184 77.2031C86.1811 76.9095 85.8199 76.5056 85.5875 76.0089C84.8607 75.6729 84.2163 75.1701 83.8318 74.4515C83.2994 73.4601 83.367 72.547 83.7727 71.7249C83.7156 71.6215 83.6607 71.5158 83.6079 71.4078C82.1184 70.4633 81.079 68.8357 81.1973 67.0308C81.2353 66.4327 81.3832 65.8937 81.6114 65.4078C81.5924 65.3465 81.5734 65.2829 81.5565 65.2216C80.31 64.5876 79.279 63.5458 78.9114 62.1551C78.5438 60.7558 78.9769 59.3609 79.8431 58.2872C78.5755 57.3596 77.8128 56.064 78.2755 54.1046C78.4635 53.308 78.8417 52.5829 79.353 51.9721C79.3508 51.9533 79.3466 51.9342 79.3424 51.915L79.2238 51.823C77.6589 50.5876 76.7594 49.0134 77.7199 47.0772C78.1508 46.2066 78.7656 45.5999 79.4882 45.2004L79.5241 45.0863C79.0065 43.9767 78.8311 42.7445 79.1882 41.4489C79.4797 40.3818 80.1706 39.532 81.0537 38.9679C80.9945 38.49 81.003 37.9809 81.098 37.4291C81.2565 36.4972 81.7191 35.6835 82.3952 35.1065C82.4206 34.9837 82.4522 34.8635 82.4882 34.7428C82.7163 34.0054 83.1431 33.2044 83.6375 32.6103C84.0452 32.1178 84.5015 31.9382 85.0593 31.9192C85.0255 31.465 85.0487 31.004 85.1417 30.5369C85.4269 29.0957 86.3438 27.7408 87.7022 27.1257C88.26 26.8742 88.8473 26.8005 89.4135 26.8615C89.8952 25.8471 90.8353 25.1118 91.991 24.9533C92.441 24.8899 92.8593 24.8939 93.2438 24.9511C93.4614 24.8495 93.6875 24.7588 93.9241 24.6762C94.0804 24.6212 94.2389 24.5705 94.3973 24.52C94.9318 23.8564 95.6353 23.3257 96.4572 23.0067C97.4058 22.6369 98.3713 22.6747 99.2269 22.9854L99.4994 22.9283C99.9262 22.1886 100.606 21.6158 101.652 21.3559C102.84 21.0621 104.059 21.4721 104.992 22.2184C104.997 22.2184 105.001 22.2184 105.007 22.2161C105.495 21.1234 106.33 20.3625 107.73 20.4154C108.603 20.4492 109.391 20.8827 109.999 21.4998C110.337 21.4573 110.675 21.4193 111.016 21.3814C111.375 20.9606 111.774 20.5677 112.216 20.2148C112.938 19.6355 113.878 19.6822 114.411 20.4978C114.527 20.6753 114.635 20.855 114.742 21.0346L115.23 21.0008C115.805 20.2251 116.589 19.701 117.662 19.6589C118.647 19.6186 119.348 20.1007 119.883 20.7747C120.318 20.7641 120.755 20.7558 121.192 20.7493C121.702 20.1596 122.302 19.6397 122.986 19.2085C123.51 18.8788 124.283 18.9911 124.708 19.4307C124.995 19.7295 125.262 20.0415 125.51 20.3644C126.15 19.6467 127.014 19.1739 127.938 18.9932ZM96.8438 86.1074C97.8304 85.5452 99.1572 86.1539 100.112 86.6315C101.276 87.2127 102.432 88.0898 103.144 89.1889C104.114 90.6852 101.834 91.8941 100.814 90.5521C100.186 89.7257 99.6854 88.893 98.9248 88.1702C98.2297 87.5065 97.222 87.0627 96.8227 86.1877C96.8079 86.1581 96.8121 86.1243 96.8438 86.1074ZM97.5375 49.7866L97.5559 49.7339C97.8365 48.966 96.612 48.6351 96.3338 49.3966C95.9121 50.5507 96.3982 51.8055 97.5378 52.3039C97.8536 52.4421 98.2145 52.3941 98.4048 52.0765C98.5647 51.8091 98.4906 51.3458 98.1775 51.2091C97.5363 50.9286 97.3215 50.4335 97.5375 49.7866ZM86.9873 47.6396C87.6002 47.0986 86.7008 46.2044 86.0909 46.7431C85.5217 47.2457 85.0996 47.9283 85.2092 48.7135C85.321 49.5137 85.9242 50.0786 86.5844 50.4779C87.2841 50.9012 87.9219 49.8051 87.2241 49.3829L87.1457 49.3349C86.8528 49.1529 86.51 48.9027 86.4604 48.5446C86.4078 48.1642 86.7295 47.8673 86.9873 47.6396ZM90.4677 38.0926L90.5111 38.0606C91.1694 37.5906 90.5371 36.4903 89.8712 36.9656C89.2606 37.4016 88.7709 37.968 88.7193 38.7492C88.6693 39.5084 89.0555 40.1665 89.5604 40.7006C90.1222 41.2947 91.0175 40.3969 90.4568 39.804C89.9105 39.2262 89.8037 38.5958 90.4677 38.0926Z" fill="black"/>
<path fill-rule="evenodd" clip-rule="evenodd" d="M150.577 100.332C150.724 100.292 150.853 100.489 150.732 100.597C150.234 101.039 149.919 101.861 149.556 102.422C149.21 102.955 148.878 103.483 148.574 104.042C148.234 104.667 147.905 105.291 147.64 105.953L147.588 106.087C147.667 106.276 147.729 106.462 147.775 106.584L147.788 106.619C148.24 107.775 147.291 109.06 146.219 109.383C144.387 109.936 142.814 108.43 142.771 106.64C142.736 105.231 143.691 103.976 144.66 103.045C145.509 102.231 146.458 101.538 147.521 101.03C147.99 100.806 148.477 100.619 148.986 100.51C149.506 100.399 150.068 100.47 150.577 100.332ZM147.124 105.436C147.259 105.5 147.373 105.654 147.47 105.835C147.422 105.682 147.322 105.529 147.124 105.436ZM148.271 85.8665C149.866 86.8366 152.297 89.0987 150.581 91.5037C148.561 93.6243 145.652 91.1929 144.219 90.0933C142.89 89.2411 141.396 91.4329 142.629 92.428C152.987 100.099 157.19 86.1202 149.078 84.7259C148.184 84.5722 147.853 85.5664 148.271 85.8665ZM135.156 76.5513L135.438 76.5276C136.661 76.4198 137.899 76.2555 139.105 76.5323C140.724 76.9042 140.606 79.2616 139.105 79.6951C137.782 80.077 136.316 79.9117 134.95 79.9249C134.735 79.927 134.521 79.9325 134.306 79.9361C134.264 80.4469 134.096 80.8873 133.84 81.3274C133.656 81.6431 133.422 81.943 133.191 82.2235C132.642 82.8901 131.349 82.8751 130.795 82.2235C130.386 81.7412 130.06 81.1864 130.055 80.5335C130.053 80.3664 130.074 80.1888 130.114 80.0143L129.368 80.0273C127.544 80.0551 125.706 80.0428 123.914 79.7528C123.277 79.8847 122.756 78.7345 123.635 78.3902C126.026 77.4548 128.697 77.1794 131.234 76.8985C132.538 76.754 133.849 76.6544 135.156 76.5513ZM155.525 75.5846L155.59 75.5781C157.172 75.416 158.916 75.1354 160.502 75.2968C162.869 75.5375 162.865 78.7387 160.502 78.9781C159.634 79.066 158.72 79.0233 157.809 78.9392C158.275 79.9279 157.722 81.1087 156.6 81.2596C155.557 81.3998 154.475 80.3858 154.818 79.2982L154.834 79.2501C154.9 79.0614 154.96 78.8505 155.032 78.6423L154.654 78.6104C153.526 78.5106 151.96 78.3068 151.544 77.4156C151.419 77.147 151.448 76.8976 151.641 76.6681C152.432 75.7262 154.382 75.6952 155.525 75.5846ZM138.7 68.2554C139.846 67.8392 141.036 68.8132 141.184 69.9107C141.355 71.1755 140.443 72.0082 139.287 72.1592L139.229 72.1662C136.678 72.4473 134.146 72.9613 131.592 73.2519C130.431 73.3837 129.262 73.4705 128.094 73.5017L127.26 73.5204C126.237 73.5463 125.14 73.5696 124.195 73.2173L124.199 73.2109C123.948 73.1382 123.833 72.7764 124.112 72.5786C125.117 71.8674 126.473 71.5985 127.643 71.2606C128.82 70.9205 130.005 70.6071 131.194 70.3127C133.69 69.6951 136.282 69.1342 138.7 68.2554ZM149.262 68.5511C149.565 66.9509 151.831 66.7793 152.663 67.9436C153.201 68.1284 153.989 68.3211 154.478 68.4661C155.33 68.7187 156.182 68.9697 157.036 69.213C158.804 69.7169 160.529 70.3556 162.268 70.9509C162.447 71.0124 162.398 71.2399 162.226 71.2625C159.799 71.5784 157.413 71.7254 154.972 71.6241L154.472 71.6016C152.321 71.5177 148.669 71.6777 149.262 68.5511Z" fill="black"/>
<path fill-rule="evenodd" clip-rule="evenodd" d="M152.745 109.525C150.777 107.772 148.572 104.247 145.745 107.036C145.046 107.824 144.763 109.591 143.694 109.938C142.274 110.398 140.867 108.896 140.383 107.742C138.404 101.33 146.587 99.5712 151.249 100.607C153.526 101.543 155.204 105.309 155.305 107.275C155.371 108.595 154.253 110.538 152.745 109.525ZM167.588 99.6428C167.569 99.5576 167.542 99.4807 167.51 99.4107C166.64 99.0816 165.951 99.4173 165.526 100.044C165.54 100.2 165.586 100.358 165.615 100.512C165.287 101.204 164.991 102.06 164.546 102.658C164.458 102.665 164.367 102.656 164.28 102.63C156.904 103.401 160.505 95.6806 153.024 93.763C147.24 92.8085 136.788 93.9019 134.06 99.9234C131.909 109.542 120.969 102.84 117.377 97.8376C113.544 93.2854 111.066 87.7226 108.676 82.3247C108.171 81.1824 106.596 81.9993 106.767 83.0953C104.558 87.5275 104.632 92.8515 104.085 97.707C103.154 107.394 102.248 120.979 111.245 126.894C122.968 140.15 152.241 144.827 165.761 132.648C170.442 122.581 169.865 110.301 167.588 99.6428Z" fill="black"/>
</g>
<defs>
<clipPath id="clip0_40_294">
<rect width="240" height="260" fill="white"/>
</clipPath>
</defs>
</svg>
